<?xml version="1.0" encoding="UTF-8"?><svg xmlns="http://www.w3.org/2000/svg" xmlns:xlink="http://www.w3.org/1999/xlink" height="85.5" preserveAspectRatio="xMidYMid meet" version="1.0" viewBox="5.1 4.9 86.0 85.5" width="86.0" zoomAndPan="magnify"><g id="change1_1"><path d="M37.27,38.91c-1.25,2.85-1.62,6.01-1.07,8.98c0.27,1.48,0.77,2.93,1.74,3.95c0.48,0.5,1.08,0.89,1.73,1.08 c0.65,0.19,1.32,0.2,1.92-0.08c0.6-0.26,1.12-0.75,1.34-1.36c0.22-0.6,0.06-1.29-0.39-1.81c-0.44-0.51-1.15-0.8-1.79-0.54 c-0.65,0.24-1.09,0.9-1.31,1.61c-0.22,0.72-0.26,1.48-0.17,2.25c0.08,0.76,0.24,1.52,0.5,2.24c0.5,1.45,1.35,2.77,2.41,3.84 c1.06,1.07,2.4,1.87,3.81,2.11c1.39,0.24,2.92-0.19,3.8-1.18c0.43-0.47,0.62-1.14,0.39-1.49c-0.19-0.38-0.87-0.64-1.45-0.57 c-1.2,0.09-2.35,1.3-2.4,2.51c-0.11,1.17,1.1,2.4,2.03,3.56c1,1.15,2.11,2.19,3.37,3.01c1.26,0.81,2.68,1.39,4.19,1.53 c1.5,0.16,3.06-0.07,4.42-0.83l0.07,0.1c-1.27,0.95-2.91,1.39-4.52,1.34c-1.62-0.04-3.23-0.53-4.63-1.33 c-1.42-0.8-2.65-1.87-3.74-3.04c-0.55-0.59-1.05-1.18-1.55-1.85c-0.24-0.34-0.48-0.72-0.65-1.14c-0.18-0.42-0.26-0.93-0.25-1.4 c0.05-0.97,0.49-1.84,1.12-2.5c0.63-0.66,1.5-1.15,2.47-1.2c0.48-0.03,0.97,0.04,1.42,0.23c0.45,0.19,0.9,0.52,1.17,1.03 c0.27,0.51,0.26,1.11,0.11,1.58c-0.15,0.48-0.4,0.88-0.72,1.22c-1.26,1.34-3.17,1.71-4.81,1.35c-1.67-0.36-3.05-1.4-4.11-2.6 c-1.07-1.21-1.83-2.65-2.32-4.16c-0.23-0.76-0.4-1.54-0.47-2.33c-0.08-0.78-0.07-1.61,0.16-2.39c0.21-0.77,0.66-1.58,1.49-1.95 c0.4-0.19,0.88-0.24,1.32-0.12c0.44,0.11,0.83,0.34,1.15,0.66c0.31,0.31,0.56,0.7,0.7,1.14c0.14,0.44,0.13,0.94,0.01,1.38 c-0.25,0.89-0.91,1.61-1.72,2.01c-0.81,0.42-1.81,0.46-2.65,0.2c-0.86-0.25-1.61-0.74-2.2-1.38c-1.19-1.29-1.67-2.95-1.89-4.53 c-0.46-3.19,0.22-6.51,1.88-9.19L37.27,38.91z" fill="#ff8c9d"/></g><g id="change2_1"><path d="M55.58,36.58c0.87,0.62,1.91,0.97,2.96,1c0.52,0.01,1.06-0.03,1.46-0.31c0.41-0.27,0.61-0.75,0.7-1.25 c0.1-0.5,0.12-1.03,0.16-1.57c0.04-0.54,0.16-1.1,0.36-1.62c0.4-1.04,1.1-1.96,2.01-2.62c0.45-0.33,0.95-0.6,1.5-0.78 c0.55-0.17,1.15-0.24,1.74-0.12c0.59,0.13,1.15,0.44,1.53,0.94c0.19,0.25,0.34,0.55,0.38,0.88c0.02,0.17,0.02,0.34-0.02,0.52 c-0.04,0.18-0.13,0.36-0.25,0.5c-0.25,0.29-0.56,0.44-0.88,0.5c-0.32,0.07-0.66,0.05-0.97-0.04c-0.61-0.19-1.11-0.61-1.43-1.14 c-0.16-0.26-0.27-0.57-0.32-0.88c-0.05-0.3-0.05-0.61,0-0.91c0.09-0.6,0.33-1.15,0.66-1.62c0.33-0.48,0.73-0.89,1.2-1.23 c0.47-0.34,1.06-0.57,1.64-0.64c0.59-0.08,1.17,0.01,1.72,0.15c0.55,0.15,1.06,0.37,1.55,0.63c0.25,0.13,0.48,0.27,0.71,0.41 l0.34,0.22c0.14,0.1,0.27,0.2,0.38,0.35c0.06,0.07,0.11,0.16,0.15,0.27c0.04,0.11,0.06,0.26,0.01,0.41 c-0.05,0.15-0.14,0.26-0.26,0.34c-0.12,0.07-0.23,0.1-0.33,0.11c-0.2,0.02-0.33,0-0.48-0.01c-0.15-0.02-0.29-0.04-0.44-0.08 c-0.29-0.07-0.58-0.18-0.84-0.37c-0.26-0.18-0.49-0.47-0.58-0.8c-0.19-0.67,0.11-1.34,0.55-1.75c0.44-0.42,1-0.66,1.55-0.77 c0.55-0.11,1.1-0.13,1.62-0.17c0.52-0.04,1.02-0.14,1.52-0.29c0.49-0.16,0.97-0.36,1.44-0.6c0.92-0.49,1.78-1.13,2.56-1.84 c0.79-0.71,1.53-1.48,2.27-2.25c-0.68,0.82-1.37,1.64-2.13,2.39c-0.76,0.76-1.59,1.45-2.52,2.01c-0.47,0.27-0.97,0.51-1.48,0.69 c-0.52,0.17-1.06,0.31-1.6,0.37c-0.54,0.07-1.06,0.1-1.55,0.21c-0.48,0.11-0.93,0.33-1.26,0.66c-0.32,0.32-0.47,0.78-0.35,1.16 c0.11,0.37,0.51,0.61,0.97,0.71c0.11,0.03,0.23,0.04,0.35,0.05c0.12,0.01,0.25,0.02,0.32,0.01c0.08-0.02,0.03-0.02,0.02,0.02 c-0.01,0.02,0,0.03-0.01,0.02c0-0.01-0.02-0.05-0.05-0.08c-0.05-0.07-0.13-0.13-0.21-0.19L71.65,28c-0.22-0.13-0.45-0.26-0.68-0.38 c-0.91-0.46-1.9-0.8-2.85-0.68c-0.47,0.06-0.91,0.23-1.3,0.52c-0.39,0.28-0.74,0.65-1.01,1.05c-0.28,0.4-0.47,0.85-0.54,1.31 c-0.03,0.23-0.04,0.46,0,0.68c0.03,0.22,0.11,0.42,0.22,0.61c0.23,0.38,0.6,0.69,1.01,0.82c0.2,0.06,0.41,0.08,0.61,0.03 c0.2-0.04,0.39-0.13,0.49-0.25c0.21-0.22,0.14-0.7-0.12-1.04c-0.26-0.35-0.68-0.6-1.13-0.71c-0.91-0.2-1.94,0.16-2.76,0.73 c-0.83,0.57-1.49,1.4-1.89,2.33c-0.2,0.47-0.33,0.96-0.39,1.48c-0.07,0.52-0.1,1.06-0.23,1.6c-0.07,0.27-0.16,0.54-0.31,0.79 c-0.15,0.25-0.35,0.47-0.6,0.62c-0.25,0.16-0.53,0.23-0.81,0.26c-0.28,0.03-0.55,0.02-0.82,0C57.45,37.7,56.4,37.27,55.58,36.58z" fill="#ccabdb"/></g><g id="change3_1"><path d="M40.64,29.58c-0.01,0.1,0.07,0.24,0.08,0.26c0.06,0.11,0.09,0.1,0.15,0.2c0.05,0.08,0.07,0.18,0.11,0.25 c0.01,0.02,0.06,0.06,0.07,0.08c0.01,0.02,0.07,0.16,0.07,0.16c0.04,0.06,0.11,0.13,0.17,0.19c0.08,0.09,0.12,0.19,0.19,0.29 c0.08,0.1,0.19,0.17,0.27,0.29c0.07,0.1,0.07,0.17,0.11,0.25c0.07,0.14,0.21,0.25,0.25,0.4c0.02,0.06-0.01,0.13,0.01,0.2 c0.02,0.07,0.05,0.12,0.07,0.18c0.07,0.25,0.1,0.25,0.28,0.45c0.15,0.17,0.26,0.41,0.43,0.57c0.09,0.08,0.25,0.12,0.33,0.23 c0.05,0.07,0.05,0.15,0.07,0.24c0.08,0.25,0.21,0.55,0.38,0.75c-0.12,0.23,0.26,0.69,0.46,0.86c0.1,0.08,0.14,0.1,0.16,0.14 c0.04,0.06,0.03,0.11,0.06,0.24c0.04,0.14,0.05,0.21,0.1,0.25c0.08,0.07,0.22,0.02,0.3-0.05c0.05-0.05,0.06-0.1,0.13-0.15 c0.03-0.02,0.06-0.03,0.11-0.04c0.14-0.03,0.3,0,0.42-0.11c0.06-0.06,0.08-0.16,0.15-0.2c0.06-0.03,0.19-0.03,0.26-0.04 c0.08-0.01,0.12,0.01,0.19-0.03c0.07-0.04,0.08-0.13,0.14-0.18c0.06-0.05,0.17-0.04,0.23-0.09c0.12-0.09,0.16-0.2,0.21-0.35 c0.07-0.2,0.15-0.14,0.3-0.22c0.09-0.05,0.12-0.13,0.22-0.17c0.11-0.05,0.26-0.04,0.35-0.12c0.07-0.06,0.05-0.14,0.1-0.19 c0.05-0.05,0.22-0.07,0.29-0.12c0.07-0.04,0.14-0.04,0.2-0.11c0.07-0.08,0.09-0.12,0.14-0.19c0.16-0.21,0.36-0.11,0.37-0.24 c0.01-0.07-0.04-0.13-0.28-0.55c-0.01-0.02-0.04-0.06-0.05-0.11c-0.01-0.06,0-0.09-0.02-0.17c-0.06-0.22-0.08-0.23-0.26-0.37 c-0.19-0.16-0.29-0.35-0.4-0.57c-0.03-0.05-0.05-0.11-0.09-0.16c-0.05-0.06-0.18-0.13-0.21-0.19c-0.08-0.15-0.02-0.3-0.11-0.46 c-0.07-0.12-0.18-0.17-0.26-0.27c-0.07-0.09-0.08-0.16-0.13-0.26c-0.04-0.09-0.17-0.29-0.24-0.37c-0.09-0.12-0.11-0.07-0.31-0.24 c-0.14-0.12-0.25-0.21-0.33-0.35c-0.06-0.1-0.08-0.19-0.1-0.25c-0.33-0.37-0.62-0.73-0.76-1.23c-0.12-0.47-0.44-0.29-0.63-0.67 c-0.09,0.05-0.16,0.14-0.24,0.2c-0.12,0.09-0.17,0.04-0.31,0.07c-0.15,0.04-0.15,0.23-0.25,0.32c-0.05,0.05-0.14,0.04-0.19,0.09 c-0.09,0.1-0.03,0.22-0.17,0.26c-0.11,0.03-0.23-0.07-0.33-0.01c-0.09,0.05-0.11,0.16-0.18,0.22c-0.1,0.07-0.22,0.05-0.31,0.11 c-0.15,0.09-0.14,0.37-0.33,0.41c-0.1,0.03-0.16-0.03-0.25,0.04c-0.08,0.06-0.13,0.09-0.22,0.21c-0.12,0.18-0.35,0.24-0.52,0.29 C40.83,29.5,40.66,29.45,40.64,29.58z" fill="#fff78c"/></g><g id="change4_1"><path d="M80.44,66.84c0.09,0.04,0.25,0,0.27-0.01c0.12-0.03,0.12-0.06,0.23-0.09c0.09-0.03,0.19-0.02,0.27-0.04 c0.03-0.01,0.08-0.04,0.09-0.05c0.02,0,0.17-0.03,0.17-0.03c0.06-0.03,0.15-0.08,0.23-0.11c0.11-0.05,0.22-0.07,0.32-0.11 c0.12-0.05,0.21-0.14,0.35-0.19c0.11-0.04,0.18-0.02,0.27-0.04c0.15-0.03,0.29-0.14,0.45-0.14c0.06,0,0.13,0.04,0.19,0.04 c0.07,0,0.13-0.02,0.19-0.02c0.26-0.01,0.26-0.03,0.51-0.15c0.2-0.1,0.46-0.14,0.66-0.27c0.11-0.07,0.18-0.21,0.31-0.26 c0.09-0.03,0.16,0,0.25-0.01c0.26-0.02,0.58-0.06,0.82-0.17c0.19,0.18,0.74-0.07,0.95-0.22c0.11-0.07,0.13-0.11,0.18-0.12 c0.07-0.03,0.11,0,0.25,0c0.14,0,0.22,0,0.27-0.03c0.09-0.06,0.08-0.21,0.03-0.3c-0.04-0.06-0.09-0.08-0.11-0.17 c-0.01-0.03-0.02-0.07-0.01-0.12c0.01-0.15,0.08-0.3,0-0.43c-0.04-0.07-0.13-0.12-0.15-0.2c-0.02-0.06,0.03-0.19,0.03-0.26 c0.01-0.08,0.04-0.11,0.02-0.19c-0.02-0.08-0.11-0.11-0.14-0.18c-0.03-0.07,0-0.17-0.03-0.25c-0.05-0.14-0.15-0.21-0.28-0.3 c-0.18-0.12-0.1-0.18-0.14-0.34c-0.03-0.1-0.09-0.15-0.11-0.26c-0.02-0.12,0.03-0.26-0.02-0.37c-0.04-0.08-0.12-0.08-0.16-0.15 c-0.03-0.06-0.02-0.23-0.04-0.31c-0.02-0.08-0.01-0.15-0.05-0.22c-0.06-0.09-0.09-0.12-0.14-0.19c-0.16-0.21-0.01-0.37-0.14-0.42 c-0.06-0.02-0.13,0.01-0.61,0.13c-0.03,0.01-0.07,0.02-0.12,0.02c-0.06,0-0.09-0.02-0.17-0.02c-0.22,0-0.24,0.02-0.43,0.15 c-0.2,0.15-0.41,0.19-0.65,0.24c-0.06,0.01-0.12,0.02-0.17,0.04c-0.07,0.03-0.17,0.14-0.23,0.15c-0.17,0.04-0.29-0.06-0.47-0.01 c-0.14,0.04-0.21,0.13-0.33,0.18c-0.11,0.05-0.17,0.04-0.28,0.06c-0.1,0.02-0.32,0.09-0.42,0.14c-0.14,0.06-0.1,0.09-0.31,0.24 c-0.15,0.11-0.27,0.18-0.43,0.22c-0.11,0.03-0.21,0.03-0.27,0.03c-0.44,0.23-0.86,0.41-1.39,0.41c-0.48,0-0.39,0.35-0.82,0.44 c0.03,0.1,0.09,0.19,0.13,0.29c0.06,0.14-0.01,0.17-0.01,0.31c-0.01,0.16,0.18,0.21,0.25,0.33c0.04,0.07,0,0.15,0.04,0.21 c0.07,0.11,0.21,0.08,0.2,0.23c0,0.11-0.12,0.2-0.09,0.32c0.03,0.1,0.13,0.15,0.16,0.23c0.04,0.11-0.01,0.22,0.02,0.33 c0.05,0.17,0.32,0.23,0.31,0.43c0,0.1-0.07,0.14-0.03,0.25c0.04,0.1,0.05,0.15,0.15,0.26c0.14,0.16,0.14,0.4,0.15,0.58 C80.41,66.63,80.32,66.79,80.44,66.84z" fill="#86e3ce"/></g><g id="change3_2"><path d="M67.14,64.95c-0.06,0-0.14,0.06-0.15,0.06c-0.06,0.04-0.05,0.06-0.11,0.11c-0.05,0.04-0.11,0.05-0.15,0.09 c-0.01,0.01-0.03,0.04-0.04,0.05c-0.01,0.01-0.09,0.06-0.09,0.06c-0.03,0.03-0.07,0.08-0.11,0.12c-0.05,0.05-0.11,0.09-0.16,0.14 c-0.06,0.06-0.09,0.13-0.16,0.19c-0.05,0.05-0.1,0.05-0.15,0.08c-0.08,0.05-0.14,0.15-0.23,0.18c-0.04,0.02-0.08,0.01-0.12,0.02 c-0.04,0.01-0.07,0.04-0.11,0.06c-0.15,0.06-0.15,0.08-0.26,0.21c-0.1,0.11-0.23,0.19-0.32,0.31c-0.05,0.06-0.06,0.17-0.12,0.22 c-0.04,0.04-0.09,0.04-0.14,0.06c-0.15,0.07-0.32,0.17-0.44,0.29c-0.15-0.06-0.41,0.21-0.5,0.34c-0.04,0.07-0.05,0.09-0.08,0.11 c-0.04,0.03-0.06,0.03-0.14,0.06c-0.08,0.03-0.13,0.05-0.15,0.08c-0.04,0.06,0,0.14,0.05,0.18c0.04,0.03,0.07,0.03,0.11,0.07 c0.01,0.02,0.03,0.04,0.04,0.06c0.03,0.09,0.02,0.19,0.1,0.25c0.04,0.03,0.1,0.04,0.13,0.08c0.02,0.03,0.03,0.12,0.04,0.16 c0.01,0.05,0,0.07,0.03,0.12c0.03,0.04,0.09,0.04,0.12,0.07c0.03,0.03,0.04,0.1,0.07,0.14c0.06,0.07,0.13,0.09,0.23,0.11 c0.13,0.03,0.1,0.08,0.16,0.17c0.04,0.05,0.09,0.07,0.12,0.12c0.04,0.07,0.04,0.16,0.1,0.21c0.04,0.04,0.09,0.02,0.13,0.05 c0.03,0.03,0.06,0.13,0.09,0.17c0.03,0.04,0.04,0.08,0.08,0.11c0.05,0.04,0.08,0.05,0.13,0.08c0.14,0.09,0.09,0.21,0.18,0.21 c0.04,0,0.08-0.03,0.32-0.21c0.01-0.01,0.03-0.03,0.07-0.04c0.03-0.01,0.06-0.01,0.1-0.02c0.13-0.05,0.14-0.07,0.21-0.19 c0.08-0.13,0.2-0.2,0.32-0.29c0.03-0.02,0.06-0.04,0.09-0.07c0.03-0.03,0.07-0.12,0.1-0.14c0.09-0.06,0.18-0.03,0.28-0.1 c0.07-0.05,0.09-0.12,0.15-0.18c0.05-0.05,0.09-0.06,0.15-0.1c0.05-0.03,0.17-0.13,0.21-0.18c0.07-0.07,0.04-0.07,0.13-0.21 c0.06-0.1,0.11-0.17,0.2-0.23c0.06-0.04,0.11-0.06,0.15-0.08c0.21-0.23,0.41-0.44,0.71-0.56c0.28-0.11,0.15-0.29,0.37-0.44 c-0.04-0.05-0.1-0.09-0.14-0.14c-0.07-0.07-0.04-0.1-0.06-0.19c-0.03-0.09-0.15-0.08-0.22-0.13c-0.04-0.03-0.03-0.09-0.07-0.11 c-0.07-0.05-0.14,0-0.17-0.09c-0.02-0.07,0.02-0.15-0.02-0.21c-0.04-0.05-0.11-0.06-0.15-0.1c-0.05-0.05-0.05-0.13-0.09-0.19 c-0.07-0.09-0.24-0.06-0.28-0.18c-0.02-0.06,0.01-0.1-0.04-0.15c-0.05-0.05-0.06-0.08-0.15-0.12c-0.12-0.06-0.18-0.2-0.22-0.3 C67.21,65.07,67.23,64.95,67.14,64.95z" fill="#fff78c"/></g><g id="change2_2"><path d="M50.21,85.15c-0.06,0-0.14,0.06-0.15,0.06c-0.06,0.04-0.05,0.06-0.11,0.11c-0.05,0.04-0.11,0.05-0.15,0.09 c-0.01,0.01-0.03,0.04-0.04,0.05c-0.01,0.01-0.09,0.06-0.09,0.06c-0.03,0.03-0.07,0.08-0.11,0.12c-0.05,0.05-0.11,0.09-0.16,0.14 c-0.06,0.06-0.09,0.13-0.16,0.19c-0.05,0.05-0.1,0.05-0.15,0.08c-0.08,0.05-0.14,0.15-0.23,0.18c-0.04,0.02-0.08,0.01-0.12,0.02 c-0.04,0.01-0.07,0.04-0.11,0.06c-0.15,0.06-0.15,0.08-0.26,0.21c-0.1,0.11-0.23,0.19-0.32,0.31c-0.05,0.06-0.06,0.17-0.12,0.22 c-0.04,0.04-0.09,0.04-0.14,0.06c-0.15,0.07-0.32,0.17-0.44,0.29c-0.15-0.06-0.41,0.21-0.5,0.34c-0.04,0.07-0.05,0.09-0.08,0.11 c-0.04,0.03-0.06,0.03-0.14,0.06c-0.08,0.03-0.13,0.05-0.15,0.08c-0.04,0.06,0,0.14,0.05,0.18c0.04,0.03,0.07,0.03,0.11,0.07 c0.01,0.02,0.03,0.04,0.04,0.06c0.03,0.09,0.02,0.19,0.1,0.25c0.04,0.03,0.1,0.04,0.13,0.08c0.02,0.03,0.03,0.12,0.04,0.16 c0.01,0.05,0,0.07,0.03,0.12c0.03,0.04,0.09,0.04,0.12,0.07c0.03,0.03,0.04,0.1,0.07,0.14c0.06,0.07,0.13,0.09,0.23,0.11 c0.13,0.03,0.1,0.08,0.16,0.17c0.04,0.05,0.09,0.07,0.12,0.12c0.04,0.07,0.04,0.16,0.1,0.21c0.04,0.04,0.09,0.02,0.13,0.05 c0.03,0.03,0.06,0.13,0.09,0.17c0.03,0.04,0.04,0.08,0.08,0.11c0.05,0.04,0.08,0.05,0.13,0.08c0.14,0.09,0.09,0.21,0.18,0.21 c0.04,0,0.08-0.03,0.32-0.21c0.01-0.01,0.03-0.03,0.07-0.04c0.03-0.01,0.06-0.01,0.1-0.02C49,90.03,49,90.02,49.08,89.9 c0.08-0.13,0.2-0.2,0.32-0.29c0.03-0.02,0.06-0.04,0.09-0.07c0.03-0.03,0.07-0.12,0.1-0.14c0.09-0.06,0.18-0.03,0.28-0.1 c0.07-0.05,0.09-0.12,0.15-0.18c0.05-0.05,0.09-0.06,0.15-0.1c0.05-0.03,0.17-0.13,0.21-0.18c0.07-0.07,0.04-0.07,0.13-0.21 c0.06-0.1,0.11-0.17,0.2-0.23c0.06-0.04,0.11-0.06,0.15-0.08c0.21-0.23,0.41-0.44,0.71-0.56c0.28-0.11,0.15-0.29,0.37-0.44 c-0.04-0.05-0.1-0.09-0.14-0.14c-0.07-0.07-0.04-0.1-0.06-0.19c-0.03-0.09-0.15-0.08-0.22-0.13c-0.04-0.03-0.03-0.09-0.07-0.11 c-0.07-0.05-0.14,0-0.17-0.09c-0.02-0.07,0.02-0.15-0.02-0.21c-0.04-0.05-0.11-0.06-0.15-0.1c-0.05-0.05-0.05-0.13-0.09-0.19 c-0.07-0.09-0.24-0.06-0.28-0.18c-0.02-0.06,0.01-0.1-0.04-0.15c-0.05-0.05-0.06-0.08-0.15-0.12c-0.12-0.06-0.18-0.2-0.22-0.3 C50.27,85.26,50.29,85.15,50.21,85.15z" fill="#ccabdb"/></g><g id="change2_3"><path d="M76.06,76.21c0.04-0.04,0.05-0.15,0.05-0.16c0.01-0.08-0.01-0.08,0-0.16c0-0.06,0.03-0.11,0.03-0.17 c0-0.02-0.01-0.05-0.01-0.06c0-0.01,0.02-0.11,0.02-0.11c0-0.04-0.01-0.11-0.02-0.16c-0.01-0.07,0.01-0.14,0.01-0.21 c0-0.08-0.03-0.15-0.03-0.24c0-0.07,0.03-0.11,0.04-0.16c0.02-0.1-0.02-0.2,0.02-0.29c0.01-0.04,0.05-0.07,0.07-0.1 c0.02-0.04,0.01-0.08,0.03-0.12c0.05-0.16,0.04-0.16,0.02-0.33c-0.01-0.14,0.02-0.3-0.01-0.44c-0.02-0.08-0.08-0.15-0.08-0.24 c0-0.06,0.03-0.09,0.05-0.15c0.05-0.16,0.09-0.35,0.08-0.52c0.15-0.07,0.12-0.45,0.08-0.6c-0.02-0.08-0.03-0.1-0.03-0.13 c0-0.05,0.02-0.06,0.05-0.15c0.03-0.08,0.05-0.13,0.04-0.17c-0.02-0.07-0.11-0.09-0.17-0.08c-0.04,0.01-0.07,0.03-0.12,0.03 c-0.02,0-0.04-0.01-0.07-0.02c-0.09-0.04-0.16-0.11-0.25-0.1c-0.05,0.01-0.1,0.05-0.15,0.04c-0.04,0-0.11-0.06-0.15-0.08 c-0.05-0.02-0.05-0.05-0.11-0.05c-0.05,0-0.09,0.04-0.14,0.04c-0.05,0-0.1-0.04-0.15-0.04c-0.1,0-0.15,0.04-0.24,0.1 c-0.11,0.08-0.13,0.02-0.23,0c-0.06-0.01-0.11,0.02-0.17,0.01c-0.07-0.02-0.15-0.08-0.22-0.07c-0.05,0-0.08,0.05-0.12,0.06 c-0.04,0.01-0.14-0.04-0.19-0.05c-0.05,0-0.09-0.03-0.14-0.02c-0.07,0.01-0.09,0.03-0.14,0.04c-0.16,0.05-0.22-0.07-0.27-0.01 c-0.03,0.03-0.03,0.08-0.06,0.38c0,0.02,0,0.04-0.02,0.07c-0.01,0.03-0.03,0.05-0.05,0.09c-0.05,0.13-0.04,0.15,0,0.28 c0.04,0.15,0.02,0.28,0,0.44c0,0.04-0.01,0.07-0.01,0.11c0,0.05,0.04,0.13,0.04,0.17c-0.01,0.11-0.1,0.16-0.11,0.27 c-0.01,0.09,0.03,0.15,0.03,0.23c0,0.07-0.01,0.11-0.03,0.18c-0.01,0.06-0.02,0.21-0.01,0.28c0.01,0.09,0.03,0.08,0.07,0.23 c0.03,0.11,0.05,0.2,0.04,0.3c-0.01,0.07-0.03,0.13-0.04,0.16c0.04,0.31,0.05,0.6-0.06,0.9c-0.11,0.28,0.12,0.3,0.08,0.57 c0.07,0.01,0.13-0.01,0.2-0.01c0.09,0,0.1,0.04,0.18,0.08c0.09,0.04,0.16-0.06,0.25-0.07c0.05-0.01,0.09,0.03,0.13,0.02 c0.08-0.02,0.09-0.1,0.18-0.07c0.06,0.03,0.09,0.12,0.17,0.12c0.06,0.01,0.11-0.04,0.17-0.04c0.07,0,0.13,0.06,0.2,0.06 c0.11,0.01,0.21-0.13,0.32-0.09c0.06,0.02,0.07,0.07,0.14,0.07c0.07,0,0.1,0,0.19-0.03c0.12-0.05,0.27,0,0.37,0.04 C75.93,76.18,76,76.27,76.06,76.21z" fill="#ccabdb"/></g><g id="change5_1"><path d="M62.25,76.84c-0.03,0.05-0.01,0.15-0.01,0.17c0.01,0.08,0.03,0.08,0.05,0.15c0.01,0.06,0,0.12,0.01,0.17 c0,0.02,0.02,0.05,0.03,0.06c0,0.01,0.01,0.11,0.01,0.11c0.01,0.04,0.04,0.1,0.06,0.15c0.03,0.07,0.03,0.14,0.05,0.21 c0.02,0.08,0.08,0.14,0.1,0.23c0.02,0.07,0,0.12,0.01,0.17c0.01,0.1,0.07,0.19,0.06,0.29c0,0.04-0.03,0.08-0.04,0.12 c-0.01,0.05,0.01,0.08,0.01,0.12c-0.01,0.16,0.01,0.17,0.07,0.32c0.05,0.13,0.07,0.29,0.13,0.42c0.04,0.07,0.12,0.12,0.15,0.2 c0.02,0.05,0,0.1-0.01,0.16c0,0.16,0.01,0.36,0.07,0.52c-0.12,0.11,0.01,0.46,0.09,0.6c0.04,0.07,0.06,0.09,0.07,0.12 c0.01,0.05-0.01,0.07-0.01,0.15c-0.01,0.09-0.01,0.14,0.01,0.17c0.03,0.06,0.13,0.06,0.19,0.03c0.04-0.02,0.06-0.05,0.11-0.06 c0.02-0.01,0.04-0.01,0.07,0c0.09,0.01,0.18,0.06,0.27,0.02c0.05-0.02,0.08-0.07,0.13-0.08c0.04-0.01,0.12,0.02,0.16,0.03 c0.05,0.01,0.07,0.03,0.12,0.02c0.05-0.01,0.07-0.06,0.12-0.08c0.04-0.02,0.11,0.01,0.16,0c0.09-0.03,0.14-0.08,0.2-0.16 c0.08-0.1,0.12-0.05,0.22-0.07c0.06-0.01,0.1-0.05,0.17-0.05c0.08-0.01,0.16,0.03,0.23,0.01c0.05-0.02,0.06-0.07,0.1-0.09 c0.04-0.02,0.14,0,0.2-0.01c0.05-0.01,0.09,0,0.14-0.02c0.06-0.03,0.08-0.05,0.12-0.08c0.14-0.09,0.23,0.01,0.27-0.07 c0.02-0.04,0-0.08-0.05-0.38c0-0.02-0.01-0.04-0.01-0.08c0-0.04,0.02-0.05,0.02-0.1c0.01-0.14,0-0.15-0.07-0.27 c-0.08-0.13-0.1-0.27-0.12-0.42c-0.01-0.04-0.01-0.07-0.02-0.11c-0.01-0.04-0.08-0.11-0.08-0.15c-0.02-0.11,0.05-0.18,0.03-0.29 c-0.02-0.09-0.07-0.14-0.1-0.22c-0.02-0.07-0.02-0.11-0.02-0.18c-0.01-0.06-0.04-0.21-0.07-0.27c-0.03-0.09-0.05-0.07-0.13-0.21 c-0.06-0.1-0.1-0.17-0.12-0.28c-0.01-0.07-0.01-0.13,0-0.17c-0.12-0.29-0.22-0.56-0.19-0.88c0.03-0.3-0.2-0.26-0.23-0.53 c-0.06,0.01-0.12,0.05-0.18,0.07c-0.09,0.03-0.11-0.01-0.2-0.02c-0.1-0.01-0.14,0.1-0.22,0.14c-0.04,0.02-0.09-0.01-0.13,0.01 c-0.07,0.04-0.06,0.12-0.15,0.12c-0.07-0.01-0.12-0.09-0.19-0.07c-0.06,0.01-0.1,0.07-0.15,0.09c-0.07,0.02-0.14-0.02-0.21,0 c-0.11,0.02-0.16,0.19-0.28,0.17c-0.06-0.01-0.09-0.05-0.16-0.03c-0.06,0.02-0.1,0.02-0.17,0.08c-0.11,0.08-0.26,0.07-0.37,0.06 C62.38,76.84,62.29,76.77,62.25,76.84z" fill="#d0e6a5"/></g><g id="change2_4"><path d="M59.06,56.5c0.03,0.01,0.08-0.01,0.08-0.01c0.04-0.01,0.03-0.02,0.07-0.04c0.03-0.01,0.06-0.01,0.08-0.02 c0.01,0,0.02-0.02,0.03-0.02c0.01,0,0.05-0.02,0.05-0.02c0.02-0.01,0.04-0.03,0.07-0.05c0.03-0.02,0.07-0.03,0.1-0.05 c0.03-0.02,0.06-0.05,0.1-0.07c0.03-0.02,0.06-0.01,0.08-0.02c0.05-0.02,0.09-0.06,0.13-0.06c0.02,0,0.04,0.01,0.06,0.01 c0.02,0,0.04-0.01,0.06-0.02c0.08-0.01,0.08-0.02,0.15-0.07c0.06-0.04,0.14-0.06,0.19-0.11c0.03-0.03,0.05-0.07,0.09-0.09 c0.03-0.01,0.05-0.01,0.08-0.01c0.08-0.02,0.18-0.04,0.25-0.09c0.07,0.05,0.23-0.05,0.29-0.11c0.03-0.03,0.04-0.04,0.05-0.05 c0.02-0.01,0.03,0,0.08-0.01c0.05-0.01,0.07-0.01,0.08-0.02c0.03-0.02,0.02-0.07,0-0.1c-0.01-0.02-0.03-0.02-0.04-0.05 c0-0.01-0.01-0.02-0.01-0.04c0-0.05,0.01-0.1-0.02-0.14c-0.02-0.02-0.05-0.03-0.06-0.06c-0.01-0.02,0-0.06,0-0.08 c0-0.03,0.01-0.04,0-0.06c-0.01-0.02-0.04-0.03-0.05-0.05c-0.01-0.02-0.01-0.05-0.02-0.08c-0.02-0.04-0.06-0.06-0.1-0.08 c-0.06-0.03-0.04-0.05-0.06-0.1c-0.01-0.03-0.03-0.04-0.04-0.08c-0.01-0.04,0-0.08-0.02-0.12c-0.01-0.02-0.04-0.02-0.06-0.04 c-0.01-0.02-0.01-0.07-0.02-0.1c-0.01-0.02-0.01-0.05-0.03-0.07c-0.02-0.03-0.03-0.03-0.05-0.05c-0.06-0.06-0.02-0.12-0.06-0.12 c-0.02,0-0.04,0.01-0.19,0.07c-0.01,0-0.02,0.01-0.04,0.01c-0.02,0-0.03,0-0.05,0c-0.07,0.01-0.08,0.02-0.13,0.07 c-0.06,0.05-0.12,0.08-0.19,0.1c-0.02,0.01-0.04,0.01-0.05,0.02c-0.02,0.01-0.05,0.05-0.07,0.06c-0.05,0.02-0.09-0.01-0.15,0.02 c-0.04,0.02-0.06,0.05-0.1,0.07c-0.03,0.02-0.05,0.02-0.09,0.03c-0.03,0.01-0.1,0.04-0.13,0.06c-0.04,0.02-0.03,0.03-0.09,0.09 c-0.04,0.04-0.08,0.07-0.12,0.09c-0.03,0.01-0.06,0.02-0.08,0.02c-0.13,0.09-0.25,0.17-0.42,0.19c-0.15,0.02-0.11,0.13-0.24,0.17 c0.01,0.03,0.04,0.06,0.05,0.08c0.02,0.04,0,0.06,0.01,0.1c0,0.05,0.07,0.06,0.09,0.09c0.01,0.02,0.01,0.05,0.02,0.06 c0.03,0.03,0.07,0.02,0.07,0.06c0,0.04-0.03,0.07-0.02,0.1c0.01,0.03,0.05,0.04,0.06,0.07c0.02,0.03,0.01,0.07,0.02,0.1 c0.02,0.05,0.11,0.06,0.12,0.12c0,0.03-0.02,0.05,0,0.08c0.02,0.03,0.02,0.04,0.06,0.08c0.05,0.04,0.06,0.12,0.07,0.18 C59.05,56.44,59.02,56.49,59.06,56.5z" fill="#ccabdb"/></g><g id="change1_2"><path d="M45.63,43.86c0.02,0.02,0.07,0.04,0.07,0.04c0.04,0.01,0.04,0,0.08,0.01c0.03,0.01,0.05,0.03,0.08,0.03 c0.01,0,0.03,0,0.03,0c0.01,0,0.05,0.02,0.05,0.02c0.02,0,0.05,0,0.08,0.01c0.04,0,0.07,0.02,0.11,0.02c0.04,0.01,0.08,0,0.12,0.01 c0.04,0.01,0.05,0.02,0.08,0.03c0.05,0.02,0.1,0.01,0.14,0.04c0.02,0.01,0.03,0.03,0.05,0.04c0.02,0.01,0.04,0.01,0.06,0.02 c0.07,0.04,0.08,0.03,0.16,0.04c0.07,0.01,0.15,0.04,0.22,0.03c0.04,0,0.08-0.03,0.13-0.02c0.03,0.01,0.04,0.02,0.07,0.04 c0.07,0.04,0.17,0.08,0.25,0.09c0.02,0.08,0.21,0.1,0.29,0.09c0.04,0,0.05-0.01,0.07,0c0.02,0,0.03,0.02,0.07,0.04 c0.04,0.02,0.06,0.04,0.08,0.03c0.03,0,0.06-0.04,0.06-0.08c0-0.02-0.01-0.04,0-0.06c0-0.01,0.01-0.02,0.01-0.03 c0.03-0.04,0.07-0.07,0.07-0.12c0-0.03-0.02-0.05-0.01-0.08c0.01-0.02,0.04-0.05,0.05-0.07c0.02-0.02,0.03-0.02,0.04-0.05 c0.01-0.03-0.01-0.05-0.01-0.07c0-0.02,0.03-0.05,0.03-0.07c0.01-0.05-0.01-0.08-0.03-0.13c-0.03-0.06,0-0.07,0.02-0.12 c0.01-0.03,0-0.06,0.01-0.09c0.01-0.04,0.05-0.07,0.05-0.1c0-0.03-0.02-0.04-0.02-0.07c0-0.02,0.03-0.06,0.04-0.09 c0.01-0.02,0.02-0.04,0.02-0.07c0-0.03-0.01-0.05-0.01-0.07c-0.01-0.08,0.06-0.1,0.03-0.14c-0.01-0.02-0.04-0.02-0.19-0.06 c-0.01,0-0.02-0.01-0.04-0.01c-0.02-0.01-0.02-0.02-0.04-0.03c-0.06-0.04-0.07-0.03-0.14-0.03c-0.08,0.01-0.14-0.02-0.22-0.04 c-0.02-0.01-0.03-0.01-0.05-0.02c-0.02,0-0.07,0.01-0.09,0c-0.05-0.02-0.07-0.06-0.13-0.08c-0.04-0.01-0.08,0-0.12-0.01 c-0.04-0.01-0.05-0.02-0.09-0.03c-0.03-0.01-0.1-0.03-0.14-0.03c-0.05-0.01-0.04,0.01-0.12,0.01c-0.06,0-0.1,0.01-0.15-0.01 c-0.03-0.01-0.06-0.03-0.08-0.04c-0.16-0.01-0.3-0.03-0.44-0.11c-0.13-0.08-0.16,0.03-0.29-0.01c-0.01,0.03-0.01,0.07-0.01,0.1 c-0.01,0.05-0.03,0.05-0.05,0.08c-0.03,0.04,0.02,0.09,0.01,0.13c0,0.02-0.02,0.04-0.02,0.06c0,0.04,0.04,0.06,0.02,0.1 c-0.02,0.03-0.07,0.04-0.08,0.07c-0.01,0.03,0.01,0.06,0.01,0.09c-0.01,0.04-0.04,0.06-0.05,0.09c-0.01,0.05,0.05,0.11,0.02,0.17 c-0.02,0.03-0.04,0.03-0.05,0.06c0,0.03-0.01,0.05,0,0.1c0.01,0.07-0.03,0.13-0.05,0.18C45.65,43.8,45.6,43.82,45.63,43.86z" fill="#ff8c9d"/></g><g id="change2_5"><path d="M32.97,6.72c-0.03,0-0.07,0.03-0.08,0.04c-0.03,0.02-0.03,0.03-0.05,0.06c-0.02,0.02-0.05,0.03-0.07,0.05 c-0.01,0.01-0.02,0.02-0.02,0.03c0,0-0.05,0.03-0.05,0.03c-0.02,0.02-0.03,0.04-0.05,0.06c-0.02,0.03-0.05,0.05-0.08,0.07 c-0.03,0.03-0.04,0.07-0.08,0.1c-0.03,0.03-0.05,0.03-0.07,0.05c-0.04,0.03-0.07,0.08-0.11,0.1c-0.02,0.01-0.04,0.01-0.06,0.01 c-0.02,0.01-0.03,0.02-0.05,0.03c-0.08,0.04-0.07,0.04-0.13,0.11c-0.05,0.06-0.11,0.1-0.16,0.16c-0.02,0.03-0.03,0.09-0.06,0.11 c-0.02,0.02-0.05,0.02-0.07,0.04c-0.07,0.04-0.16,0.09-0.22,0.15c-0.08-0.03-0.2,0.12-0.25,0.19c-0.02,0.03-0.02,0.05-0.04,0.06 c-0.02,0.02-0.03,0.01-0.07,0.03c-0.04,0.02-0.06,0.03-0.07,0.05c-0.02,0.03,0,0.07,0.03,0.09c0.02,0.01,0.04,0.01,0.05,0.03 c0.01,0.01,0.01,0.02,0.02,0.03c0.02,0.04,0.02,0.1,0.06,0.13c0.02,0.02,0.05,0.02,0.07,0.04c0.01,0.02,0.02,0.06,0.02,0.08 c0.01,0.03,0,0.04,0.02,0.06c0.02,0.02,0.05,0.02,0.06,0.03c0.02,0.02,0.02,0.05,0.04,0.07c0.03,0.03,0.07,0.04,0.12,0.05 c0.07,0.01,0.05,0.04,0.08,0.08c0.02,0.03,0.05,0.03,0.06,0.06c0.02,0.03,0.02,0.08,0.05,0.1c0.02,0.02,0.05,0.01,0.06,0.02 c0.02,0.01,0.03,0.06,0.05,0.08c0.02,0.02,0.02,0.04,0.04,0.06c0.03,0.02,0.04,0.02,0.07,0.04c0.07,0.04,0.05,0.11,0.09,0.1 c0.02,0,0.04-0.02,0.16-0.11c0.01-0.01,0.02-0.01,0.03-0.02c0.02-0.01,0.03,0,0.05-0.01c0.06-0.03,0.07-0.04,0.1-0.1 c0.04-0.07,0.1-0.11,0.16-0.15c0.02-0.01,0.03-0.02,0.04-0.04c0.02-0.02,0.03-0.06,0.05-0.07c0.04-0.03,0.09-0.02,0.14-0.06 c0.04-0.03,0.05-0.06,0.07-0.09c0.03-0.03,0.04-0.03,0.07-0.05c0.03-0.02,0.08-0.07,0.1-0.09c0.03-0.04,0.02-0.04,0.06-0.11 c0.03-0.05,0.05-0.09,0.09-0.12c0.03-0.02,0.06-0.04,0.07-0.04c0.1-0.12,0.2-0.23,0.35-0.3c0.14-0.06,0.07-0.15,0.18-0.23 c-0.02-0.03-0.05-0.04-0.07-0.07c-0.03-0.03-0.02-0.05-0.04-0.09c-0.02-0.05-0.08-0.04-0.11-0.06c-0.02-0.01-0.02-0.04-0.04-0.06 c-0.03-0.02-0.07,0-0.09-0.04c-0.01-0.03,0.01-0.07-0.01-0.1c-0.02-0.02-0.06-0.03-0.08-0.05c-0.03-0.03-0.03-0.07-0.05-0.09 c-0.04-0.04-0.12-0.03-0.15-0.08c-0.01-0.03,0-0.05-0.02-0.08C33.22,7.04,33.21,7.02,33.16,7c-0.06-0.03-0.09-0.1-0.12-0.15 C33.01,6.77,33.02,6.72,32.97,6.72z" fill="#ccabdb"/></g><g id="change3_3"><path d="M49.82,74.63c0.02,0.02,0.07,0.04,0.07,0.04c0.04,0.01,0.04,0,0.08,0.01c0.03,0.01,0.05,0.03,0.08,0.03 c0.01,0,0.03,0,0.03,0c0.01,0,0.05,0.02,0.05,0.02c0.02,0,0.05,0,0.08,0.01c0.04,0,0.07,0.02,0.11,0.02c0.04,0.01,0.08,0,0.12,0.01 c0.04,0.01,0.05,0.02,0.08,0.03c0.05,0.02,0.1,0.01,0.14,0.04c0.02,0.01,0.03,0.03,0.05,0.04c0.02,0.01,0.04,0.01,0.06,0.02 c0.07,0.04,0.08,0.03,0.16,0.04c0.07,0.01,0.15,0.04,0.22,0.03c0.04,0,0.08-0.03,0.13-0.02c0.03,0.01,0.04,0.02,0.07,0.04 c0.07,0.04,0.17,0.08,0.25,0.09c0.02,0.08,0.21,0.1,0.29,0.09c0.04,0,0.05-0.01,0.07,0c0.02,0,0.03,0.02,0.07,0.04 c0.04,0.02,0.06,0.04,0.08,0.03c0.03,0,0.06-0.04,0.06-0.08c0-0.02-0.01-0.04,0-0.06c0-0.01,0.01-0.02,0.01-0.03 c0.03-0.04,0.07-0.07,0.07-0.12c0-0.03-0.02-0.05-0.01-0.08c0.01-0.02,0.04-0.05,0.05-0.07c0.02-0.02,0.03-0.02,0.04-0.05 c0.01-0.03-0.01-0.05-0.01-0.07c0-0.02,0.03-0.05,0.03-0.07c0.01-0.05-0.01-0.08-0.03-0.13c-0.03-0.06,0-0.07,0.02-0.12 c0.01-0.03,0-0.06,0.01-0.09c0.01-0.04,0.05-0.07,0.05-0.1c0-0.03-0.02-0.04-0.02-0.07c0-0.02,0.03-0.06,0.04-0.09 c0.01-0.02,0.02-0.04,0.02-0.07c0-0.03-0.01-0.05-0.01-0.07c-0.01-0.08,0.06-0.1,0.03-0.14c-0.01-0.02-0.04-0.02-0.19-0.06 c-0.01,0-0.02-0.01-0.04-0.01c-0.02-0.01-0.02-0.02-0.04-0.03c-0.06-0.04-0.07-0.03-0.14-0.03c-0.08,0.01-0.14-0.02-0.22-0.04 c-0.02-0.01-0.03-0.01-0.05-0.02c-0.02,0-0.07,0.01-0.09,0c-0.05-0.02-0.07-0.06-0.13-0.08c-0.04-0.01-0.08,0-0.12-0.01 c-0.04-0.01-0.05-0.02-0.09-0.03c-0.03-0.01-0.1-0.03-0.14-0.03c-0.05-0.01-0.04,0.01-0.12,0.01c-0.06,0-0.1,0.01-0.15-0.01 c-0.03-0.01-0.06-0.03-0.08-0.04c-0.16-0.01-0.3-0.03-0.44-0.11c-0.13-0.08-0.16,0.03-0.29-0.01c-0.01,0.03-0.01,0.07-0.01,0.1 c-0.01,0.05-0.03,0.05-0.05,0.08c-0.03,0.04,0.02,0.09,0.01,0.13c0,0.02-0.02,0.04-0.02,0.06c0,0.04,0.04,0.06,0.02,0.1 c-0.02,0.03-0.07,0.04-0.08,0.07c-0.01,0.03,0.01,0.06,0.01,0.09c-0.01,0.04-0.04,0.06-0.05,0.09c-0.01,0.05,0.05,0.11,0.02,0.17 c-0.02,0.03-0.04,0.03-0.05,0.06c0,0.03-0.01,0.05,0,0.1c0.01,0.07-0.03,0.13-0.05,0.18C49.85,74.57,49.8,74.59,49.82,74.63z" fill="#fff78c"/></g><g id="change1_3"><path d="M82.73,35.82c0.02,0.02,0.07,0.04,0.07,0.04c0.04,0.01,0.04,0,0.08,0.01c0.03,0.01,0.05,0.03,0.08,0.03 c0.01,0,0.03,0,0.03,0c0.01,0,0.05,0.02,0.05,0.02c0.02,0,0.05,0,0.08,0.01c0.04,0,0.07,0.02,0.11,0.02c0.04,0.01,0.08,0,0.12,0.01 c0.04,0.01,0.05,0.02,0.08,0.03c0.05,0.02,0.1,0.01,0.14,0.04c0.02,0.01,0.03,0.03,0.05,0.04c0.02,0.01,0.04,0.01,0.06,0.02 c0.07,0.04,0.08,0.03,0.16,0.04c0.07,0.01,0.15,0.04,0.22,0.03c0.04,0,0.08-0.03,0.13-0.02c0.03,0.01,0.04,0.02,0.07,0.04 c0.07,0.04,0.17,0.08,0.25,0.09c0.02,0.08,0.21,0.1,0.29,0.09c0.04,0,0.05-0.01,0.07,0c0.02,0,0.03,0.02,0.07,0.04 c0.04,0.02,0.06,0.04,0.08,0.03c0.03,0,0.06-0.04,0.06-0.08c0-0.02-0.01-0.04,0-0.06c0-0.01,0.01-0.02,0.01-0.03 c0.03-0.04,0.07-0.07,0.07-0.12c0-0.03-0.02-0.05-0.01-0.08c0.01-0.02,0.04-0.05,0.05-0.07c0.02-0.02,0.03-0.02,0.04-0.05 c0.01-0.03-0.01-0.05-0.01-0.07c0-0.02,0.03-0.05,0.03-0.07c0.01-0.05-0.01-0.08-0.03-0.13c-0.03-0.06,0-0.07,0.02-0.12 c0.01-0.03,0-0.06,0.01-0.09c0.01-0.04,0.05-0.07,0.05-0.1c0-0.03-0.02-0.04-0.02-0.07c0-0.02,0.03-0.06,0.04-0.09 c0.01-0.02,0.02-0.04,0.02-0.07c0-0.03-0.01-0.05-0.01-0.07c-0.01-0.08,0.06-0.1,0.03-0.14c-0.01-0.02-0.04-0.02-0.19-0.06 c-0.01,0-0.02-0.01-0.04-0.01c-0.02-0.01-0.02-0.02-0.04-0.03c-0.06-0.04-0.07-0.03-0.14-0.03c-0.08,0.01-0.14-0.02-0.22-0.04 c-0.02-0.01-0.03-0.01-0.05-0.02c-0.02,0-0.07,0.01-0.09,0c-0.05-0.02-0.07-0.06-0.13-0.08c-0.04-0.01-0.08,0-0.12-0.01 c-0.04-0.01-0.05-0.02-0.09-0.03c-0.03-0.01-0.1-0.03-0.14-0.03c-0.05-0.01-0.04,0.01-0.12,0.01c-0.06,0-0.1,0.01-0.15-0.01 c-0.03-0.01-0.06-0.03-0.08-0.04c-0.16-0.01-0.3-0.03-0.44-0.11c-0.13-0.08-0.16,0.03-0.29-0.01c-0.01,0.03-0.01,0.07-0.01,0.1 c-0.01,0.05-0.03,0.05-0.05,0.08c-0.03,0.04,0.02,0.09,0.01,0.13c0,0.02-0.02,0.04-0.02,0.06c0,0.04,0.04,0.06,0.02,0.1 c-0.02,0.03-0.07,0.04-0.08,0.07c-0.01,0.03,0.01,0.06,0.01,0.09c-0.01,0.04-0.04,0.06-0.05,0.09c-0.01,0.05,0.05,0.11,0.02,0.17 c-0.02,0.03-0.04,0.03-0.05,0.06c0,0.03-0.01,0.05,0,0.1c0.01,0.07-0.03,0.13-0.05,0.18C82.75,35.76,82.7,35.79,82.73,35.82z" fill="#ff8c9d"/></g><g id="change3_4"><path d="M66.31,41.88c-0.02,0.02-0.03,0.07-0.04,0.08c-0.01,0.04,0,0.04-0.01,0.08c-0.01,0.03-0.02,0.06-0.03,0.08 c0,0.01,0,0.03,0,0.03c0,0.01-0.02,0.05-0.02,0.05c0,0.02,0,0.05,0,0.08c0,0.04-0.01,0.07-0.02,0.11c0,0.04,0.01,0.08,0,0.12 c0,0.04-0.02,0.06-0.03,0.08c-0.01,0.05,0,0.1-0.02,0.15c-0.01,0.02-0.03,0.03-0.04,0.05c-0.01,0.02-0.01,0.04-0.02,0.06 c-0.04,0.08-0.03,0.08-0.03,0.17c0,0.07-0.03,0.15-0.02,0.22c0,0.04,0.03,0.08,0.03,0.12c0,0.03-0.02,0.05-0.03,0.07 c-0.03,0.08-0.07,0.17-0.07,0.26c-0.08,0.03-0.08,0.22-0.07,0.3c0.01,0.04,0.01,0.05,0.01,0.07c0,0.02-0.02,0.03-0.04,0.07 c-0.02,0.04-0.03,0.06-0.03,0.08c0,0.03,0.05,0.05,0.08,0.05c0.02,0,0.04-0.01,0.06-0.01c0.01,0,0.02,0.01,0.03,0.01 c0.04,0.02,0.07,0.06,0.12,0.06c0.03,0,0.05-0.02,0.08-0.01c0.02,0,0.05,0.03,0.07,0.05c0.02,0.01,0.02,0.03,0.05,0.03 c0.03,0,0.05-0.02,0.07-0.01c0.02,0,0.05,0.02,0.07,0.03c0.05,0,0.08-0.01,0.12-0.04c0.06-0.03,0.07,0,0.12,0.01 c0.03,0.01,0.06,0,0.09,0.01c0.04,0.01,0.07,0.05,0.11,0.05c0.03,0,0.04-0.02,0.06-0.02c0.02,0,0.07,0.03,0.09,0.03 c0.02,0.01,0.04,0.02,0.07,0.02c0.03,0,0.05-0.01,0.07-0.01c0.08-0.01,0.11,0.05,0.14,0.02c0.01-0.01,0.02-0.04,0.05-0.19 c0-0.01,0-0.02,0.01-0.04c0.01-0.02,0.02-0.02,0.03-0.04c0.03-0.06,0.03-0.07,0.02-0.14c-0.01-0.08,0.01-0.14,0.02-0.22 c0-0.02,0.01-0.04,0.01-0.06c0-0.02-0.02-0.07-0.01-0.09c0.01-0.05,0.06-0.07,0.07-0.13c0.01-0.04-0.01-0.08,0-0.12 c0-0.04,0.01-0.05,0.02-0.09c0.01-0.03,0.02-0.1,0.02-0.14c0-0.05-0.01-0.04-0.02-0.12c-0.01-0.06-0.01-0.1,0-0.15 c0.01-0.04,0.02-0.06,0.03-0.08c0-0.16,0.01-0.3,0.08-0.45c0.07-0.14-0.04-0.16-0.01-0.29c-0.03-0.01-0.07,0-0.1,0 c-0.05,0-0.05-0.03-0.09-0.05c-0.04-0.02-0.08,0.02-0.13,0.02c-0.02,0-0.04-0.02-0.06-0.02c-0.04,0-0.05,0.05-0.09,0.02 c-0.03-0.02-0.04-0.06-0.08-0.07c-0.03-0.01-0.06,0.02-0.09,0.01c-0.04,0-0.06-0.03-0.1-0.04c-0.06-0.01-0.11,0.06-0.16,0.03 c-0.03-0.02-0.03-0.04-0.07-0.04c-0.03,0-0.05-0.01-0.1,0c-0.07,0.02-0.13-0.02-0.18-0.04C66.37,41.91,66.34,41.86,66.31,41.88z" fill="#fff78c"/></g><g id="change3_5"><path d="M27.34,82.32c-0.02,0.02-0.03,0.07-0.03,0.08c0,0.04,0.01,0.04,0,0.08c0,0.03-0.01,0.06-0.02,0.09 c0,0.01,0.01,0.03,0,0.03c0,0.01-0.01,0.05-0.01,0.06c0,0.02,0.01,0.05,0.01,0.08c0,0.04,0,0.07,0,0.11c0,0.04,0.02,0.08,0.02,0.12 c0,0.04-0.01,0.06-0.02,0.08c-0.01,0.05,0.01,0.1-0.01,0.15c-0.01,0.02-0.03,0.03-0.03,0.05c-0.01,0.02-0.01,0.04-0.01,0.06 c-0.03,0.08-0.02,0.08-0.01,0.17c0.01,0.07-0.01,0.15,0.01,0.22c0.01,0.04,0.04,0.08,0.04,0.12c0,0.03-0.02,0.05-0.02,0.08 c-0.02,0.08-0.05,0.18-0.04,0.26c-0.07,0.04-0.06,0.23-0.04,0.31c0.01,0.04,0.02,0.05,0.02,0.07c0,0.02-0.01,0.03-0.03,0.07 c-0.02,0.04-0.02,0.07-0.02,0.08c0.01,0.03,0.05,0.05,0.09,0.04c0.02,0,0.03-0.02,0.06-0.02c0.01,0,0.02,0,0.04,0.01 c0.04,0.02,0.08,0.05,0.13,0.05c0.03,0,0.05-0.03,0.08-0.02c0.02,0,0.05,0.03,0.07,0.04c0.02,0.01,0.03,0.02,0.05,0.03 c0.03,0,0.04-0.02,0.07-0.02c0.02,0,0.05,0.02,0.08,0.02c0.05,0,0.08-0.02,0.12-0.05c0.05-0.04,0.06-0.01,0.12,0 c0.03,0,0.05-0.01,0.09,0c0.04,0.01,0.07,0.04,0.11,0.03c0.03,0,0.04-0.03,0.06-0.03c0.02,0,0.07,0.02,0.1,0.02 c0.02,0,0.04,0.01,0.07,0.01c0.03-0.01,0.05-0.01,0.07-0.02c0.08-0.02,0.11,0.04,0.14,0c0.01-0.02,0.01-0.04,0.03-0.19 c0-0.01,0-0.02,0.01-0.04c0.01-0.02,0.02-0.02,0.03-0.05c0.02-0.07,0.02-0.07,0-0.14c-0.02-0.08-0.01-0.14,0-0.22 c0-0.02,0.01-0.04,0.01-0.06c0-0.02-0.02-0.07-0.02-0.09c0.01-0.05,0.05-0.08,0.06-0.14c0-0.04-0.02-0.08-0.02-0.12 c0-0.04,0.01-0.06,0.01-0.09c0.01-0.03,0.01-0.11,0.01-0.14c0-0.05-0.01-0.04-0.04-0.12c-0.02-0.06-0.03-0.1-0.02-0.15 c0-0.04,0.01-0.06,0.02-0.08c-0.02-0.16-0.03-0.3,0.03-0.46c0.05-0.14-0.06-0.15-0.04-0.29c-0.03,0-0.07,0.01-0.1,0.01 c-0.05,0-0.05-0.02-0.09-0.04c-0.05-0.02-0.08,0.03-0.12,0.04c-0.02,0-0.04-0.02-0.07-0.01c-0.04,0.01-0.05,0.05-0.09,0.04 c-0.03-0.01-0.05-0.06-0.08-0.06c-0.03,0-0.06,0.02-0.09,0.02c-0.04,0-0.07-0.03-0.1-0.03c-0.06,0-0.1,0.07-0.16,0.05 c-0.03-0.01-0.03-0.04-0.07-0.04c-0.03,0-0.05,0-0.09,0.02c-0.06,0.02-0.14,0-0.19-0.02C27.41,82.33,27.37,82.29,27.34,82.32z" fill="#fff78c"/></g><g id="change3_6"><path d="M30.2,32.9c0.03,0,0.08,0.01,0.08,0.01c0.04,0.01,0.04,0.01,0.08,0.02c0.03,0.01,0.06,0.01,0.09,0.02 c0.01,0,0.03,0.01,0.03,0.01c0.01,0,0.06,0.01,0.06,0.01c0.02,0.01,0.05,0.02,0.08,0.03c0.04,0.01,0.07,0.02,0.11,0.03 c0.04,0.01,0.07,0.03,0.12,0.04c0.04,0.01,0.06,0.01,0.09,0.02c0.05,0.01,0.1,0.03,0.15,0.04c0.02,0,0.04,0,0.06,0 c0.02,0,0.04,0.01,0.06,0.01c0.08,0.01,0.09,0.02,0.17,0.05c0.07,0.02,0.15,0.04,0.22,0.07c0.04,0.02,0.07,0.04,0.11,0.06 c0.03,0.01,0.05,0.01,0.08,0.01c0.08,0.01,0.19,0.03,0.27,0.06c0.05-0.02,0.24,0.04,0.31,0.07c0.04,0.02,0.05,0.02,0.06,0.03 c0.02,0.01,0.03,0,0.08,0.01c0.05,0.01,0.07,0.01,0.09,0.02c0.03,0.01,0.04,0.04,0.02,0.05c-0.01,0.01-0.02,0.01-0.03,0.02 c0,0.01,0,0.01,0,0.02c0.01,0.03,0.04,0.05,0.02,0.07c-0.01,0.01-0.03,0.02-0.04,0.03c0,0.01,0.02,0.03,0.02,0.05 c0.01,0.01,0.02,0.02,0.02,0.03c0,0.01-0.03,0.01-0.04,0.02c-0.01,0.01,0.01,0.03,0,0.04c-0.01,0.02-0.04,0.03-0.08,0.04 c-0.05,0.01-0.02,0.03-0.03,0.05c0,0.02-0.02,0.02-0.02,0.04c0,0.02,0.02,0.05,0.01,0.06c-0.01,0.01-0.03,0.01-0.04,0.02 c-0.01,0.01,0.01,0.04,0,0.05c0,0.01,0.01,0.02-0.01,0.03c-0.01,0.01-0.02,0.02-0.04,0.03c-0.04,0.03,0.01,0.06-0.02,0.06 c-0.02,0-0.04-0.01-0.2-0.04c-0.01,0-0.02-0.01-0.04-0.01c-0.02,0-0.03,0-0.05,0c-0.07-0.01-0.08-0.01-0.14-0.04 c-0.07-0.03-0.14-0.05-0.22-0.07c-0.02,0-0.04-0.01-0.06-0.01c-0.02-0.01-0.06-0.03-0.08-0.03c-0.05-0.01-0.09,0-0.15-0.02 c-0.05-0.01-0.07-0.03-0.11-0.04c-0.04-0.01-0.06-0.01-0.09-0.02c-0.03-0.01-0.11-0.03-0.14-0.04c-0.05-0.02-0.04-0.02-0.11-0.05 c-0.05-0.02-0.09-0.04-0.15-0.05c-0.04-0.01-0.07-0.01-0.09-0.01c-0.15-0.06-0.29-0.1-0.46-0.12c-0.15-0.02-0.14-0.07-0.28-0.11 c0-0.02,0.02-0.03,0.03-0.04c0.01-0.02-0.01-0.03-0.02-0.05c-0.01-0.03,0.05-0.03,0.06-0.05c0.01-0.01-0.01-0.03,0-0.03 c0.02-0.02,0.06-0.01,0.05-0.03c-0.01-0.02-0.05-0.04-0.04-0.06c0-0.02,0.03-0.02,0.04-0.03c0.01-0.02-0.01-0.04-0.01-0.05 c0.01-0.03,0.09-0.03,0.08-0.06c-0.01-0.02-0.03-0.03-0.02-0.04c0.01-0.01,0.01-0.02,0.03-0.04c0.04-0.02,0.03-0.06,0.02-0.09 C30.2,32.94,30.16,32.9,30.2,32.9z" fill="#fff78c"/></g><g id="change1_4"><path d="M25.17,44.51c0.01-0.02,0.05-0.06,0.05-0.07c0.03-0.03,0.03-0.03,0.06-0.06c0.02-0.02,0.04-0.05,0.06-0.07 c0.01-0.01,0.02-0.02,0.03-0.02c0,0,0.04-0.04,0.04-0.04c0.02-0.02,0.04-0.04,0.06-0.06c0.03-0.03,0.05-0.05,0.08-0.08 c0.03-0.03,0.06-0.05,0.1-0.08c0.03-0.03,0.04-0.05,0.06-0.07c0.03-0.04,0.08-0.07,0.11-0.11c0.01-0.02,0.02-0.03,0.03-0.05 c0.01-0.02,0.03-0.03,0.04-0.05c0.05-0.07,0.05-0.07,0.12-0.13c0.06-0.05,0.11-0.11,0.17-0.16c0.03-0.02,0.07-0.04,0.1-0.07 c0.02-0.02,0.03-0.04,0.05-0.06c0.05-0.07,0.12-0.15,0.18-0.21c0-0.06,0.15-0.19,0.21-0.24c0.03-0.02,0.04-0.03,0.05-0.04 c0.02-0.02,0.02-0.03,0.05-0.06c0.03-0.04,0.04-0.06,0.06-0.07c0.03-0.02,0.05-0.01,0.06,0c0,0.01,0,0.03,0.01,0.04 c0,0,0.01,0.01,0.02,0.01c0.03,0,0.06-0.01,0.07,0.02c0.01,0.01,0,0.04,0.01,0.05c0.01,0.01,0.04,0,0.05,0c0.02,0,0.03-0.01,0.04,0 c0.01,0.01,0,0.03,0,0.04c0.01,0.01,0.03,0.01,0.04,0.02c0.01,0.02,0.01,0.05,0,0.08c-0.01,0.05,0.01,0.03,0.03,0.05 c0.01,0.01,0.01,0.03,0.02,0.04c0.02,0.01,0.05,0,0.06,0.02c0.01,0.01-0.01,0.03,0,0.05c0,0.01,0.04,0.01,0.05,0.02 c0.01,0.01,0.02,0.01,0.03,0.02c0,0.02,0,0.03,0.01,0.04c0.01,0.05,0.06,0.02,0.05,0.05c-0.01,0.02-0.03,0.03-0.13,0.15 c-0.01,0.01-0.02,0.02-0.03,0.03c-0.01,0.01-0.01,0.02-0.03,0.04c-0.04,0.06-0.05,0.06-0.11,0.1c-0.06,0.05-0.11,0.1-0.16,0.16 c-0.01,0.01-0.02,0.03-0.04,0.04c-0.02,0.02-0.06,0.04-0.07,0.05c-0.04,0.04-0.04,0.08-0.09,0.12c-0.03,0.03-0.06,0.05-0.09,0.08 c-0.03,0.03-0.04,0.04-0.06,0.07c-0.02,0.02-0.08,0.08-0.1,0.1c-0.04,0.03-0.03,0.02-0.1,0.07c-0.05,0.04-0.08,0.06-0.12,0.1 c-0.03,0.03-0.04,0.05-0.05,0.07c-0.12,0.11-0.23,0.21-0.33,0.34c-0.09,0.12-0.13,0.09-0.23,0.19c-0.01-0.01-0.02-0.03-0.02-0.04 c-0.01-0.02-0.03,0-0.06-0.01c-0.03,0,0-0.05-0.01-0.08c0-0.01-0.03-0.01-0.03-0.02c-0.01-0.02,0.02-0.06,0-0.06 c-0.02,0-0.06,0.02-0.07,0.01c-0.01-0.01,0-0.04-0.01-0.05c-0.01-0.02-0.04-0.01-0.05-0.02c-0.02-0.02,0.02-0.09-0.01-0.1 c-0.02,0-0.04,0.01-0.05,0c-0.01-0.01-0.02-0.02-0.02-0.05c0-0.04-0.04-0.05-0.07-0.06C25.21,44.53,25.16,44.54,25.17,44.51z" fill="#ff8c9d"/></g><g id="change1_5"><path d="M13.66,64.08c0.03,0.04,0.11,0.06,0.11,0.06c0.06,0.02,0.06,0,0.12,0.02c0.04,0.01,0.08,0.04,0.13,0.05 c0.01,0,0.04,0,0.05,0c0.01,0,0.08,0.03,0.08,0.03c0.03,0.01,0.08,0.01,0.13,0.01c0.06,0.01,0.11,0.03,0.16,0.04 c0.06,0.01,0.12,0,0.19,0.01c0.06,0.01,0.08,0.04,0.12,0.05c0.07,0.03,0.16,0.02,0.22,0.05c0.03,0.02,0.04,0.05,0.07,0.06 c0.03,0.02,0.06,0.02,0.09,0.04c0.11,0.06,0.12,0.05,0.25,0.06c0.11,0.01,0.23,0.06,0.34,0.06c0.06,0,0.13-0.04,0.19-0.03 c0.04,0.01,0.07,0.04,0.11,0.06c0.11,0.06,0.26,0.12,0.39,0.13c0.04,0.12,0.33,0.15,0.45,0.15c0.06,0,0.08-0.01,0.11-0.01 c0.04,0.01,0.05,0.03,0.1,0.06c0.06,0.04,0.09,0.05,0.12,0.05c0.05,0,0.09-0.06,0.08-0.11c0-0.03-0.02-0.05-0.01-0.09 c0-0.02,0.01-0.03,0.02-0.05c0.04-0.06,0.1-0.1,0.11-0.17c0-0.04-0.02-0.08-0.01-0.12c0.01-0.03,0.06-0.07,0.08-0.1 c0.02-0.03,0.04-0.03,0.05-0.07c0.01-0.04-0.02-0.07-0.02-0.11c0-0.03,0.04-0.07,0.05-0.1c0.01-0.07-0.01-0.12-0.05-0.19 c-0.04-0.09,0-0.1,0.03-0.17c0.01-0.05,0-0.08,0.02-0.13c0.02-0.05,0.08-0.1,0.08-0.15c0-0.04-0.03-0.06-0.03-0.1 c0-0.03,0.05-0.09,0.06-0.13c0.01-0.03,0.03-0.06,0.03-0.1c0-0.05-0.01-0.07-0.01-0.11c-0.02-0.12,0.09-0.15,0.04-0.2 c-0.02-0.02-0.06-0.03-0.29-0.1c-0.01,0-0.03-0.01-0.05-0.02c-0.02-0.01-0.03-0.03-0.06-0.05c-0.09-0.06-0.11-0.05-0.22-0.04 c-0.12,0.01-0.22-0.03-0.34-0.06c-0.03-0.01-0.05-0.02-0.08-0.03c-0.04-0.01-0.11,0.01-0.14,0c-0.08-0.03-0.11-0.1-0.19-0.12 c-0.07-0.02-0.12,0-0.18-0.01c-0.06-0.01-0.08-0.03-0.13-0.05c-0.04-0.02-0.16-0.04-0.21-0.05c-0.07-0.01-0.06,0.01-0.19,0.02 c-0.09,0-0.16,0.01-0.24-0.02c-0.05-0.02-0.09-0.04-0.12-0.06c-0.24-0.02-0.47-0.05-0.69-0.18c-0.2-0.12-0.25,0.04-0.45-0.03 c-0.01,0.05-0.01,0.1-0.02,0.15c-0.01,0.07-0.05,0.07-0.08,0.12c-0.04,0.06,0.03,0.13,0.02,0.19c0,0.03-0.04,0.06-0.04,0.09 c0,0.06,0.07,0.08,0.03,0.14c-0.03,0.04-0.1,0.05-0.12,0.1c-0.01,0.04,0.02,0.09,0.01,0.13c-0.01,0.05-0.06,0.09-0.07,0.14 c-0.02,0.08,0.08,0.17,0.03,0.25c-0.03,0.04-0.07,0.04-0.07,0.09c-0.01,0.05-0.02,0.07,0,0.14c0.02,0.1-0.04,0.19-0.08,0.27 C13.7,63.99,13.62,64.03,13.66,64.08z" fill="#ff8c9d"/></g><g id="change4_2"><path d="M78.49,36.54c-0.08-0.06-0.24-0.06-0.26-0.06c-0.12,0-0.13,0.03-0.25,0.04c-0.09,0-0.19-0.03-0.27-0.02 c-0.03,0-0.08,0.03-0.1,0.02c-0.02,0-0.17-0.01-0.18-0.01c-0.07,0.01-0.17,0.04-0.25,0.06c-0.12,0.02-0.23,0.01-0.34,0.03 c-0.13,0.02-0.24,0.08-0.38,0.1c-0.12,0.01-0.18-0.02-0.27-0.03c-0.16-0.01-0.32,0.06-0.47,0.03c-0.06-0.02-0.11-0.07-0.18-0.09 c-0.07-0.02-0.13-0.01-0.19-0.02c-0.26-0.06-0.26-0.03-0.53,0.03c-0.22,0.05-0.48,0.03-0.7,0.1c-0.12,0.04-0.23,0.16-0.36,0.18 c-0.09,0.01-0.16-0.03-0.24-0.05c-0.26-0.05-0.58-0.08-0.84-0.03c-0.14-0.22-0.73-0.1-0.97-0.01c-0.12,0.04-0.16,0.07-0.2,0.08 c-0.08,0.01-0.11-0.03-0.24-0.06c-0.14-0.04-0.21-0.05-0.27-0.03c-0.1,0.04-0.13,0.18-0.1,0.29c0.02,0.07,0.06,0.1,0.07,0.19 c0,0.04,0,0.07-0.01,0.12c-0.04,0.14-0.14,0.27-0.1,0.42c0.02,0.08,0.1,0.15,0.1,0.23c0,0.07-0.07,0.18-0.09,0.25 c-0.03,0.08-0.07,0.09-0.06,0.18c0,0.08,0.08,0.13,0.09,0.21c0.01,0.07-0.04,0.17-0.03,0.25c0.02,0.15,0.1,0.24,0.21,0.36 c0.14,0.16,0.05,0.2,0.05,0.37c0,0.1,0.05,0.17,0.04,0.28c-0.01,0.12-0.09,0.25-0.07,0.37c0.02,0.09,0.1,0.11,0.12,0.18 c0.02,0.07-0.04,0.23-0.04,0.31c0,0.08-0.03,0.14,0,0.22c0.03,0.1,0.06,0.14,0.1,0.22c0.1,0.24-0.07,0.37,0.04,0.44 c0.05,0.04,0.13,0.03,0.62,0.02c0.03,0,0.07,0,0.12,0.01c0.06,0.02,0.08,0.04,0.16,0.06c0.22,0.05,0.24,0.04,0.45-0.05 c0.23-0.1,0.45-0.08,0.69-0.08c0.06,0,0.12,0.01,0.18,0c0.07-0.01,0.2-0.09,0.26-0.09c0.17,0,0.27,0.13,0.45,0.13 c0.14,0,0.24-0.07,0.37-0.1c0.12-0.02,0.18,0,0.29,0.01c0.1,0.01,0.34-0.01,0.44-0.03c0.15-0.03,0.12-0.06,0.36-0.15 c0.17-0.07,0.3-0.11,0.47-0.12c0.11,0,0.21,0.02,0.27,0.04c0.48-0.11,0.94-0.2,1.44-0.07c0.47,0.12,0.46-0.24,0.9-0.23 c0-0.1-0.04-0.21-0.06-0.31c-0.02-0.15,0.05-0.17,0.09-0.3c0.04-0.15-0.13-0.24-0.16-0.38c-0.02-0.07,0.04-0.15,0.01-0.21 c-0.04-0.13-0.18-0.13-0.14-0.27c0.03-0.11,0.17-0.17,0.17-0.29c0-0.1-0.09-0.17-0.1-0.27c-0.02-0.12,0.06-0.21,0.06-0.33 c-0.01-0.18-0.25-0.3-0.2-0.49c0.03-0.1,0.11-0.12,0.09-0.24c-0.02-0.1-0.01-0.16-0.08-0.29c-0.1-0.19-0.04-0.42,0-0.6 C78.46,36.75,78.59,36.62,78.49,36.54z" fill="#86e3ce"/></g><g id="change1_6"><path d="M79.34,17.02c0.05-0.08,0.04-0.25,0.03-0.26c-0.01-0.12-0.04-0.12-0.06-0.24c-0.01-0.09,0.01-0.19,0-0.28 c0-0.03-0.03-0.08-0.03-0.1c0-0.02,0-0.17,0-0.18c-0.02-0.07-0.05-0.16-0.08-0.25c-0.03-0.12-0.03-0.23-0.06-0.34 c-0.03-0.12-0.1-0.23-0.13-0.37c-0.02-0.11,0.01-0.18,0-0.27c-0.01-0.16-0.09-0.31-0.07-0.46c0.01-0.06,0.06-0.12,0.07-0.19 c0.01-0.07,0-0.13,0.01-0.19c0.03-0.26,0.01-0.27-0.07-0.53c-0.07-0.22-0.07-0.48-0.16-0.69c-0.05-0.11-0.18-0.21-0.21-0.34 c-0.02-0.09,0.02-0.16,0.03-0.25c0.02-0.26,0.03-0.58-0.04-0.84c0.21-0.16,0.04-0.74-0.07-0.97c-0.05-0.12-0.09-0.15-0.09-0.19 c-0.01-0.08,0.02-0.11,0.04-0.25c0.02-0.14,0.04-0.22,0.01-0.27c-0.05-0.1-0.2-0.11-0.29-0.07c-0.07,0.03-0.09,0.07-0.18,0.09 c-0.03,0.01-0.07,0.01-0.12,0c-0.15-0.03-0.28-0.12-0.43-0.07c-0.08,0.03-0.14,0.11-0.22,0.12c-0.07,0.01-0.19-0.05-0.25-0.07 c-0.08-0.02-0.1-0.06-0.19-0.05c-0.08,0.01-0.12,0.09-0.2,0.11c-0.07,0.02-0.17-0.03-0.25-0.01c-0.15,0.03-0.23,0.12-0.34,0.24 c-0.15,0.16-0.2,0.07-0.36,0.08c-0.1,0.01-0.16,0.07-0.27,0.07c-0.12,0-0.25-0.07-0.37-0.04c-0.08,0.02-0.1,0.11-0.17,0.13 c-0.07,0.02-0.23-0.02-0.31-0.01c-0.08,0.01-0.15-0.02-0.22,0.02c-0.1,0.04-0.13,0.07-0.21,0.11c-0.23,0.12-0.37-0.04-0.43,0.07 c-0.03,0.06-0.01,0.13,0.03,0.62c0,0.03,0.01,0.07,0,0.12c-0.01,0.06-0.04,0.08-0.05,0.16c-0.04,0.22-0.02,0.24,0.08,0.44 c0.11,0.22,0.12,0.44,0.14,0.68c0.01,0.06,0,0.12,0.02,0.18c0.02,0.07,0.11,0.19,0.12,0.25c0.01,0.17-0.1,0.28-0.09,0.46 c0.01,0.14,0.09,0.23,0.13,0.36c0.03,0.11,0.01,0.18,0.02,0.29c0,0.1,0.04,0.33,0.07,0.44c0.04,0.14,0.07,0.11,0.18,0.35 c0.08,0.17,0.14,0.29,0.16,0.46c0.01,0.11,0,0.21-0.01,0.27c0.16,0.47,0.28,0.92,0.19,1.43c-0.08,0.48,0.28,0.44,0.31,0.87 c0.1-0.01,0.2-0.06,0.3-0.08c0.15-0.04,0.17,0.04,0.31,0.06c0.15,0.03,0.23-0.15,0.36-0.19c0.07-0.03,0.15,0.02,0.21,0 c0.12-0.05,0.11-0.19,0.26-0.17c0.11,0.02,0.18,0.15,0.3,0.14c0.1-0.01,0.16-0.1,0.26-0.12c0.12-0.03,0.22,0.04,0.33,0.03 c0.18-0.03,0.28-0.28,0.47-0.24c0.1,0.02,0.13,0.09,0.25,0.07c0.1-0.03,0.16-0.03,0.28-0.11c0.18-0.11,0.42-0.08,0.59-0.06 C79.13,17.02,79.27,17.13,79.34,17.02z" fill="#ff8c9d"/></g><g id="change3_7"><path d="M7.38,27.27c-0.06,0.1-0.12,0.33-0.12,0.36c-0.04,0.17-0.02,0.19-0.06,0.36c-0.03,0.13-0.08,0.26-0.1,0.38 c-0.01,0.04-0.01,0.12-0.02,0.15c-0.01,0.03-0.06,0.24-0.06,0.25c-0.02,0.1-0.03,0.24-0.04,0.37c-0.02,0.17-0.07,0.32-0.09,0.49 c-0.03,0.18-0.02,0.36-0.06,0.56c-0.03,0.17-0.07,0.26-0.1,0.38c-0.05,0.22-0.06,0.46-0.13,0.67c-0.03,0.09-0.08,0.15-0.11,0.24 c-0.04,0.09-0.05,0.18-0.08,0.27c-0.12,0.35-0.11,0.37-0.15,0.76c-0.04,0.32-0.14,0.69-0.16,1.01c-0.01,0.18,0.03,0.36,0,0.55 c-0.02,0.13-0.07,0.22-0.11,0.34c-0.11,0.35-0.24,0.8-0.29,1.18c-0.19,0.16-0.3,1.02-0.32,1.38c-0.01,0.18,0,0.24-0.01,0.3 c-0.02,0.11-0.05,0.15-0.12,0.33c-0.07,0.19-0.1,0.29-0.11,0.38c-0.01,0.15,0.08,0.22,0.16,0.19c0.05-0.02,0.09-0.07,0.15-0.06 c0.02,0,0.05,0.02,0.07,0.04c0.08,0.08,0.13,0.26,0.24,0.23c0.06-0.01,0.13-0.11,0.18-0.09c0.04,0.01,0.1,0.13,0.13,0.18 c0.04,0.06,0.04,0.11,0.1,0.13c0.06,0.01,0.11-0.09,0.17-0.09c0.05,0,0.1,0.09,0.15,0.09c0.11,0,0.19-0.09,0.3-0.22 c0.15-0.17,0.15-0.03,0.26,0c0.07,0.02,0.13-0.04,0.2-0.01c0.08,0.04,0.13,0.18,0.22,0.17c0.06-0.01,0.1-0.12,0.16-0.13 c0.05-0.01,0.14,0.1,0.19,0.11c0.05,0.01,0.09,0.07,0.15,0.05c0.08-0.03,0.11-0.06,0.17-0.09c0.19-0.1,0.22,0.18,0.3,0.03 c0.04-0.07,0.06-0.18,0.21-0.87c0.01-0.04,0.02-0.1,0.05-0.17c0.03-0.08,0.05-0.11,0.09-0.21c0.1-0.3,0.1-0.33,0.11-0.65 c0.01-0.34,0.09-0.65,0.17-1c0.02-0.09,0.04-0.16,0.06-0.25c0.02-0.11,0-0.3,0.02-0.39c0.06-0.24,0.17-0.35,0.23-0.62 c0.04-0.2,0.03-0.35,0.05-0.54c0.02-0.17,0.06-0.25,0.1-0.41c0.03-0.14,0.1-0.48,0.12-0.64c0.03-0.21,0-0.18,0.01-0.54 c0.01-0.26,0.02-0.45,0.07-0.69c0.04-0.16,0.08-0.29,0.11-0.37c0.08-0.71,0.17-1.37,0.41-2.06c0.23-0.64-0.01-0.7,0.13-1.32 c-0.07-0.01-0.15,0.02-0.22,0.02c-0.11,0-0.09-0.1-0.17-0.18c-0.09-0.09-0.2,0.13-0.3,0.15c-0.05,0.01-0.09-0.08-0.14-0.06 c-0.1,0.03-0.14,0.23-0.23,0.15c-0.06-0.06-0.06-0.27-0.14-0.29C9.14,27.55,9.06,27.66,9,27.66c-0.08,0-0.12-0.13-0.2-0.14 c-0.12-0.02-0.28,0.3-0.39,0.19c-0.06-0.06-0.05-0.17-0.13-0.17c-0.07,0-0.11-0.01-0.22,0.06c-0.16,0.1-0.29-0.02-0.4-0.11 C7.51,27.35,7.46,27.14,7.38,27.27z" fill="#fff78c"/></g><g id="change3_8"><path d="M58.97,13.88c-0.03-0.11-0.17-0.31-0.18-0.33c-0.1-0.15-0.12-0.14-0.23-0.28c-0.08-0.11-0.14-0.23-0.21-0.34 c-0.02-0.03-0.08-0.09-0.1-0.11c-0.02-0.02-0.14-0.21-0.14-0.22c-0.06-0.08-0.16-0.18-0.24-0.28c-0.11-0.13-0.2-0.27-0.3-0.4 c-0.12-0.14-0.25-0.26-0.37-0.42c-0.1-0.13-0.14-0.23-0.21-0.33c-0.13-0.19-0.3-0.36-0.4-0.55c-0.04-0.08-0.05-0.16-0.1-0.24 c-0.05-0.09-0.1-0.16-0.15-0.24c-0.18-0.33-0.2-0.33-0.46-0.63c-0.21-0.25-0.41-0.56-0.64-0.8c-0.12-0.13-0.29-0.22-0.4-0.37 c-0.08-0.1-0.11-0.2-0.17-0.31c-0.18-0.32-0.43-0.72-0.67-1.01C54,6.77,53.45,6.1,53.2,5.85c-0.13-0.13-0.17-0.16-0.21-0.21 c-0.07-0.09-0.07-0.14-0.16-0.31c-0.09-0.18-0.14-0.27-0.21-0.34C52.5,4.88,52.4,4.9,52.36,4.97c-0.02,0.05-0.01,0.11-0.05,0.15 c-0.02,0.02-0.04,0.02-0.08,0.03c-0.12,0-0.28-0.08-0.33,0.02c-0.03,0.05-0.01,0.17-0.06,0.2c-0.04,0.03-0.16-0.02-0.22-0.03 c-0.07-0.01-0.11-0.05-0.16-0.01c-0.05,0.03-0.01,0.14-0.05,0.19c-0.03,0.04-0.13,0.01-0.17,0.05c-0.07,0.08-0.06,0.2-0.04,0.37 c0.02,0.23-0.08,0.13-0.17,0.19c-0.06,0.04-0.06,0.12-0.13,0.15c-0.08,0.03-0.22-0.02-0.27,0.05c-0.04,0.05,0.02,0.16-0.01,0.21 c-0.03,0.04-0.17,0.03-0.21,0.07c-0.05,0.03-0.11,0.02-0.13,0.08c-0.03,0.08-0.03,0.12-0.05,0.19c-0.06,0.21-0.28,0.04-0.23,0.2 c0.02,0.08,0.09,0.16,0.5,0.75c0.02,0.03,0.06,0.08,0.09,0.15c0.04,0.07,0.04,0.11,0.09,0.21c0.15,0.28,0.17,0.3,0.4,0.52 c0.25,0.24,0.42,0.5,0.62,0.8c0.05,0.07,0.09,0.14,0.15,0.21c0.07,0.08,0.22,0.2,0.27,0.28c0.14,0.2,0.15,0.37,0.3,0.59 c0.12,0.17,0.24,0.26,0.36,0.4c0.11,0.13,0.15,0.21,0.23,0.35c0.08,0.12,0.29,0.4,0.39,0.52c0.14,0.17,0.13,0.12,0.39,0.38 c0.18,0.18,0.32,0.32,0.46,0.52c0.1,0.14,0.16,0.26,0.2,0.33c0.47,0.54,0.89,1.05,1.23,1.7c0.32,0.6,0.53,0.46,0.88,0.99 c0.06-0.04,0.09-0.12,0.14-0.18c0.07-0.08,0.14,0,0.25,0c0.12,0,0.04-0.24,0.09-0.33c0.03-0.05,0.12-0.01,0.14-0.06 c0.04-0.09-0.07-0.26,0.04-0.27c0.09,0,0.24,0.14,0.31,0.1c0.06-0.04,0.03-0.17,0.07-0.21c0.06-0.06,0.18,0,0.24-0.05 c0.1-0.07-0.03-0.41,0.12-0.42c0.08,0,0.16,0.08,0.21,0.02c0.05-0.06,0.08-0.07,0.1-0.2c0.03-0.18,0.21-0.2,0.35-0.22 C58.82,13.92,59.01,14.03,58.97,13.88z" fill="#fff78c"/></g><g id="change1_7"><path d="M40.03,74.11c-0.07,0.06-0.11,0.22-0.11,0.24c-0.03,0.12,0,0.13-0.02,0.25c-0.02,0.09-0.07,0.18-0.08,0.26 c-0.01,0.03,0.01,0.09,0,0.1c0,0.02-0.05,0.17-0.05,0.17c-0.01,0.07,0,0.17,0,0.26c0,0.12-0.04,0.22-0.05,0.34 c-0.01,0.13,0.03,0.25,0.01,0.39c-0.02,0.12-0.06,0.17-0.09,0.26c-0.04,0.15-0.01,0.32-0.08,0.46c-0.03,0.06-0.09,0.1-0.13,0.15 c-0.04,0.06-0.04,0.12-0.07,0.18c-0.11,0.24-0.09,0.25-0.09,0.52c0,0.23-0.08,0.47-0.06,0.71c0.01,0.12,0.11,0.26,0.09,0.39 c-0.01,0.09-0.07,0.15-0.1,0.23c-0.1,0.24-0.21,0.55-0.22,0.81c-0.25,0.09-0.27,0.69-0.23,0.95c0.02,0.13,0.04,0.17,0.03,0.21 c-0.01,0.08-0.05,0.1-0.11,0.22c-0.07,0.13-0.1,0.19-0.09,0.26c0.01,0.11,0.15,0.17,0.26,0.16c0.07-0.01,0.11-0.04,0.2-0.03 c0.03,0.01,0.07,0.02,0.11,0.04c0.13,0.07,0.23,0.2,0.39,0.2c0.08,0,0.17-0.06,0.25-0.04c0.07,0.01,0.16,0.11,0.22,0.15 c0.07,0.05,0.08,0.09,0.16,0.1c0.08,0.02,0.14-0.05,0.22-0.04c0.07,0,0.15,0.08,0.23,0.09c0.15,0.02,0.25-0.04,0.39-0.12 c0.19-0.1,0.21,0,0.37,0.03c0.1,0.02,0.18-0.01,0.28,0.02c0.11,0.04,0.22,0.15,0.34,0.15c0.09,0,0.13-0.07,0.21-0.07 c0.07,0,0.21,0.09,0.29,0.11c0.08,0.02,0.13,0.06,0.22,0.05c0.11-0.01,0.15-0.03,0.23-0.04c0.26-0.05,0.34,0.15,0.43,0.06 c0.05-0.05,0.05-0.12,0.16-0.6c0.01-0.03,0.01-0.07,0.04-0.11c0.03-0.05,0.06-0.07,0.1-0.14c0.1-0.2,0.09-0.22,0.06-0.45 c-0.04-0.25,0.02-0.45,0.08-0.69c0.01-0.06,0.03-0.11,0.04-0.18c0.01-0.07-0.05-0.21-0.03-0.28c0.04-0.17,0.19-0.23,0.22-0.41 c0.03-0.14-0.02-0.25-0.01-0.38c0.01-0.12,0.04-0.17,0.07-0.28c0.03-0.09,0.06-0.33,0.07-0.44c0.01-0.15-0.03-0.13-0.07-0.39 c-0.03-0.19-0.04-0.32-0.01-0.48c0.02-0.11,0.07-0.2,0.1-0.25c0-0.5,0.02-0.96,0.26-1.42c0.22-0.43-0.13-0.5-0.02-0.93 c-0.1-0.02-0.21-0.01-0.31-0.01c-0.15-0.01-0.15-0.09-0.27-0.15c-0.14-0.07-0.27,0.07-0.41,0.07c-0.08,0-0.13-0.07-0.2-0.06 c-0.13,0.01-0.17,0.15-0.3,0.08c-0.1-0.05-0.13-0.2-0.24-0.23c-0.1-0.02-0.19,0.05-0.28,0.04c-0.12-0.01-0.19-0.11-0.31-0.13 c-0.17-0.03-0.35,0.18-0.52,0.09c-0.09-0.05-0.09-0.13-0.21-0.14c-0.11-0.01-0.16-0.02-0.3,0.01c-0.21,0.05-0.42-0.05-0.58-0.13 C40.23,74.18,40.13,74.02,40.03,74.11z" fill="#ff8c9d"/></g><g id="change4_3"><path d="M54.06,43.4c-0.05,0.04-0.1,0.14-0.11,0.16c-0.04,0.08-0.03,0.09-0.06,0.17c-0.03,0.06-0.07,0.12-0.1,0.17 c-0.01,0.02-0.02,0.06-0.02,0.07c-0.01,0.01-0.06,0.11-0.06,0.11c-0.02,0.05-0.04,0.12-0.06,0.18c-0.03,0.08-0.07,0.15-0.1,0.23 c-0.03,0.09-0.04,0.18-0.08,0.27c-0.03,0.08-0.07,0.11-0.1,0.17c-0.05,0.1-0.07,0.22-0.14,0.31c-0.03,0.04-0.07,0.06-0.1,0.1 c-0.03,0.04-0.04,0.08-0.07,0.12c-0.11,0.15-0.1,0.17-0.16,0.35c-0.05,0.16-0.14,0.32-0.18,0.48c-0.02,0.09,0,0.19-0.03,0.28 c-0.02,0.06-0.07,0.09-0.1,0.15c-0.1,0.16-0.22,0.36-0.29,0.54c-0.15,0.04-0.28,0.45-0.32,0.63c-0.02,0.09-0.02,0.12-0.03,0.15 c-0.02,0.05-0.05,0.06-0.11,0.14c-0.06,0.08-0.09,0.13-0.1,0.17c-0.02,0.08,0.04,0.13,0.1,0.13c0.04,0,0.07-0.02,0.11,0 c0.02,0.01,0.03,0.02,0.05,0.04c0.05,0.06,0.08,0.16,0.16,0.17c0.04,0.01,0.1-0.03,0.14-0.01c0.03,0.02,0.06,0.09,0.08,0.12 c0.03,0.04,0.02,0.07,0.06,0.09c0.04,0.02,0.09-0.02,0.13-0.01c0.04,0.01,0.06,0.07,0.1,0.08c0.08,0.02,0.14-0.01,0.23-0.05 c0.12-0.05,0.11,0.02,0.18,0.06c0.05,0.02,0.09,0.01,0.14,0.04c0.05,0.04,0.08,0.12,0.15,0.13c0.04,0.01,0.08-0.04,0.12-0.03 c0.04,0.01,0.09,0.08,0.13,0.1c0.04,0.02,0.06,0.05,0.1,0.06c0.06,0,0.08-0.01,0.13-0.01c0.14-0.01,0.14,0.14,0.21,0.08 c0.03-0.03,0.05-0.08,0.21-0.4c0.01-0.02,0.02-0.05,0.04-0.08c0.02-0.03,0.05-0.04,0.08-0.09c0.09-0.13,0.1-0.15,0.12-0.31 c0.03-0.17,0.11-0.31,0.19-0.47c0.02-0.04,0.04-0.07,0.06-0.12c0.02-0.05,0.02-0.15,0.04-0.19c0.06-0.11,0.15-0.14,0.2-0.27 c0.04-0.09,0.04-0.17,0.07-0.26c0.03-0.08,0.06-0.12,0.1-0.19c0.03-0.06,0.1-0.22,0.13-0.3c0.04-0.1,0.01-0.09,0.05-0.27 c0.03-0.13,0.04-0.23,0.1-0.33c0.04-0.08,0.08-0.13,0.1-0.17c0.1-0.34,0.21-0.66,0.43-0.96c0.21-0.28,0.04-0.36,0.18-0.64 c-0.05-0.02-0.11-0.02-0.16-0.04c-0.08-0.02-0.06-0.07-0.11-0.13c-0.06-0.06-0.15,0.02-0.23,0.01c-0.04-0.01-0.06-0.06-0.09-0.06 c-0.07,0-0.12,0.09-0.17,0.03c-0.04-0.04-0.02-0.15-0.08-0.18c-0.05-0.02-0.11,0.02-0.15,0c-0.06-0.02-0.08-0.09-0.13-0.12 c-0.08-0.04-0.22,0.09-0.29,0.01c-0.04-0.04-0.02-0.1-0.08-0.12c-0.05-0.01-0.08-0.03-0.16-0.02c-0.12,0.02-0.21-0.07-0.28-0.14 C54.15,43.47,54.13,43.35,54.06,43.4z" fill="#86e3ce"/></g><g id="change5_2"><path d="M79.44,53.74c0.05,0.03,0.17,0.04,0.19,0.04c0.09,0,0.09-0.01,0.18-0.01c0.07,0,0.14,0.02,0.2,0.02 c0.02,0,0.06-0.01,0.08-0.01c0.01,0,0.13,0.01,0.13,0.01c0.05,0,0.12-0.01,0.19-0.02c0.09-0.01,0.17,0,0.25,0 c0.09,0,0.18-0.03,0.28-0.03c0.08,0,0.13,0.02,0.19,0.02c0.11,0.01,0.23-0.02,0.34,0c0.05,0.01,0.08,0.04,0.13,0.05 c0.05,0.01,0.09,0.01,0.14,0.02c0.19,0.04,0.19,0.03,0.39,0.01c0.16-0.02,0.35,0.01,0.52-0.02c0.09-0.02,0.17-0.07,0.27-0.08 c0.07,0,0.11,0.02,0.18,0.04c0.18,0.03,0.42,0.07,0.61,0.05c0.09,0.12,0.53,0.08,0.71,0.05c0.09-0.02,0.12-0.03,0.15-0.03 c0.06,0,0.08,0.02,0.17,0.04c0.1,0.02,0.15,0.04,0.2,0.03c0.08-0.02,0.1-0.09,0.08-0.14c-0.01-0.04-0.04-0.05-0.04-0.1 c0-0.02,0-0.04,0.01-0.06c0.04-0.07,0.12-0.13,0.09-0.21c-0.01-0.04-0.06-0.08-0.06-0.12c0-0.03,0.06-0.09,0.08-0.12 c0.02-0.04,0.05-0.05,0.05-0.09c0-0.04-0.05-0.07-0.06-0.11c-0.01-0.04,0.04-0.08,0.03-0.13c-0.01-0.08-0.06-0.13-0.13-0.19 c-0.1-0.09-0.03-0.11-0.02-0.19c0-0.05-0.03-0.09-0.02-0.14c0.01-0.06,0.08-0.12,0.07-0.19c-0.01-0.05-0.07-0.06-0.08-0.1 c-0.01-0.04,0.04-0.12,0.04-0.16c0-0.04,0.03-0.07,0.01-0.12c-0.02-0.05-0.04-0.07-0.06-0.12c-0.06-0.13,0.07-0.19-0.01-0.23 c-0.04-0.02-0.09-0.02-0.45-0.04c-0.02,0-0.05,0-0.09-0.01c-0.04-0.01-0.06-0.03-0.11-0.04c-0.16-0.04-0.17-0.03-0.33,0.01 c-0.17,0.04-0.33,0.02-0.51,0.01c-0.05,0-0.08-0.01-0.13-0.01c-0.05,0-0.15,0.04-0.2,0.04c-0.12-0.01-0.19-0.08-0.32-0.08 c-0.1,0-0.18,0.03-0.27,0.03c-0.09,0.01-0.13-0.01-0.21-0.02c-0.07-0.01-0.25-0.01-0.33,0c-0.11,0.01-0.09,0.03-0.27,0.07 c-0.13,0.03-0.22,0.05-0.35,0.04c-0.08,0-0.15-0.02-0.19-0.03c-0.36,0.04-0.69,0.06-1.05-0.02c-0.34-0.08-0.35,0.11-0.66,0.08 c0,0.05,0.02,0.11,0.03,0.16c0.01,0.08-0.04,0.08-0.08,0.15c-0.04,0.08,0.08,0.13,0.1,0.2c0.01,0.04-0.03,0.07-0.02,0.11 c0.02,0.07,0.13,0.07,0.09,0.15c-0.03,0.05-0.13,0.08-0.13,0.14c0,0.05,0.06,0.09,0.06,0.14c0.01,0.06-0.06,0.11-0.06,0.17 c0,0.09,0.17,0.17,0.13,0.26c-0.02,0.05-0.08,0.06-0.07,0.12c0.01,0.05,0,0.08,0.05,0.16c0.06,0.1,0.01,0.22-0.02,0.31 C79.47,53.63,79.37,53.69,79.44,53.74z" fill="#d0e6a5"/></g><g id="change3_9"><path d="M85.44,25.93c0.05,0.03,0.17,0.04,0.19,0.04c0.09,0,0.09-0.01,0.18-0.01c0.07,0,0.14,0.02,0.2,0.02 c0.02,0,0.06-0.01,0.08-0.01c0.01,0,0.13,0.01,0.13,0.01c0.05,0,0.12-0.01,0.19-0.02c0.09-0.01,0.17,0,0.25,0 c0.09,0,0.18-0.03,0.28-0.03c0.08,0,0.13,0.02,0.19,0.02c0.11,0.01,0.23-0.02,0.34,0c0.05,0.01,0.08,0.04,0.13,0.05 c0.05,0.01,0.09,0.01,0.14,0.02c0.19,0.04,0.19,0.03,0.39,0.01c0.16-0.02,0.35,0.01,0.52-0.02c0.09-0.02,0.17-0.07,0.27-0.08 c0.07,0,0.11,0.02,0.18,0.04c0.18,0.03,0.42,0.07,0.61,0.05c0.09,0.12,0.53,0.08,0.71,0.05c0.09-0.02,0.12-0.03,0.15-0.03 c0.06,0,0.08,0.02,0.17,0.04c0.1,0.02,0.15,0.04,0.2,0.03c0.08-0.02,0.1-0.09,0.08-0.14c-0.01-0.04-0.04-0.05-0.04-0.1 c0-0.02,0-0.04,0.01-0.06c0.04-0.07,0.12-0.13,0.09-0.21c-0.01-0.04-0.06-0.08-0.06-0.12c0-0.03,0.06-0.09,0.08-0.12 c0.02-0.04,0.05-0.05,0.05-0.09c0-0.04-0.05-0.07-0.06-0.11c-0.01-0.04,0.04-0.08,0.03-0.13c-0.01-0.08-0.06-0.13-0.13-0.19 c-0.1-0.09-0.03-0.11-0.02-0.19c0-0.05-0.03-0.09-0.02-0.14c0.01-0.06,0.08-0.12,0.07-0.19c-0.01-0.05-0.07-0.06-0.08-0.1 c-0.01-0.04,0.04-0.12,0.04-0.16c0-0.04,0.03-0.07,0.01-0.12c-0.02-0.05-0.04-0.07-0.06-0.12c-0.06-0.13,0.07-0.19-0.01-0.23 c-0.04-0.02-0.09-0.02-0.45-0.04c-0.02,0-0.05,0-0.09-0.01c-0.04-0.01-0.06-0.03-0.11-0.04c-0.16-0.04-0.17-0.03-0.33,0.01 c-0.17,0.04-0.33,0.02-0.51,0.01c-0.05,0-0.08-0.01-0.13-0.01c-0.05,0-0.15,0.04-0.2,0.04c-0.12-0.01-0.19-0.08-0.32-0.08 c-0.1,0-0.18,0.03-0.27,0.03c-0.09,0.01-0.13-0.01-0.21-0.02c-0.07-0.01-0.25-0.01-0.33,0c-0.11,0.01-0.09,0.03-0.27,0.07 c-0.13,0.03-0.22,0.05-0.35,0.04c-0.08,0-0.15-0.02-0.19-0.03c-0.36,0.04-0.69,0.06-1.05-0.02c-0.34-0.08-0.35,0.11-0.66,0.08 c0,0.05,0.02,0.11,0.03,0.16c0.01,0.08-0.04,0.08-0.08,0.15c-0.04,0.08,0.08,0.13,0.1,0.2c0.01,0.04-0.03,0.07-0.02,0.11 c0.02,0.07,0.13,0.07,0.09,0.15c-0.03,0.05-0.13,0.08-0.13,0.14c0,0.05,0.06,0.09,0.06,0.14c0.01,0.06-0.06,0.11-0.06,0.17 c0,0.09,0.17,0.17,0.13,0.26c-0.02,0.05-0.08,0.06-0.07,0.12c0.01,0.05,0,0.08,0.05,0.16c0.06,0.1,0.01,0.22-0.02,0.31 C85.46,25.82,85.37,25.89,85.44,25.93z" fill="#fff78c"/></g><g id="change5_3"><path d="M19.19,18.41c0.05,0.03,0.17,0.04,0.19,0.04c0.09,0,0.09-0.01,0.18-0.01c0.07,0,0.14,0.02,0.2,0.02 c0.02,0,0.06-0.01,0.08-0.01c0.01,0,0.13,0.01,0.13,0.01c0.05,0,0.12-0.01,0.19-0.02c0.09-0.01,0.17,0,0.25,0 c0.09,0,0.18-0.03,0.28-0.03c0.08,0,0.13,0.02,0.19,0.02c0.11,0.01,0.23-0.02,0.34,0c0.05,0.01,0.08,0.04,0.13,0.05 c0.05,0.01,0.09,0.01,0.14,0.02c0.19,0.04,0.19,0.03,0.39,0.01c0.16-0.02,0.35,0.01,0.52-0.02c0.09-0.02,0.17-0.07,0.27-0.08 c0.07,0,0.11,0.02,0.18,0.04c0.18,0.03,0.42,0.07,0.61,0.05c0.09,0.12,0.53,0.08,0.71,0.05c0.09-0.02,0.12-0.03,0.15-0.03 c0.06,0,0.08,0.02,0.17,0.04c0.1,0.02,0.15,0.04,0.2,0.03c0.08-0.02,0.1-0.09,0.08-0.14c-0.01-0.04-0.04-0.05-0.04-0.1 c0-0.02,0-0.04,0.01-0.06c0.04-0.07,0.12-0.13,0.09-0.21c-0.01-0.04-0.06-0.08-0.06-0.12c0-0.03,0.06-0.09,0.08-0.12 c0.02-0.04,0.05-0.05,0.05-0.09c0-0.04-0.05-0.07-0.06-0.11c-0.01-0.04,0.04-0.08,0.03-0.13c-0.01-0.08-0.06-0.13-0.13-0.19 c-0.1-0.09-0.03-0.11-0.02-0.19c0-0.05-0.03-0.09-0.02-0.14c0.01-0.06,0.08-0.12,0.07-0.19c-0.01-0.05-0.07-0.06-0.08-0.1 c-0.01-0.04,0.04-0.12,0.04-0.16c0-0.04,0.03-0.07,0.01-0.12c-0.02-0.05-0.04-0.07-0.06-0.12c-0.06-0.13,0.07-0.19-0.01-0.23 c-0.04-0.02-0.09-0.02-0.45-0.04c-0.02,0-0.05,0-0.09-0.01c-0.04-0.01-0.06-0.03-0.11-0.04c-0.16-0.04-0.17-0.03-0.33,0.01 c-0.17,0.04-0.33,0.02-0.51,0.01c-0.05,0-0.08-0.01-0.13-0.01c-0.05,0-0.15,0.04-0.2,0.04c-0.12-0.01-0.19-0.08-0.32-0.08 c-0.1,0-0.18,0.03-0.27,0.03c-0.09,0.01-0.13-0.01-0.21-0.02c-0.07-0.01-0.25-0.01-0.33,0c-0.11,0.01-0.09,0.03-0.27,0.07 c-0.13,0.03-0.22,0.05-0.35,0.04c-0.08,0-0.15-0.02-0.19-0.03c-0.36,0.04-0.69,0.06-1.05-0.02c-0.34-0.08-0.35,0.11-0.66,0.08 c0,0.05,0.02,0.11,0.03,0.16c0.01,0.08-0.04,0.08-0.08,0.15c-0.04,0.08,0.08,0.13,0.1,0.2c0.01,0.04-0.03,0.07-0.02,0.11 c0.02,0.07,0.13,0.07,0.09,0.15c-0.03,0.05-0.13,0.08-0.13,0.14c0,0.05,0.06,0.09,0.06,0.14c0.01,0.06-0.06,0.11-0.06,0.17 c0,0.09,0.17,0.17,0.13,0.26c-0.02,0.05-0.08,0.06-0.07,0.12c0.01,0.05,0,0.08,0.05,0.16c0.06,0.1,0.01,0.22-0.02,0.31 C19.22,18.3,19.12,18.37,19.19,18.41z" fill="#d0e6a5"/></g><g id="change5_4"><path d="M63.66,17.33c0.05,0.03,0.17,0.04,0.19,0.04c0.09,0,0.09-0.01,0.18-0.01c0.07,0,0.14,0.02,0.2,0.02 c0.02,0,0.06-0.01,0.08-0.01c0.01,0,0.13,0.01,0.13,0.01c0.05,0,0.12-0.01,0.19-0.02c0.09-0.01,0.17,0,0.25,0 c0.09,0,0.18-0.03,0.28-0.03c0.08,0,0.13,0.02,0.19,0.02c0.11,0.01,0.23-0.02,0.34,0c0.05,0.01,0.08,0.04,0.13,0.05 c0.05,0.01,0.09,0.01,0.14,0.02c0.19,0.04,0.19,0.03,0.39,0.01c0.16-0.02,0.35,0.01,0.52-0.02c0.09-0.02,0.17-0.07,0.27-0.08 c0.07,0,0.11,0.02,0.18,0.04c0.18,0.03,0.42,0.07,0.61,0.05c0.09,0.12,0.53,0.08,0.71,0.05c0.09-0.02,0.12-0.03,0.15-0.03 c0.06,0,0.08,0.02,0.17,0.04c0.1,0.02,0.15,0.04,0.2,0.03c0.08-0.02,0.1-0.09,0.08-0.14c-0.01-0.04-0.04-0.05-0.04-0.1 c0-0.02,0-0.04,0.01-0.06c0.04-0.07,0.12-0.13,0.09-0.21c-0.01-0.04-0.06-0.08-0.06-0.12c0-0.03,0.06-0.09,0.08-0.12 c0.02-0.04,0.05-0.05,0.05-0.09c0-0.04-0.05-0.07-0.06-0.11c-0.01-0.04,0.04-0.08,0.03-0.13c-0.01-0.08-0.06-0.13-0.13-0.19 c-0.1-0.09-0.03-0.11-0.02-0.19c0-0.05-0.03-0.09-0.02-0.14c0.01-0.06,0.08-0.12,0.07-0.19c-0.01-0.05-0.07-0.06-0.08-0.1 c-0.01-0.04,0.04-0.12,0.04-0.16c0-0.04,0.03-0.07,0.01-0.12c-0.02-0.05-0.04-0.07-0.06-0.12c-0.06-0.13,0.07-0.19-0.01-0.23 c-0.04-0.02-0.09-0.02-0.45-0.04c-0.02,0-0.05,0-0.09-0.01c-0.04-0.01-0.06-0.03-0.11-0.04c-0.16-0.04-0.17-0.03-0.33,0.01 c-0.17,0.04-0.33,0.02-0.51,0.01c-0.05,0-0.08-0.01-0.13-0.01c-0.05,0-0.15,0.04-0.2,0.04c-0.12-0.01-0.19-0.08-0.32-0.08 c-0.1,0-0.18,0.03-0.27,0.03c-0.09,0.01-0.13-0.01-0.21-0.02c-0.07-0.01-0.25-0.01-0.33,0c-0.11,0.01-0.09,0.03-0.27,0.07 c-0.13,0.03-0.22,0.05-0.35,0.04c-0.08,0-0.15-0.02-0.19-0.03c-0.36,0.04-0.69,0.06-1.05-0.02c-0.34-0.08-0.35,0.11-0.66,0.08 c0,0.05,0.02,0.11,0.03,0.16c0.01,0.08-0.04,0.08-0.08,0.15c-0.04,0.08,0.08,0.13,0.1,0.2c0.01,0.04-0.03,0.07-0.02,0.11 c0.02,0.07,0.13,0.07,0.09,0.15c-0.03,0.05-0.13,0.08-0.13,0.14c0,0.05,0.06,0.09,0.06,0.14c0.01,0.06-0.06,0.11-0.06,0.17 c0,0.09,0.17,0.17,0.13,0.26c-0.02,0.05-0.08,0.06-0.07,0.12c0.01,0.05,0,0.08,0.05,0.16c0.06,0.1,0.01,0.22-0.02,0.31 C63.69,17.22,63.59,17.28,63.66,17.33z" fill="#d0e6a5"/></g><g id="change4_4"><path d="M43.21,10.35c-0.05,0.04-0.1,0.14-0.11,0.16c-0.04,0.08-0.03,0.09-0.06,0.17c-0.03,0.06-0.07,0.12-0.1,0.17 c-0.01,0.02-0.02,0.06-0.02,0.07c-0.01,0.01-0.06,0.11-0.06,0.11c-0.02,0.05-0.04,0.12-0.06,0.18c-0.03,0.08-0.07,0.15-0.1,0.23 c-0.03,0.09-0.04,0.18-0.08,0.27c-0.03,0.08-0.07,0.11-0.1,0.17c-0.05,0.1-0.07,0.22-0.14,0.31c-0.03,0.04-0.07,0.06-0.1,0.1 c-0.03,0.04-0.04,0.08-0.07,0.12c-0.11,0.15-0.1,0.17-0.16,0.35c-0.05,0.16-0.14,0.32-0.18,0.48c-0.02,0.09,0,0.19-0.03,0.28 c-0.02,0.06-0.07,0.09-0.1,0.15c-0.1,0.16-0.22,0.36-0.29,0.54c-0.15,0.04-0.28,0.45-0.32,0.63c-0.02,0.09-0.02,0.12-0.03,0.15 c-0.02,0.05-0.05,0.06-0.11,0.14c-0.06,0.08-0.09,0.13-0.1,0.17c-0.02,0.08,0.04,0.13,0.1,0.13c0.04,0,0.07-0.02,0.11,0 c0.02,0.01,0.03,0.02,0.05,0.04c0.05,0.06,0.08,0.16,0.16,0.17c0.04,0.01,0.1-0.03,0.14-0.01c0.03,0.02,0.06,0.09,0.08,0.12 c0.03,0.04,0.02,0.07,0.06,0.09c0.04,0.02,0.09-0.02,0.13-0.01c0.04,0.01,0.06,0.07,0.1,0.08c0.08,0.02,0.14-0.01,0.23-0.05 c0.12-0.05,0.11,0.02,0.18,0.06c0.05,0.02,0.09,0.01,0.14,0.04c0.05,0.04,0.08,0.12,0.15,0.13c0.04,0.01,0.08-0.04,0.12-0.03 c0.04,0.01,0.09,0.08,0.13,0.1c0.04,0.02,0.06,0.05,0.1,0.06c0.06,0,0.08-0.01,0.13-0.01c0.14-0.01,0.14,0.14,0.21,0.08 c0.03-0.03,0.05-0.08,0.21-0.4c0.01-0.02,0.02-0.05,0.04-0.08c0.02-0.03,0.05-0.04,0.08-0.09c0.09-0.13,0.1-0.15,0.12-0.31 c0.03-0.17,0.11-0.31,0.19-0.47c0.02-0.04,0.04-0.07,0.06-0.12c0.02-0.05,0.02-0.15,0.04-0.19c0.06-0.11,0.15-0.14,0.2-0.27 c0.04-0.09,0.04-0.17,0.07-0.26c0.03-0.08,0.06-0.12,0.1-0.19c0.03-0.06,0.1-0.22,0.13-0.3c0.04-0.1,0.01-0.09,0.05-0.27 c0.03-0.13,0.04-0.23,0.1-0.33c0.04-0.08,0.08-0.13,0.1-0.17c0.1-0.34,0.21-0.66,0.43-0.96c0.21-0.28,0.04-0.36,0.18-0.64 c-0.05-0.02-0.11-0.02-0.16-0.04c-0.08-0.02-0.06-0.07-0.11-0.13c-0.06-0.06-0.15,0.02-0.23,0.01c-0.04-0.01-0.06-0.06-0.09-0.06 c-0.07,0-0.12,0.09-0.17,0.03c-0.04-0.04-0.02-0.15-0.08-0.18c-0.05-0.02-0.11,0.02-0.15,0c-0.06-0.02-0.08-0.09-0.13-0.12 c-0.08-0.04-0.22,0.09-0.29,0.01c-0.04-0.04-0.02-0.1-0.08-0.12c-0.05-0.01-0.08-0.03-0.16-0.02c-0.12,0.02-0.21-0.07-0.28-0.14 C43.3,10.42,43.28,10.3,43.21,10.35z" fill="#86e3ce"/></g><g id="change2_6"><path d="M53.37,24.78c0.06,0.01,0.18-0.02,0.19-0.02c0.09-0.03,0.09-0.04,0.17-0.07c0.06-0.02,0.14-0.02,0.2-0.04 c0.02-0.01,0.06-0.03,0.07-0.03c0.01,0,0.12-0.03,0.13-0.03c0.05-0.02,0.11-0.05,0.17-0.08c0.08-0.04,0.16-0.05,0.24-0.08 c0.09-0.03,0.16-0.09,0.26-0.13c0.08-0.03,0.13-0.03,0.19-0.04c0.11-0.03,0.21-0.1,0.33-0.11c0.05,0,0.09,0.01,0.14,0.01 c0.05,0,0.09-0.02,0.14-0.03c0.19-0.02,0.19-0.04,0.37-0.12c0.15-0.07,0.33-0.11,0.48-0.19c0.08-0.04,0.14-0.13,0.23-0.16 c0.06-0.02,0.11-0.01,0.18-0.02c0.19-0.03,0.42-0.08,0.59-0.15c0.13,0.08,0.53-0.1,0.68-0.19c0.08-0.05,0.1-0.07,0.13-0.08 c0.05-0.02,0.08-0.01,0.18-0.02c0.1-0.01,0.16-0.02,0.2-0.04c0.07-0.04,0.07-0.12,0.03-0.16c-0.02-0.03-0.06-0.04-0.07-0.08 c-0.01-0.02-0.01-0.04-0.01-0.06c0.01-0.08,0.07-0.16,0.02-0.23c-0.03-0.04-0.09-0.06-0.1-0.1c-0.01-0.03,0.03-0.1,0.03-0.14 c0.01-0.05,0.04-0.06,0.02-0.1c-0.01-0.04-0.07-0.05-0.09-0.09c-0.02-0.03,0.01-0.09-0.01-0.13c-0.03-0.07-0.1-0.1-0.19-0.14 c-0.12-0.05-0.06-0.09-0.08-0.17c-0.01-0.05-0.06-0.07-0.07-0.13c-0.01-0.06,0.03-0.14,0-0.2c-0.02-0.04-0.08-0.04-0.11-0.07 c-0.02-0.03,0-0.12-0.01-0.16c-0.01-0.04,0-0.08-0.03-0.11c-0.04-0.04-0.06-0.06-0.1-0.09c-0.1-0.1,0-0.2-0.08-0.21 c-0.04-0.01-0.09,0.01-0.44,0.11c-0.02,0.01-0.05,0.02-0.09,0.02c-0.04,0-0.06-0.01-0.12,0c-0.16,0.02-0.17,0.03-0.31,0.11 c-0.15,0.09-0.3,0.13-0.48,0.18c-0.04,0.01-0.08,0.02-0.13,0.04c-0.05,0.02-0.13,0.09-0.17,0.1c-0.12,0.03-0.2-0.01-0.33,0.03 c-0.1,0.03-0.16,0.09-0.24,0.12c-0.08,0.03-0.13,0.03-0.2,0.05c-0.07,0.02-0.23,0.07-0.31,0.11c-0.1,0.04-0.07,0.05-0.23,0.15 c-0.11,0.07-0.2,0.12-0.31,0.15c-0.08,0.02-0.15,0.03-0.19,0.03c-0.32,0.15-0.63,0.29-1,0.32c-0.34,0.03-0.29,0.22-0.6,0.3 c0.02,0.05,0.06,0.1,0.08,0.14c0.04,0.07-0.01,0.09-0.02,0.17c-0.01,0.08,0.12,0.1,0.16,0.16c0.02,0.03-0.01,0.08,0.02,0.11 c0.05,0.05,0.14,0.03,0.14,0.11c-0.01,0.06-0.1,0.12-0.08,0.18c0.01,0.05,0.08,0.07,0.11,0.11c0.03,0.06-0.02,0.12,0,0.18 c0.03,0.09,0.22,0.1,0.21,0.2c-0.01,0.06-0.06,0.08-0.03,0.14c0.02,0.05,0.03,0.08,0.1,0.13c0.09,0.08,0.09,0.21,0.08,0.3 C53.36,24.67,53.28,24.76,53.37,24.78z" fill="#ccabdb"/></g><g id="change2_7"><path d="M27.67,54.89c-0.01-0.06-0.09-0.15-0.1-0.16c-0.06-0.07-0.07-0.06-0.14-0.12c-0.05-0.05-0.08-0.11-0.12-0.16 c-0.01-0.01-0.05-0.04-0.06-0.05c-0.01-0.01-0.08-0.1-0.08-0.1c-0.04-0.03-0.1-0.08-0.15-0.12c-0.07-0.06-0.12-0.12-0.18-0.18 c-0.07-0.06-0.15-0.1-0.23-0.18c-0.06-0.06-0.08-0.11-0.12-0.15c-0.07-0.09-0.18-0.15-0.24-0.24c-0.02-0.04-0.03-0.09-0.05-0.13 c-0.03-0.04-0.06-0.07-0.09-0.11c-0.1-0.16-0.12-0.15-0.27-0.28c-0.13-0.1-0.25-0.25-0.38-0.35c-0.07-0.05-0.18-0.07-0.25-0.14 c-0.05-0.05-0.06-0.1-0.1-0.15c-0.11-0.15-0.25-0.34-0.4-0.47c0.02-0.15-0.32-0.43-0.47-0.53c-0.08-0.05-0.11-0.06-0.13-0.08 c-0.04-0.04-0.04-0.07-0.09-0.15c-0.05-0.09-0.08-0.13-0.12-0.16c-0.07-0.04-0.14-0.01-0.16,0.04c-0.02,0.04-0.01,0.07-0.04,0.1 c-0.01,0.01-0.03,0.02-0.05,0.03c-0.08,0.03-0.18,0.01-0.22,0.08c-0.02,0.04-0.01,0.1-0.04,0.13c-0.03,0.02-0.11,0.02-0.14,0.03 c-0.04,0.01-0.07,0-0.1,0.03c-0.03,0.03-0.01,0.09-0.04,0.12c-0.02,0.03-0.09,0.03-0.11,0.07c-0.05,0.06-0.05,0.13-0.04,0.23 c0.01,0.13-0.06,0.09-0.12,0.15c-0.04,0.04-0.04,0.09-0.09,0.12c-0.05,0.03-0.14,0.03-0.18,0.09c-0.03,0.04,0.01,0.09-0.02,0.13 c-0.02,0.03-0.11,0.05-0.14,0.08c-0.03,0.03-0.07,0.03-0.09,0.08c-0.02,0.05-0.02,0.08-0.04,0.13c-0.05,0.14-0.18,0.08-0.16,0.17 c0.01,0.04,0.05,0.08,0.29,0.34c0.01,0.01,0.04,0.04,0.05,0.07c0.02,0.04,0.02,0.06,0.05,0.11c0.08,0.14,0.1,0.14,0.24,0.23 c0.15,0.09,0.25,0.21,0.37,0.35c0.03,0.03,0.05,0.07,0.09,0.1c0.04,0.04,0.13,0.07,0.17,0.11c0.08,0.09,0.08,0.19,0.17,0.29 c0.07,0.08,0.15,0.1,0.22,0.17c0.06,0.06,0.09,0.1,0.14,0.16c0.04,0.05,0.17,0.18,0.23,0.23c0.08,0.07,0.08,0.04,0.24,0.14 c0.11,0.07,0.19,0.12,0.27,0.21c0.06,0.06,0.09,0.12,0.12,0.16c0.28,0.22,0.54,0.44,0.73,0.76c0.18,0.29,0.32,0.17,0.53,0.41 c0.04-0.04,0.06-0.09,0.09-0.14c0.05-0.06,0.09-0.03,0.16-0.05c0.08-0.03,0.04-0.15,0.07-0.22c0.02-0.03,0.08-0.03,0.09-0.06 c0.03-0.06-0.04-0.14,0.04-0.17c0.06-0.02,0.15,0.03,0.19-0.01c0.04-0.03,0.02-0.11,0.06-0.14c0.04-0.05,0.12-0.04,0.16-0.08 c0.07-0.06,0-0.24,0.09-0.27c0.05-0.02,0.1,0.02,0.14-0.03c0.03-0.04,0.06-0.06,0.08-0.14c0.03-0.12,0.15-0.17,0.23-0.2 C27.58,54.95,27.69,54.98,27.67,54.89z" fill="#ccabdb"/></g><g id="change4_5"><path d="M26.09,75.42c-0.01-0.06-0.09-0.15-0.1-0.16c-0.06-0.07-0.07-0.06-0.14-0.12c-0.05-0.05-0.08-0.11-0.12-0.16 c-0.01-0.01-0.05-0.04-0.06-0.05c-0.01-0.01-0.08-0.1-0.08-0.1c-0.04-0.03-0.1-0.08-0.15-0.12c-0.07-0.06-0.12-0.12-0.18-0.18 c-0.07-0.06-0.15-0.1-0.23-0.18c-0.06-0.06-0.08-0.11-0.12-0.15c-0.07-0.09-0.18-0.15-0.24-0.24c-0.02-0.04-0.03-0.09-0.05-0.13 c-0.03-0.04-0.06-0.07-0.09-0.11c-0.1-0.16-0.12-0.15-0.27-0.28c-0.13-0.1-0.25-0.25-0.38-0.35c-0.07-0.05-0.18-0.07-0.25-0.14 c-0.05-0.05-0.06-0.1-0.1-0.15c-0.11-0.15-0.25-0.34-0.4-0.47c0.02-0.15-0.32-0.43-0.47-0.53c-0.08-0.05-0.11-0.06-0.13-0.08 c-0.04-0.04-0.04-0.07-0.09-0.15c-0.05-0.09-0.08-0.13-0.12-0.16c-0.07-0.04-0.14-0.01-0.16,0.04c-0.02,0.04-0.01,0.07-0.04,0.1 c-0.01,0.01-0.03,0.02-0.05,0.03c-0.08,0.03-0.18,0.01-0.22,0.08c-0.02,0.04-0.01,0.1-0.04,0.13c-0.03,0.02-0.11,0.02-0.14,0.03 c-0.04,0.01-0.07,0-0.1,0.03c-0.03,0.03-0.01,0.09-0.04,0.12c-0.02,0.03-0.09,0.03-0.11,0.07c-0.05,0.06-0.05,0.13-0.04,0.23 c0.01,0.13-0.06,0.09-0.12,0.15c-0.04,0.04-0.04,0.09-0.09,0.12c-0.05,0.03-0.14,0.03-0.18,0.09c-0.03,0.04,0.01,0.09-0.02,0.13 c-0.02,0.03-0.11,0.05-0.14,0.08c-0.03,0.03-0.07,0.03-0.09,0.08c-0.02,0.05-0.02,0.08-0.04,0.13c-0.05,0.14-0.18,0.08-0.16,0.17 c0.01,0.04,0.05,0.08,0.29,0.34c0.01,0.01,0.04,0.04,0.05,0.07c0.02,0.04,0.02,0.06,0.05,0.11c0.08,0.14,0.1,0.14,0.24,0.23 c0.15,0.09,0.25,0.21,0.37,0.35c0.03,0.03,0.05,0.07,0.09,0.1c0.04,0.04,0.13,0.07,0.17,0.11c0.08,0.09,0.08,0.19,0.17,0.29 c0.07,0.08,0.15,0.1,0.22,0.17c0.06,0.06,0.09,0.1,0.14,0.16c0.04,0.05,0.17,0.18,0.23,0.23c0.08,0.07,0.08,0.04,0.24,0.14 c0.11,0.07,0.19,0.12,0.27,0.21c0.06,0.06,0.09,0.12,0.12,0.16c0.28,0.22,0.54,0.44,0.73,0.76c0.18,0.29,0.32,0.17,0.53,0.41 c0.04-0.04,0.06-0.09,0.09-0.14c0.05-0.06,0.09-0.03,0.16-0.05c0.08-0.03,0.04-0.15,0.07-0.22c0.02-0.03,0.08-0.03,0.09-0.06 c0.03-0.06-0.04-0.14,0.04-0.17c0.06-0.02,0.15,0.03,0.19-0.01c0.04-0.03,0.02-0.11,0.06-0.14c0.04-0.05,0.12-0.04,0.16-0.08 c0.07-0.06,0-0.24,0.09-0.27c0.05-0.02,0.1,0.02,0.14-0.03c0.03-0.04,0.06-0.06,0.08-0.14c0.03-0.12,0.15-0.17,0.23-0.2 C26,75.48,26.11,75.5,26.09,75.42z" fill="#86e3ce"/></g><g id="change5_5"><path d="M11.31,56.65c0.05-0.03,0.12-0.13,0.13-0.14c0.05-0.08,0.04-0.09,0.08-0.16c0.03-0.06,0.08-0.11,0.12-0.16 c0.01-0.02,0.02-0.06,0.03-0.07c0.01-0.01,0.07-0.1,0.07-0.11c0.02-0.05,0.05-0.11,0.07-0.17c0.04-0.08,0.08-0.14,0.12-0.22 c0.04-0.08,0.06-0.17,0.11-0.27c0.04-0.07,0.08-0.11,0.12-0.16c0.06-0.1,0.09-0.21,0.17-0.3c0.03-0.03,0.07-0.05,0.11-0.09 c0.04-0.04,0.05-0.08,0.08-0.11c0.12-0.14,0.12-0.15,0.19-0.34c0.06-0.15,0.17-0.31,0.23-0.46c0.03-0.08,0.02-0.19,0.06-0.28 c0.03-0.06,0.08-0.09,0.12-0.14c0.12-0.15,0.26-0.33,0.34-0.51c0.15-0.03,0.33-0.42,0.38-0.6c0.03-0.09,0.03-0.12,0.04-0.15 c0.03-0.05,0.05-0.06,0.12-0.13c0.07-0.08,0.11-0.12,0.12-0.16c0.02-0.07-0.03-0.13-0.09-0.14c-0.04-0.01-0.07,0.01-0.11-0.01 c-0.02-0.01-0.03-0.02-0.05-0.04c-0.05-0.07-0.06-0.17-0.14-0.19c-0.04-0.01-0.1,0.02-0.14-0.01c-0.03-0.02-0.05-0.1-0.07-0.13 c-0.02-0.04-0.01-0.07-0.05-0.09c-0.04-0.02-0.09,0.01-0.13,0c-0.04-0.01-0.06-0.07-0.09-0.09c-0.07-0.03-0.14-0.01-0.23,0.02 c-0.12,0.04-0.11-0.03-0.18-0.07c-0.05-0.03-0.09-0.02-0.14-0.05c-0.05-0.04-0.07-0.13-0.13-0.15c-0.04-0.01-0.09,0.03-0.12,0.02 c-0.04-0.01-0.08-0.09-0.12-0.11c-0.03-0.02-0.05-0.06-0.1-0.07c-0.06-0.01-0.08,0-0.13,0c-0.15-0.01-0.13-0.15-0.2-0.1 c-0.04,0.02-0.06,0.07-0.25,0.38c-0.01,0.02-0.03,0.04-0.05,0.07c-0.03,0.03-0.05,0.04-0.09,0.08c-0.11,0.12-0.11,0.14-0.15,0.29 c-0.05,0.17-0.14,0.3-0.23,0.45c-0.02,0.04-0.05,0.07-0.07,0.11c-0.02,0.05-0.03,0.15-0.06,0.19c-0.07,0.11-0.16,0.13-0.23,0.24 c-0.05,0.09-0.06,0.17-0.1,0.25c-0.04,0.08-0.07,0.11-0.12,0.18c-0.04,0.06-0.12,0.21-0.16,0.28c-0.05,0.1-0.02,0.09-0.07,0.27 c-0.04,0.13-0.07,0.22-0.13,0.32c-0.04,0.07-0.09,0.12-0.12,0.15c-0.14,0.33-0.28,0.64-0.53,0.91c-0.23,0.26-0.07,0.36-0.25,0.62 c0.05,0.03,0.11,0.03,0.16,0.05c0.07,0.03,0.05,0.08,0.1,0.14c0.05,0.07,0.16-0.01,0.23,0.01c0.04,0.01,0.05,0.06,0.09,0.07 c0.07,0.01,0.13-0.07,0.17-0.01c0.04,0.05,0.01,0.15,0.06,0.18c0.04,0.03,0.11-0.01,0.15,0.01c0.06,0.02,0.07,0.1,0.12,0.13 c0.08,0.04,0.23-0.07,0.29,0.01c0.03,0.05,0.01,0.1,0.07,0.12c0.05,0.02,0.07,0.04,0.16,0.03c0.12-0.01,0.2,0.09,0.26,0.17 C11.23,56.57,11.23,56.69,11.31,56.65z" fill="#d0e6a5"/></g><g id="change3_10"><path d="M36.14,70.52c-0.01-0.98-0.16-1.92-0.49-2.78c-0.17-0.43-0.37-0.84-0.61-1.23c-0.25-0.39-0.5-0.74-0.81-0.9 c-0.31-0.18-0.64-0.16-0.95,0.15c-0.15,0.15-0.26,0.34-0.36,0.55c-0.09,0.22-0.17,0.45-0.26,0.68c-0.09,0.24-0.19,0.47-0.34,0.69 c-0.15,0.22-0.37,0.41-0.65,0.49c-0.28,0.08-0.63,0.02-0.85-0.24c-0.21-0.27-0.22-0.57-0.28-0.78c-0.1-0.46-0.27-0.89-0.52-1.21 c-0.06-0.08-0.13-0.15-0.2-0.22c-0.07-0.06-0.14-0.11-0.22-0.15c-0.16-0.08-0.34-0.14-0.51-0.14c-0.17,0-0.32,0.04-0.42,0.12 c-0.1,0.07-0.19,0.2-0.26,0.38c-0.07,0.18-0.14,0.41-0.24,0.67c-0.11,0.28-0.25,0.55-0.51,0.79c-0.13,0.12-0.29,0.23-0.48,0.3 c-0.19,0.07-0.42,0.08-0.61,0.03c-0.41-0.1-0.65-0.36-0.83-0.55c-0.18-0.2-0.31-0.38-0.44-0.5c-0.14-0.12-0.31-0.22-0.49-0.28 c-0.38-0.12-0.8-0.09-1.17,0.12c-0.37,0.21-0.67,0.59-0.79,1.06l-0.09-0.01c-0.04-0.51,0.19-1.05,0.6-1.42 c0.41-0.38,1.03-0.55,1.61-0.45c0.29,0.05,0.57,0.16,0.83,0.33c0.26,0.18,0.43,0.39,0.59,0.53c0.16,0.15,0.3,0.24,0.38,0.24 c0.08,0,0.13-0.01,0.24-0.11c0.1-0.1,0.2-0.26,0.27-0.44c0.08-0.2,0.15-0.44,0.27-0.71c0.12-0.26,0.32-0.56,0.63-0.75 c0.31-0.19,0.66-0.25,0.98-0.21c0.32,0.03,0.61,0.14,0.87,0.31c0.13,0.08,0.25,0.19,0.35,0.3c0.1,0.11,0.18,0.23,0.26,0.35 c0.29,0.5,0.37,1.04,0.4,1.54c0.02,0.26,0.01,0.49,0.09,0.62c0.07,0.13,0.28,0.21,0.47,0.17c0.19-0.03,0.37-0.18,0.5-0.36 c0.13-0.18,0.22-0.4,0.29-0.62c0.07-0.23,0.11-0.47,0.18-0.71c0.07-0.25,0.16-0.5,0.31-0.74c0.15-0.23,0.38-0.46,0.7-0.57 c0.32-0.11,0.66-0.07,0.95,0.04c0.29,0.12,0.54,0.31,0.73,0.52c0.19,0.21,0.33,0.43,0.46,0.66c0.26,0.45,0.46,0.93,0.6,1.43 c0.26,1,0.25,2.06-0.09,3.01L36.14,70.52z" fill="#fff78c"/></g><g id="change3_11"><path d="M69.71,49.46c-0.78,0.6-1.43,1.28-1.92,2.07c-0.24,0.39-0.45,0.8-0.61,1.23c-0.16,0.44-0.29,0.85-0.23,1.19 c0.05,0.36,0.26,0.61,0.69,0.67c0.21,0.03,0.43,0,0.66-0.05c0.23-0.06,0.46-0.14,0.7-0.21c0.24-0.07,0.49-0.13,0.76-0.14 c0.26-0.01,0.55,0.05,0.79,0.23c0.23,0.18,0.39,0.49,0.32,0.82c-0.09,0.33-0.32,0.52-0.46,0.69c-0.3,0.36-0.55,0.75-0.65,1.14 c-0.02,0.1-0.04,0.2-0.05,0.29c-0.01,0.09-0.01,0.18,0.01,0.27c0.03,0.18,0.09,0.35,0.19,0.49c0.1,0.14,0.22,0.23,0.35,0.26 c0.12,0.04,0.27,0.03,0.46-0.02c0.19-0.05,0.41-0.14,0.67-0.21c0.29-0.08,0.59-0.13,0.94-0.07c0.17,0.03,0.35,0.09,0.53,0.21 c0.17,0.11,0.31,0.29,0.4,0.47c0.17,0.39,0.11,0.74,0.06,0.99c-0.06,0.26-0.12,0.48-0.13,0.65c-0.01,0.18,0.01,0.38,0.08,0.56 c0.13,0.37,0.41,0.7,0.8,0.86c0.39,0.16,0.88,0.18,1.32-0.01l0.05,0.08c-0.38,0.34-0.95,0.48-1.5,0.38 c-0.55-0.1-1.06-0.49-1.33-1.01c-0.14-0.26-0.22-0.55-0.23-0.86c-0.01-0.32,0.05-0.57,0.07-0.79c0.03-0.22,0.01-0.39-0.03-0.45 c-0.04-0.07-0.09-0.1-0.23-0.12c-0.14-0.02-0.33-0.01-0.51,0.05c-0.21,0.06-0.44,0.15-0.73,0.21c-0.28,0.06-0.64,0.08-0.98-0.05 c-0.34-0.13-0.6-0.38-0.76-0.65c-0.17-0.27-0.26-0.58-0.27-0.88c-0.01-0.15,0-0.31,0.03-0.46c0.03-0.15,0.07-0.28,0.13-0.42 c0.22-0.53,0.61-0.92,0.99-1.25c0.2-0.17,0.38-0.3,0.44-0.45c0.06-0.14,0-0.35-0.15-0.48c-0.14-0.14-0.37-0.19-0.59-0.19 c-0.22,0-0.45,0.06-0.67,0.14c-0.22,0.08-0.44,0.19-0.68,0.28c-0.24,0.1-0.5,0.17-0.78,0.19c-0.28,0.02-0.6-0.03-0.88-0.21 c-0.28-0.19-0.46-0.49-0.54-0.78c-0.08-0.3-0.08-0.62-0.02-0.89c0.05-0.28,0.15-0.52,0.25-0.76c0.2-0.48,0.47-0.93,0.79-1.34 c0.64-0.81,1.5-1.44,2.46-1.74L69.71,49.46z" fill="#fff78c"/></g><g id="change5_6"><path d="M12.21,40.85c0.6-0.21,1.23-0.32,1.85-0.4c0.63-0.08,1.26-0.13,1.88-0.18c0.62-0.06,1.23-0.13,1.83-0.26 c0.59-0.13,1.17-0.32,1.68-0.6c0.51-0.28,0.96-0.67,1.29-1.13c0.34-0.45,0.55-1,0.55-1.53c0-0.52-0.21-1.06-0.57-1.46 c-0.35-0.39-0.87-0.64-1.35-0.58c-0.47,0.06-0.94,0.46-1.14,0.95c-0.1,0.24-0.14,0.51-0.09,0.76c0.05,0.24,0.2,0.46,0.41,0.62 c0.44,0.32,1.07,0.39,1.63,0.24c0.58-0.15,1.12-0.47,1.65-0.79c1.06-0.65,2.06-1.42,2.8-2.41c0.75-0.97,1.18-2.18,1.11-3.38 c-0.03-0.6-0.18-1.18-0.46-1.69c-0.28-0.5-0.68-0.95-1.17-1.19c-0.49-0.25-1.08-0.33-1.59-0.2c-0.25,0.06-0.48,0.18-0.65,0.35 c-0.17,0.17-0.29,0.38-0.33,0.61c-0.09,0.46,0.12,0.99,0.48,1.37c0.18,0.19,0.39,0.34,0.62,0.43l0.17,0.06l0.18,0.04l0.19,0.02 l0.19,0c0.52-0.03,1.03-0.26,1.46-0.61c0.43-0.35,0.76-0.8,1-1.32c0.49-1.05,0.61-2.31,1.02-3.56c0.2-0.62,0.5-1.25,0.94-1.78 c0.45-0.52,0.99-0.92,1.55-1.25c1.11-0.66,2.29-1.08,3.2-1.88c0.45-0.4,0.81-0.88,0.99-1.46c0.19-0.57,0.19-1.21-0.1-1.76l0.07-0.04 c0.18,0.26,0.3,0.58,0.34,0.9c0.05,0.32,0.02,0.65-0.05,0.97c-0.14,0.64-0.5,1.23-0.96,1.69c-0.93,0.94-2.13,1.47-3.14,2.13 c-0.51,0.33-0.97,0.71-1.32,1.16c-0.35,0.45-0.58,0.98-0.75,1.55c-0.34,1.14-0.44,2.43-0.98,3.68c-0.27,0.62-0.7,1.21-1.25,1.65 c-0.54,0.44-1.23,0.76-1.97,0.79l-0.28,0L22.9,31.3l-0.28-0.06l-0.27-0.1c-0.35-0.15-0.65-0.38-0.9-0.65 c-0.25-0.27-0.44-0.59-0.56-0.94c-0.12-0.35-0.16-0.75-0.08-1.14c0.08-0.39,0.29-0.74,0.58-1c0.29-0.27,0.65-0.43,1-0.5 c0.72-0.15,1.44,0,2.06,0.33c0.31,0.17,0.58,0.41,0.81,0.66c0.22,0.26,0.41,0.55,0.55,0.86c0.28,0.61,0.41,1.28,0.41,1.94 c0,0.66-0.12,1.31-0.36,1.91c-0.12,0.3-0.26,0.59-0.43,0.87c-0.16,0.28-0.35,0.54-0.55,0.79c-0.8,1-1.82,1.78-2.88,2.46 c-0.53,0.34-1.07,0.69-1.7,0.88c-0.62,0.2-1.37,0.2-1.99-0.19c-0.3-0.19-0.55-0.51-0.66-0.87c-0.1-0.36-0.07-0.75,0.05-1.09 c0.12-0.34,0.32-0.65,0.58-0.91c0.26-0.25,0.6-0.45,0.99-0.52c0.77-0.13,1.53,0.23,2,0.76c0.48,0.53,0.77,1.23,0.76,1.96 c-0.02,0.72-0.3,1.4-0.72,1.94c-0.42,0.54-0.96,0.97-1.56,1.27c-0.6,0.3-1.24,0.48-1.87,0.58c-0.64,0.11-1.28,0.14-1.91,0.15 c-0.63,0.02-1.26,0-1.88,0.03c-0.62,0.02-1.24,0.08-1.85,0.2L12.21,40.85z" fill="#d0e6a5"/></g><g id="change4_6"><path d="M71.72,86.14c0.34-0.03,0.68-0.01,1.02,0.03c0.34,0.04,0.67,0.09,1,0.14c0.33,0.05,0.66,0.09,0.99,0.1 c0.33,0.01,0.65-0.02,0.95-0.1c0.3-0.08,0.59-0.22,0.82-0.42c0.23-0.19,0.41-0.45,0.48-0.73c0.07-0.27,0.02-0.58-0.11-0.83 c-0.13-0.25-0.37-0.45-0.63-0.47c-0.25-0.03-0.55,0.12-0.71,0.35c-0.08,0.11-0.14,0.25-0.14,0.38c0,0.13,0.04,0.27,0.14,0.38 c0.19,0.22,0.51,0.34,0.82,0.33c0.32,0,0.64-0.1,0.96-0.2c0.63-0.2,1.26-0.48,1.77-0.9c0.52-0.41,0.9-0.98,1.01-1.62 c0.06-0.31,0.06-0.64-0.02-0.94c-0.08-0.3-0.23-0.58-0.46-0.77c-0.22-0.19-0.52-0.31-0.8-0.31c-0.14,0-0.27,0.03-0.38,0.1 c-0.11,0.06-0.2,0.16-0.25,0.27c-0.11,0.23-0.06,0.53,0.08,0.77c0.07,0.12,0.16,0.23,0.27,0.31l0.08,0.05l0.09,0.04l0.1,0.03 l0.1,0.02c0.27,0.05,0.57-0.01,0.84-0.13c0.27-0.13,0.5-0.32,0.69-0.56c0.39-0.49,0.61-1.13,0.99-1.73c0.19-0.3,0.42-0.59,0.72-0.81 c0.3-0.22,0.64-0.35,0.97-0.45c0.66-0.2,1.33-0.27,1.91-0.57c0.28-0.15,0.54-0.36,0.71-0.63c0.17-0.27,0.25-0.61,0.17-0.93 l0.04-0.01c0.06,0.16,0.08,0.34,0.06,0.51c-0.02,0.17-0.08,0.34-0.15,0.5c-0.15,0.32-0.42,0.58-0.72,0.76 c-0.61,0.37-1.3,0.49-1.91,0.71c-0.31,0.11-0.6,0.25-0.84,0.43c-0.24,0.19-0.43,0.44-0.59,0.71c-0.32,0.55-0.54,1.21-0.98,1.79 c-0.22,0.29-0.52,0.54-0.86,0.7c-0.34,0.16-0.74,0.24-1.13,0.16l-0.14-0.04l-0.14-0.05l-0.14-0.07l-0.13-0.09 c-0.16-0.12-0.29-0.28-0.39-0.45c-0.09-0.17-0.15-0.36-0.17-0.56c-0.02-0.2,0.01-0.41,0.1-0.6c0.09-0.19,0.25-0.35,0.43-0.45 c0.18-0.1,0.39-0.14,0.59-0.13c0.39,0.02,0.75,0.18,1.03,0.44c0.14,0.13,0.25,0.29,0.34,0.45c0.08,0.17,0.14,0.34,0.18,0.52 c0.07,0.36,0.05,0.72-0.04,1.06c-0.08,0.34-0.23,0.66-0.43,0.95c-0.1,0.14-0.21,0.28-0.34,0.4c-0.12,0.12-0.25,0.24-0.39,0.34 c-0.55,0.42-1.18,0.69-1.82,0.91c-0.32,0.11-0.65,0.22-1,0.24c-0.35,0.03-0.74-0.07-1.01-0.35c-0.13-0.14-0.22-0.33-0.23-0.54 c-0.01-0.2,0.06-0.4,0.16-0.56c0.11-0.16,0.25-0.3,0.42-0.4c0.17-0.1,0.37-0.16,0.58-0.14c0.42,0.03,0.77,0.31,0.95,0.65 c0.18,0.34,0.24,0.74,0.14,1.12c-0.1,0.38-0.34,0.69-0.62,0.92c-0.29,0.23-0.63,0.38-0.98,0.46c-0.35,0.08-0.71,0.09-1.05,0.06 c-0.35-0.03-0.68-0.09-1.01-0.16c-0.33-0.07-0.66-0.16-0.98-0.23c-0.33-0.07-0.66-0.12-0.99-0.13L71.72,86.14z" fill="#86e3ce"/></g></svg>