<?xml version="1.0" encoding="UTF-8"?><svg xmlns="http://www.w3.org/2000/svg" xmlns:xlink="http://www.w3.org/1999/xlink" height="74.2" preserveAspectRatio="xMidYMid meet" version="1.0" viewBox="6.9 7.4 82.2 74.2" width="82.2" zoomAndPan="magnify"><g id="change1_1"><path d="M86.58,30.09c-1.57-1.09-3.04-2.29-4.64-2.77c-0.81-0.25-1.53-0.27-2.3-0.09c-0.74,0.2-1.43,0.56-1.9,1.07 c-0.46,0.5-0.68,1.19-0.55,2.05c0.11,0.86,0.5,1.74,0.71,2.73c0.11,0.49,0.13,1,0.08,1.51c-0.05,0.51-0.24,1.05-0.63,1.47 c-0.38,0.42-0.94,0.66-1.5,0.72c-0.56,0.05-1.09-0.05-1.58-0.18c-0.49-0.13-0.97-0.31-1.39-0.46c-0.4-0.14-0.82-0.23-1.2-0.27 c-0.38-0.03-0.73,0-0.93,0.11c-0.2,0.1-0.3,0.24-0.37,0.47c-0.07,0.25-0.07,0.63-0.05,1.08c0.02,0.45,0.07,0.97-0.03,1.62 c-0.07,0.64-0.55,1.5-1.29,1.87c-0.76,0.39-1.5,0.34-2.04,0.25c-0.56-0.1-1.03-0.26-1.42-0.35c-0.38-0.08-0.77-0.14-1.16-0.15 c-0.79-0.02-1.62,0.14-2.41,0.43c-1.56,0.61-3,1.79-3.81,3.49l-0.19-0.05c0.18-1.96,1.5-3.81,3.31-4.85 c0.91-0.53,1.94-0.87,3.03-0.95c0.54-0.06,1.1-0.02,1.64,0.07c0.53,0.09,0.96,0.21,1.34,0.25c0.38,0.05,0.63,0.03,0.72-0.03 c0.1-0.07,0.16-0.1,0.24-0.38c0.07-0.28,0.08-0.71,0.09-1.2c0.02-0.49,0.03-1.07,0.26-1.72c0.24-0.65,0.82-1.29,1.51-1.51 c0.69-0.22,1.31-0.17,1.85-0.03c0.54,0.14,1.03,0.35,1.48,0.61c0.43,0.25,0.79,0.48,1.19,0.67c0.77,0.37,1.64,0.57,2.22,0.01 c0.58-0.52,0.62-1.52,0.39-2.35c-0.24-0.84-0.8-1.63-1.16-2.6c-0.17-0.49-0.31-1.04-0.27-1.64c0.03-0.59,0.23-1.2,0.57-1.69 c1.42-1.97,4.13-2.35,6.08-1.42c1.95,0.91,3.2,2.48,4.23,4.08L86.58,30.09z" fill="#ff8c9d"/></g><g id="change2_1"><path d="M55.07,26.61c0.29,0.88,1.13,1.35,1.49,2.44c0.18,0.54,0.05,1.21-0.29,1.67c-0.32,0.47-0.79,0.79-1.27,0.98 c-1.03,0.37-1.99,0.17-2.9,0.24c-0.91,0.03-1.83,0.43-2.26,1.16c-0.21,0.36-0.24,0.72-0.14,1.09c0.09,0.39,0.32,0.85,0.3,1.47 c-0.01,0.29-0.08,0.63-0.31,0.93c-0.22,0.31-0.64,0.48-0.94,0.51c-0.31,0.04-0.55,0.01-0.73,0.02c-0.17,0.01-0.33,0.05-0.49,0.11 c-0.65,0.25-1.19,0.96-1.41,1.75c-0.25,0.82-0.22,1.76-0.25,2.7l-0.1,0.01c-0.29-0.89-0.53-1.84-0.43-2.86 c0.11-1.02,0.69-2.08,1.77-2.58c0.27-0.12,0.57-0.18,0.87-0.19l0.66,0.01c0.16-0.01,0.21-0.03,0.28-0.09 c0.06-0.06,0.12-0.2,0.14-0.37c0.05-0.32-0.1-0.75-0.16-1.28c-0.08-0.54,0.14-1.17,0.49-1.55c0.72-0.79,1.74-1.03,2.66-1.15 c0.93-0.14,1.89-0.27,2.59-0.67c0.72-0.39,1.28-0.99,1.15-1.72c-0.1-0.74-0.87-1.59-0.83-2.61L55.07,26.61z" fill="#fff78c"/></g><g id="change1_2"><path d="M39.82,15.39c-0.34,1.29-1.18,2.46-2.31,3.26c-0.56,0.41-1.18,0.71-1.88,0.91c-0.35,0.1-0.75,0.14-1.16,0.06 c-0.42-0.08-0.8-0.32-1.07-0.69c-0.27-0.37-0.29-0.94-0.07-1.32c0.21-0.38,0.55-0.64,0.93-0.75c0.83-0.24,1.55,0.29,1.9,0.87 c0.75,1.18,0.34,3.01-1.08,3.6c-0.34,0.15-0.71,0.22-1.1,0.19c-0.19-0.01-0.38-0.05-0.57-0.11c-0.18-0.06-0.42-0.2-0.56-0.36 c-0.15-0.17-0.29-0.36-0.32-0.67c-0.05-0.32,0.2-0.73,0.53-0.82c0.35-0.11,0.61-0.01,0.8,0.06c0.21,0.09,0.34,0.18,0.49,0.26 c0.57,0.34,1.25,0.81,1.56,1.62c0.15,0.39,0.2,0.86,0.04,1.31c-0.15,0.44-0.49,0.8-0.83,1.01c-0.69,0.4-1.37,0.51-1.91,0.72 c-0.55,0.19-1.07,0.52-1.51,0.93c-0.9,0.81-1.54,1.95-1.72,3.24l-0.1,0c-0.15-1.33,0.34-2.74,1.26-3.79 c0.47-0.52,1.04-0.97,1.69-1.27c0.65-0.31,1.29-0.43,1.71-0.73c0.85-0.47,0.4-1.63-0.69-2.24c-0.26-0.2-0.55-0.3-0.51-0.29 c0.01,0,0.05-0.08,0.03-0.07c-0.01,0.02,0.02,0.13,0.08,0.2c0.07,0.09,0.11,0.13,0.24,0.19c0.12,0.06,0.24,0.1,0.37,0.13 c0.27,0.05,0.55,0.04,0.83-0.03c0.55-0.15,1.03-0.58,1.22-1.17c0.2-0.57,0.13-1.25-0.22-1.74c-0.33-0.5-1-0.77-1.44-0.53 c-0.23,0.11-0.42,0.32-0.49,0.53c-0.07,0.22-0.02,0.38,0.11,0.54c0.56,0.7,1.99,0.14,3-0.44c1.06-0.63,1.97-1.53,2.64-2.65 L39.82,15.39z" fill="#ff8c9d"/></g><g id="change3_1"><path d="M41.34,33.75c-0.49,2.98-3.37,5.54-6.41,5.89c-0.67,0.1-1.13,0.19-1.43,0.57c-0.14,0.19-0.19,0.37-0.11,0.59 c0.08,0.21,0.33,0.42,0.62,0.61c0.3,0.18,0.63,0.35,0.96,0.6c0.33,0.25,0.61,0.66,0.65,1.14c0.03,0.97-0.6,1.67-1.24,2.17 c-0.74,0.52-1.44,0.72-2,1.03c-0.58,0.3-0.86,0.59-0.92,0.95c-0.08,0.35,0.03,0.9,0.24,1.57c0.19,0.66,0.46,1.44,0.42,2.41 c-0.04,1.01-0.54,1.91-1.1,2.52c-0.57,0.64-1.2,1.1-1.83,1.5c-1.29,0.81-2.7,1.39-4.18,1.6l-0.07-0.19c1.2-0.84,2.3-1.7,3.28-2.66 c1-0.95,1.82-1.99,1.77-2.86c0.01-0.47-0.16-1.09-0.31-1.82c-0.14-0.71-0.37-1.63-0.01-2.67c0.18-0.5,0.51-0.96,0.92-1.26 c0.4-0.3,0.82-0.49,1.22-0.6c0.77-0.24,1.52-0.26,2.03-0.47c0.55-0.22,1.1-0.69,1.12-1.2c0.04-0.54-0.57-0.9-1.24-1.2 c-0.33-0.16-0.72-0.34-1.02-0.75c-0.31-0.39-0.36-1.01-0.19-1.47c0.16-0.47,0.46-0.87,0.87-1.16c0.38-0.28,0.79-0.44,1.16-0.57 c0.74-0.23,1.27-0.41,1.89-0.65c0.6-0.25,1.17-0.56,1.72-0.92c1.11-0.72,2.09-1.65,3.02-2.79L41.34,33.75z" fill="#86e3ce"/></g><g id="change4_1"><path d="M22.3,46.07c-1.95,1.6-2.89,4.02-2.7,6.37c0.02,0.6,0.15,1.15,0.34,1.77c0.09,0.31,0.17,0.63,0.21,0.97 c0.04,0.33,0.05,0.69-0.11,1.03c-0.15,0.35-0.53,0.55-0.87,0.6c-0.34,0.05-0.66,0-0.94,0.06c-0.56,0.1-1,0.6-1.1,1.1 c-0.1,0.51,0.16,1.05,0.54,1.33c0.18,0.13,0.46,0.23,0.76,0.36c0.29,0.13,0.69,0.29,0.96,0.75c0.27,0.45,0.14,1.09-0.16,1.42 c-0.27,0.35-0.71,0.57-1.09,0.64c-0.38,0.09-0.72,0.08-1.02,0.1c-0.29,0.01-0.55,0.05-0.82,0.12c-1.07,0.26-2.09,0.94-2.68,1.93 c-0.61,0.98-0.82,2.24-0.56,3.46l-0.09,0.03c-0.59-1.15-0.62-2.61-0.04-3.86c0.58-1.25,1.74-2.23,3.1-2.6 c0.68-0.2,1.45-0.14,1.9-0.21c0.46-0.05,0.74-0.43,0.62-0.6c-0.03-0.11-0.24-0.25-0.51-0.39c-0.26-0.15-0.58-0.28-0.89-0.55 c-0.59-0.53-0.79-1.37-0.56-2.08c0.24-0.71,0.88-1.19,1.57-1.29c0.35-0.04,0.66,0,0.95-0.03c0.28-0.03,0.52-0.19,0.62-0.43 c0.31-1.1-0.83-2.17-0.97-3.53c-0.43-2.66,1.08-5.54,3.48-6.55L22.3,46.07z" fill="#d0e6a5"/></g><g id="change5_1"><path d="M77.17,43.98c-0.83-0.14-1.57,0.27-2.13,0.8c-0.59,0.54-0.94,1.23-1.26,1.99c-0.32,0.75-0.61,1.55-1.09,2.31 c-0.46,0.78-1.2,1.42-2.02,1.79c-1.68,0.73-3.45,0.6-5.11,0.4c-1.66-0.21-3.32-0.5-4.95-0.34c-1.63,0.14-3.08,0.85-4.29,1.88 c-1.23,1.03-2.23,2.34-3.3,3.62c-1.06,1.29-2.29,2.54-3.75,3.48c-1.44,0.92-3.28,1.48-4.94,1.01l0.02-0.1 c1.68,0.12,3.21-0.59,4.48-1.56c1.29-0.98,2.34-2.22,3.37-3.51c1.05-1.29,2.16-2.6,3.54-3.67c1.35-1.09,3.13-1.77,4.86-1.7 c1.72,0.02,3.36,0.42,5.01,0.57c1.64,0.13,3.35-0.07,4.7-0.82c0.67-0.38,1.23-0.88,1.65-1.53c0.43-0.65,0.74-1.41,1.14-2.17 c0.37-0.76,0.91-1.53,1.62-2.06c0.69-0.54,1.68-0.84,2.5-0.5L77.17,43.98z" fill="#ccabdb"/></g><g id="change3_2"><path d="M58.64,63.32c-0.81-0.22-1.62-0.45-2.42-0.52c-0.8-0.09-1.58,0.07-2.2,0.46c-0.64,0.39-0.98,0.99-1,1.74 c-0.04,0.75,0.12,1.58,0.09,2.48c-0.02,0.45-0.11,0.94-0.37,1.37c-0.25,0.43-0.66,0.77-1.12,0.91c-0.93,0.28-1.84,0.02-2.61-0.35 c-0.77-0.39-1.45-0.89-2.19-1.22c-0.73-0.36-1.56-0.4-2.32-0.22c-1.53,0.38-2.79,1.61-3.03,3.08c-0.16,0.76-0.13,1.65-0.55,2.58 c-0.22,0.46-0.62,0.89-1.12,1.11c-0.5,0.23-1.03,0.27-1.5,0.22c-0.97-0.11-1.79-0.56-2.5-0.9c-0.73-0.36-1.43-0.53-2.19-0.42 c-1.52,0.22-2.89,1.32-4.17,2.37l-0.07-0.07c1.07-1.27,2.28-2.6,4.1-3.07c0.9-0.22,1.91-0.03,2.7,0.31 c0.82,0.32,1.51,0.69,2.23,0.73c0.72,0.07,1.29-0.16,1.59-0.74c0.32-0.59,0.37-1.44,0.56-2.3c0.38-1.88,2.1-3.21,3.85-3.43 c0.88-0.14,1.8,0.06,2.57,0.44c0.77,0.38,1.43,0.91,2.18,1.25c0.72,0.33,1.6,0.44,2.26,0.13c0.67-0.31,0.92-1.02,0.86-1.78 c-0.02-0.77-0.21-1.61-0.14-2.53c0.04-0.46,0.16-0.95,0.43-1.38c0.27-0.42,0.66-0.75,1.07-0.97c0.84-0.45,1.81-0.49,2.67-0.31 c0.86,0.18,1.63,0.56,2.38,0.94L58.64,63.32z" fill="#86e3ce"/></g><g id="change4_2"><path d="M81,71.98c-0.22,0.82-1.09,1.39-1.94,1.53c-0.85,0.19-1.81-0.01-2.55-0.33c-0.77-0.31-1.42-0.72-2.04-1.03 c-0.63-0.32-1.15-0.53-1.75-0.63c-0.58-0.1-1.13-0.07-1.58,0.27c-0.47,0.35-0.75,1.09-1.13,1.79c-0.37,0.73-1.05,1.33-1.81,1.64 c-0.76,0.32-1.61,0.44-2.46,0.32c-0.84-0.12-1.65-0.42-2.35-0.86c-0.71-0.41-1.34-1.02-1.85-1.43c-0.54-0.43-0.92-0.58-1.38-0.55 c-0.47,0.03-1.03,0.22-1.56,0.55c-1.08,0.57-2.24,1.87-4.02,2.33c-1.71,0.45-3.53-0.07-4.63-1.21l0.11-0.17 c1.4,0.54,2.87,0.43,4-0.11c1.12-0.53,1.96-1.68,3.43-2.67c0.74-0.44,1.63-0.83,2.67-0.81c0.51,0.02,1.06,0.15,1.52,0.39 c0.46,0.24,0.81,0.55,1.11,0.84c0.6,0.6,1.01,1.09,1.53,1.54c0.51,0.45,1.05,0.85,1.67,1.09c1.19,0.52,2.93,0.14,3.43-1.18 c0.29-0.64,0.35-1.43,0.88-2.23c0.55-0.82,1.6-1.22,2.5-1.21c0.91-0.02,1.82,0.32,2.5,0.73c0.7,0.4,1.3,0.84,1.88,1.19 c0.59,0.36,1.13,0.59,1.79,0.66c0.64,0.05,1.31-0.04,1.84-0.57L81,71.98z" fill="#d0e6a5"/></g><g id="change2_2"><path d="M84.98,54.78c-0.53,0.93-1.38,1.74-2.45,2.15c-1.06,0.42-2.35,0.39-3.38-0.2c-0.26-0.15-0.49-0.34-0.69-0.55 c-0.23-0.22-0.39-0.5-0.48-0.81c-0.09-0.29-0.07-0.74,0.25-0.97c0.3-0.24,0.64-0.2,0.92-0.13c1.17,0.33,1.67,1.83,1.05,2.87 c-0.28,0.52-0.71,0.96-1.25,1.23c-0.52,0.27-1.1,0.41-1.66,0.46c-0.57,0.05-1.1,0.05-1.68-0.01c-0.57-0.04-1.23-0.32-1.63-0.65 c-0.48-0.35-0.84-0.62-1.26-0.82c-0.42-0.21-0.88-0.35-1.34-0.38c-0.91-0.08-1.93,0.29-2.53,1.15l-0.09-0.04 c0.32-1.07,1.44-1.83,2.62-1.89c0.59-0.03,1.18,0.07,1.72,0.27c0.56,0.19,1.05,0.55,1.43,0.8c0.42,0.33,0.76,0.45,1.24,0.54 c0.46,0.08,0.98,0.11,1.47,0.1c0.97-0.02,1.92-0.28,2.5-1.04c0.27-0.37,0.43-0.85,0.29-1.31c-0.12-0.45-0.49-0.87-0.95-0.96 c-0.22-0.05-0.47-0.01-0.57,0.12c-0.1,0.12-0.09,0.3,0.01,0.49c0.09,0.19,0.24,0.35,0.41,0.47c0.19,0.14,0.4,0.24,0.61,0.34 c0.85,0.37,1.83,0.45,2.75,0.21c0.93-0.25,1.82-0.78,2.61-1.47L84.98,54.78z" fill="#fff78c"/></g><g id="change2_3"><path d="M21.62,13.2c-0.82,0.17-1.5,0.71-1.88,1.38c-0.4,0.67-0.4,1.47-0.12,2.16c0.14,0.34,0.35,0.65,0.61,0.9 c0.26,0.26,0.55,0.41,0.95,0.58c0.38,0.17,0.88,0.38,1.21,0.89c0.34,0.5,0.3,1.13,0.12,1.6c-0.18,0.48-0.52,0.88-0.92,1.16 c-0.39,0.27-0.82,0.44-1.23,0.57c-0.83,0.26-1.62,0.45-2.26,0.99c-0.63,0.5-1.13,1.27-1.02,2.04c0.09,0.8,0.81,1.29,1.52,1.67 c0.72,0.4,1.59,0.67,2.23,1.5c0.31,0.41,0.46,0.96,0.4,1.49c-0.05,0.53-0.31,1-0.59,1.37c-0.56,0.76-1.38,1.29-2.03,1.75 c-0.65,0.48-1.26,1.01-1.46,1.61c-0.24,0.59,0.06,1.23,0.49,1.95c0.45,0.7,0.88,1.65,0.88,2.58c0.05,1.84-1.03,3.66-2.68,4.3 l-0.04-0.09c1.43-0.91,2.12-2.63,1.94-4.16c-0.08-0.79-0.41-1.42-0.91-2.12c-0.24-0.35-0.5-0.74-0.66-1.23 c-0.18-0.48-0.2-1.06-0.03-1.57c0.37-1.03,1.16-1.63,1.87-2.13c0.37-0.25,0.73-0.46,1.04-0.69c0.32-0.23,0.61-0.5,0.85-0.78 c0.48-0.57,0.65-1.25,0.27-1.84c-0.37-0.58-1.14-1-1.85-1.48c-0.36-0.24-0.73-0.5-1.03-0.85c-0.3-0.35-0.52-0.79-0.56-1.25 c-0.08-0.96,0.52-1.76,1.16-2.33c0.65-0.6,1.52-0.93,2.27-1.27c0.76-0.34,1.4-0.81,1.57-1.48c0.2-0.7-0.11-1.07-0.91-1.41 c-0.38-0.17-0.85-0.42-1.18-0.78c-0.34-0.35-0.59-0.78-0.74-1.23c-0.32-0.91-0.15-1.97,0.41-2.71c0.55-0.74,1.44-1.21,2.31-1.19 L21.62,13.2z" fill="#fff78c"/></g><g id="change1_3"><path d="M36.06,63.4c-0.46,0.79-1.13,1.49-1.94,1.98c-0.81,0.48-1.73,0.84-2.69,0.91c-0.48,0.03-0.96,0.04-1.46-0.05 c-0.49-0.1-1.04-0.3-1.43-0.8c-0.35-0.45-0.54-1.18-0.11-1.8c0.22-0.29,0.54-0.45,0.87-0.49c0.32-0.05,0.74,0.06,0.98,0.38 l0.03,0.04l0.01,0.01c0.67,1.27,0.68,2.77,0.18,4.02c-0.49,1.27-1.53,2.28-2.79,2.76c-0.63,0.24-1.31,0.38-2,0.34 c-0.66-0.04-1.49-0.21-1.93-0.99c-0.19-0.38-0.23-0.83-0.04-1.26c0.18-0.45,0.74-0.75,1.2-0.68c0.46,0.05,0.86,0.28,1.13,0.62 c0.26,0.33,0.4,0.7,0.5,1.03c0.15,0.65,0.41,1.3,0.21,2.18c-0.11,0.43-0.42,0.84-0.83,1.07c-0.41,0.22-0.84,0.26-1.21,0.25 c-0.74-0.02-1.41-0.25-1.98-0.34c-0.58-0.11-1.18-0.11-1.78-0.03c-2.38,0.31-4.66,1.99-5.54,4.43l-0.1-0.02 c0.4-2.65,2.77-4.83,5.48-5.35c0.68-0.15,1.4-0.16,2.09-0.05c0.71,0.09,1.29,0.28,1.85,0.3c0.56,0.02,0.89-0.15,1.02-0.53 c0.14-0.4-0.01-1.05-0.14-1.65c-0.13-0.59-0.4-0.99-0.81-1.06c-0.18-0.03-0.31,0.03-0.4,0.18c-0.09,0.16-0.1,0.42-0.03,0.62 c0.16,0.42,0.75,0.71,1.34,0.78c0.6,0.08,1.24,0.04,1.83-0.17c1.18-0.39,2.21-1.34,2.55-2.55c0.35-1.19,0.14-2.52-0.51-3.49 l0.03,0.05c-0.06-0.1-0.43-0.05-0.52,0.13c-0.12,0.14-0.08,0.48,0.11,0.73c0.36,0.51,1.31,0.61,2.13,0.6 c1.7-0.04,3.39-0.82,4.6-2.16L36.06,63.4z" fill="#ff8c9d"/></g><g id="change1_4"><path d="M67.14,27.59c-0.24-0.03-0.32-0.33-0.13-0.48c0.39-0.29,0.83-0.73,1.16-1.37c0.3-0.59,0.41-1.16,0.44-1.61 c0.01-0.24,0.31-0.34,0.47-0.16c0.31,0.35,0.74,0.75,1.34,1.07c0.63,0.33,1.24,0.47,1.71,0.51c0.24,0.02,0.33,0.31,0.15,0.47 c-0.35,0.3-0.75,0.73-1.08,1.32c-0.36,0.65-0.52,1.28-0.58,1.78c-0.03,0.24-0.33,0.32-0.47,0.13c-0.3-0.37-0.75-0.81-1.39-1.15 C68.16,27.78,67.59,27.64,67.14,27.59z" fill="#ff8c9d"/></g><g id="change4_3"><path d="M7.05,38.91c-0.15-0.19,0.01-0.46,0.25-0.43c0.48,0.07,1.1,0.08,1.79-0.12c0.63-0.19,1.12-0.51,1.46-0.81 c0.18-0.16,0.46-0.02,0.44,0.22c-0.04,0.47-0.02,1.05,0.17,1.7c0.2,0.68,0.53,1.21,0.82,1.58c0.15,0.19,0,0.45-0.23,0.43 c-0.46-0.04-1.05-0.03-1.7,0.15c-0.72,0.19-1.28,0.52-1.68,0.82c-0.19,0.14-0.45-0.01-0.43-0.25c0.06-0.48,0.06-1.1-0.14-1.8 C7.62,39.78,7.33,39.28,7.05,38.91z" fill="#d0e6a5"/></g><g id="change2_4"><path d="M38.78,53.27c-0.15-0.19,0.01-0.46,0.25-0.43c0.48,0.07,1.1,0.08,1.79-0.12c0.63-0.19,1.12-0.51,1.46-0.81 c0.18-0.16,0.46-0.02,0.44,0.22c-0.04,0.47-0.02,1.05,0.17,1.7c0.2,0.68,0.53,1.21,0.82,1.58c0.15,0.19,0,0.45-0.23,0.43 c-0.46-0.04-1.05-0.03-1.7,0.15c-0.72,0.19-1.28,0.52-1.68,0.82c-0.19,0.14-0.45-0.01-0.43-0.25c0.06-0.48,0.06-1.1-0.14-1.8 C39.35,54.13,39.06,53.64,38.78,53.27z" fill="#fff78c"/></g><g id="change5_2"><path d="M38.23,63.88c-0.15-0.19,0.01-0.46,0.25-0.43c0.48,0.07,1.1,0.08,1.79-0.12c0.63-0.19,1.12-0.51,1.46-0.81 c0.18-0.16,0.46-0.02,0.44,0.22c-0.04,0.47-0.02,1.05,0.17,1.7c0.2,0.68,0.53,1.21,0.82,1.58c0.15,0.19,0,0.45-0.23,0.43 c-0.46-0.04-1.05-0.03-1.7,0.15c-0.72,0.19-1.28,0.52-1.68,0.82c-0.19,0.14-0.45-0.01-0.43-0.25c0.06-0.48,0.06-1.1-0.14-1.8 C38.81,64.74,38.51,64.24,38.23,63.88z" fill="#ccabdb"/></g><g id="change1_5"><path d="M61.48,55.74c-0.15-0.19,0.01-0.46,0.25-0.43c0.48,0.07,1.1,0.08,1.79-0.12c0.63-0.19,1.12-0.51,1.46-0.81 c0.18-0.16,0.46-0.02,0.44,0.22c-0.04,0.47-0.02,1.05,0.17,1.7c0.2,0.68,0.53,1.21,0.82,1.58c0.15,0.19,0,0.45-0.23,0.43 c-0.46-0.04-1.05-0.03-1.7,0.15c-0.72,0.19-1.28,0.52-1.68,0.82c-0.19,0.14-0.45-0.01-0.43-0.25c0.06-0.48,0.06-1.1-0.14-1.8 C62.06,56.6,61.76,56.1,61.48,55.74z" fill="#ff8c9d"/></g><g id="change3_3"><path d="M80.13,42.27c-0.15-0.19,0.01-0.46,0.25-0.43c0.48,0.07,1.1,0.08,1.79-0.12c0.63-0.19,1.12-0.51,1.46-0.81 c0.18-0.16,0.46-0.02,0.44,0.22c-0.04,0.47-0.02,1.05,0.17,1.7c0.2,0.68,0.53,1.21,0.82,1.58c0.15,0.19,0,0.45-0.23,0.43 c-0.46-0.04-1.05-0.03-1.7,0.15c-0.72,0.19-1.28,0.52-1.68,0.82c-0.19,0.14-0.45-0.01-0.43-0.25c0.06-0.48,0.06-1.1-0.14-1.8 C80.7,43.13,80.41,42.64,80.13,42.27z" fill="#86e3ce"/></g><g id="change2_5"><path d="M40.95,77.59c-0.15-0.19,0.01-0.46,0.25-0.43c0.48,0.07,1.1,0.08,1.79-0.12c0.63-0.19,1.12-0.51,1.46-0.81 c0.18-0.16,0.46-0.02,0.44,0.22c-0.04,0.47-0.02,1.05,0.17,1.7c0.2,0.68,0.53,1.21,0.82,1.58c0.15,0.19,0,0.45-0.23,0.43 c-0.46-0.04-1.05-0.03-1.7,0.15c-0.72,0.19-1.28,0.52-1.68,0.82c-0.19,0.14-0.45-0.01-0.43-0.25c0.06-0.48,0.06-1.1-0.14-1.8 C41.52,78.46,41.23,77.96,40.95,77.59z" fill="#fff78c"/></g><g id="change4_4"><path d="M38.78,24.74c-0.15-0.19,0.01-0.46,0.25-0.43c0.48,0.07,1.1,0.08,1.79-0.12c0.63-0.19,1.12-0.51,1.46-0.81 c0.18-0.16,0.46-0.02,0.44,0.22c-0.04,0.47-0.02,1.05,0.17,1.7c0.2,0.68,0.53,1.21,0.82,1.58c0.15,0.19,0,0.45-0.23,0.43 c-0.46-0.04-1.05-0.03-1.7,0.15c-0.72,0.19-1.28,0.52-1.68,0.82c-0.19,0.14-0.45-0.01-0.43-0.25c0.06-0.48,0.06-1.1-0.14-1.8 C39.35,25.61,39.06,25.11,38.78,24.74z" fill="#d0e6a5"/></g><g id="change1_6"><path d="M25.07,8.89c-0.15-0.19,0.01-0.46,0.25-0.43c0.48,0.07,1.1,0.08,1.79-0.12c0.63-0.19,1.12-0.51,1.46-0.81 c0.18-0.16,0.46-0.02,0.44,0.22c-0.04,0.47-0.02,1.05,0.17,1.7c0.2,0.68,0.53,1.21,0.82,1.58c0.15,0.19,0,0.45-0.23,0.43 c-0.46-0.04-1.05-0.03-1.7,0.15c-0.72,0.19-1.28,0.52-1.68,0.82c-0.19,0.14-0.45-0.01-0.43-0.25c0.06-0.48,0.06-1.1-0.14-1.8 C25.64,9.75,25.35,9.25,25.07,8.89z" fill="#ff8c9d"/></g><g id="change1_7"><path d="M26.09,37.62c-0.12-0.15,0.01-0.37,0.2-0.34c0.39,0.06,0.89,0.07,1.44-0.1c0.51-0.16,0.9-0.41,1.17-0.65 c0.15-0.13,0.37-0.01,0.36,0.18c-0.03,0.37-0.02,0.85,0.14,1.37c0.16,0.55,0.42,0.97,0.66,1.27c0.12,0.15,0,0.37-0.19,0.35 c-0.37-0.03-0.84-0.02-1.36,0.12c-0.58,0.16-1.03,0.42-1.35,0.66c-0.15,0.11-0.37-0.01-0.34-0.2c0.05-0.38,0.05-0.89-0.11-1.44 C26.55,38.32,26.32,37.92,26.09,37.62z" fill="#ff8c9d"/></g><g id="change1_8"><path d="M9.33,59.45c-0.12-0.15,0.01-0.37,0.2-0.34c0.39,0.06,0.89,0.07,1.44-0.1c0.51-0.16,0.9-0.41,1.17-0.65 c0.15-0.13,0.37-0.01,0.36,0.18c-0.03,0.37-0.02,0.85,0.14,1.37c0.16,0.55,0.42,0.97,0.66,1.27c0.12,0.15,0,0.37-0.19,0.35 c-0.37-0.03-0.84-0.02-1.36,0.12c-0.58,0.16-1.03,0.42-1.35,0.66c-0.15,0.11-0.37-0.01-0.34-0.2c0.05-0.38,0.05-0.89-0.11-1.44 C9.79,60.15,9.56,59.75,9.33,59.45z" fill="#ff8c9d"/></g><g id="change1_9"><path d="M51.84,39.92c-0.15-0.19,0.01-0.46,0.25-0.43c0.48,0.07,1.1,0.08,1.79-0.12c0.63-0.19,1.12-0.51,1.46-0.81 c0.18-0.16,0.46-0.02,0.44,0.22c-0.04,0.47-0.02,1.05,0.17,1.7c0.2,0.68,0.53,1.21,0.82,1.58c0.15,0.19,0,0.45-0.23,0.43 c-0.46-0.04-1.05-0.03-1.7,0.15c-0.72,0.19-1.28,0.52-1.68,0.82c-0.19,0.14-0.45-0.01-0.43-0.25c0.06-0.48,0.06-1.1-0.14-1.8 C52.41,40.79,52.12,40.29,51.84,39.92z" fill="#ff8c9d"/></g><g id="change5_3"><path d="M53.03,49.13c0.02,0.02,0.04,0.04,0.02,0.05c-0.02,0.01-0.06,0.01-0.08,0.01c-0.01,0-0.03,0-0.04,0 c-0.02,0-0.04,0-0.05,0.01c-0.01,0-0.01,0.01-0.02,0.01c0,0.01,0,0.01,0,0.02c0,0.02,0,0.03-0.01,0.05 c-0.01,0.01-0.02,0.03-0.03,0.04c-0.01,0-0.01,0.01-0.02,0.01c-0.01,0.01-0.01,0.03-0.01,0.05c0,0,0,0.01,0,0.01 c0,0.01,0.01,0.01,0.02,0.01c0,0,0,0.01,0,0.01c0,0.02-0.02,0.04-0.04,0.05c0,0-0.01,0-0.01,0c-0.01,0-0.02,0-0.02-0.01 c-0.01,0-0.03,0-0.03,0.01c0,0-0.01,0.01-0.01,0.01c0,0-0.01,0.01-0.02,0.01c0,0-0.01,0-0.01-0.01c-0.01,0-0.02,0.01-0.02,0.01 c0,0.01,0,0.02-0.01,0.02c0,0-0.01,0-0.01,0.01c-0.03,0.02-0.01,0.06-0.03,0.08c-0.02,0.03-0.07,0.02-0.09,0.04 c-0.02,0.01-0.03,0.05-0.06,0.05c-0.03,0.01-0.08-0.02-0.08,0.03c0,0.01,0.01,0.03,0.01,0.04c0.01,0.01,0.01,0.02,0.01,0.03 c0,0.01,0,0.01-0.01,0.02c-0.01,0.02-0.01,0.04-0.01,0.05c0,0.01,0,0.02,0,0.02c0,0,0,0.01,0,0.01c0,0.01,0,0.01-0.01,0.02 c0,0-0.01,0.01-0.02,0.01c-0.01,0-0.02,0-0.03,0c0,0-0.01,0-0.01,0c-0.01,0-0.01,0.01-0.01,0.01c-0.01,0.01-0.02-0.01-0.03-0.01 c-0.01-0.01-0.03-0.01-0.05-0.01c-0.01,0-0.01,0-0.02,0.01c-0.01,0-0.01,0-0.02,0c-0.01,0-0.03,0.01-0.04,0.01 c-0.01,0.01-0.01,0.02-0.01,0.03c0,0.02-0.02,0.02-0.03,0.03c-0.02,0.01-0.02,0.03-0.03,0.05c-0.01,0.01-0.02,0.03-0.04,0.04 c-0.03,0.02-0.06,0.04-0.09,0.06c-0.03,0.03-0.04,0.07-0.04,0.11c0,0.02,0.01,0.04,0.01,0.06c0,0.02-0.01,0.03-0.02,0.05 c-0.01,0.02-0.02,0.04-0.03,0.06c-0.01,0.04,0.01,0.08,0.04,0.11c-0.03,0.03-0.09,0.03-0.14,0.02c-0.01,0.02-0.01,0.04-0.01,0.07 c0.01,0.02,0.03,0.04,0.02,0.06c-0.01,0.02-0.05,0.03-0.05,0.05c0,0.02,0.03,0.03,0.04,0.05c0,0.01,0,0.02,0,0.03 c-0.01,0.02-0.01,0.04-0.02,0.06c-0.01,0.03-0.01,0.03-0.03,0.03c-0.04-0.01-0.09-0.04-0.13-0.05c-0.09-0.04-0.17-0.07-0.26-0.11 c-0.17-0.08-0.34-0.16-0.5-0.25c-0.33-0.18-0.64-0.38-0.93-0.6c-0.11-0.09-0.22-0.17-0.33-0.27c-0.56-0.48-1.67-1.67-1.66-2.59 c0-0.09,0.01-0.18,0.03-0.27c0.02-0.06,0.04-0.12,0.07-0.17c0.02-0.03,0.03-0.06,0.06-0.08c0.01-0.01,0.02-0.02,0.02-0.03 c0-0.01,0-0.02,0.01-0.03c0.01-0.01,0.03-0.01,0.04-0.01c0.02-0.01,0.03-0.04,0.05-0.05c0.02-0.01,0.04,0,0.06-0.01 c0.04-0.01,0.06-0.04,0.1-0.05c0.04-0.01,0.09,0.01,0.14,0c0.01-0.02,0.02-0.04,0.02-0.06c-0.01,0-0.02-0.02-0.02-0.03 c0-0.01,0.01-0.02,0.02-0.03s0.02-0.02,0.02-0.03c0-0.01-0.01-0.02-0.02-0.03s-0.01-0.03,0-0.03c0,0,0.01,0,0.01-0.01 c0.03-0.01,0.07-0.03,0.1-0.04c0.02-0.01,0.04-0.02,0.06-0.02c0.02,0,0.05,0,0.06-0.02c0.02-0.01,0.02-0.04,0.02-0.06 c0-0.02,0.01-0.04,0.03-0.05c0.01,0,0.02,0,0.02,0c0.01,0,0.01-0.01,0.02-0.02c0.01-0.02,0.02-0.04,0.02-0.06 c0-0.01,0-0.01,0.01-0.02c0,0,0.01-0.01,0.02-0.01c0.02-0.01,0.05-0.02,0.07-0.03c0.01,0,0.01-0.01,0.02-0.01 c0.01-0.01,0-0.03,0-0.04c0-0.03,0.05-0.04,0.06-0.07c0.01-0.02,0-0.05,0.02-0.07c0.01-0.01,0.01-0.01,0.02-0.01 c0.03-0.03-0.02-0.07,0.03-0.09c0.04-0.01,0.09-0.03,0.09-0.07c0-0.01,0-0.02,0.01-0.02c0,0,0.01,0,0.01,0c0.03,0,0.06,0,0.08-0.02 c0.01-0.01,0.02-0.02,0.03-0.03c0.01-0.02,0.03-0.03,0.05-0.04c0,0,0.01,0,0.01,0c0,0,0.01,0,0.01,0c0.02,0.01,0.04,0.03,0.07,0.04 s0.05,0.02,0.07,0.01c0,0,0.01,0,0.01-0.01c0,0,0-0.01,0-0.01c0.01-0.03,0.03-0.06,0.05-0.08c0.01-0.01,0.01-0.02,0.02-0.02 c0.01,0,0.02,0,0.03-0.01c0.02,0,0.03-0.01,0.04-0.02c0.01-0.01,0.01-0.02,0.02-0.02c0.01,0,0.01,0,0.02,0c0.02,0,0.04,0,0.05,0 c0.01,0,0.02-0.01,0.04-0.02c0.02-0.01,0.05,0,0.07,0c0.02,0,0.04,0,0.07,0c0.01,0,0.09-0.01,0.09,0c0.12,0.32,0.63,1.63,0.99,2.14 c0.02,0.02,0.03,0.04,0.05,0.07c0.21,0.29,0.45,0.56,0.71,0.82c0.22,0.21,0.45,0.41,0.69,0.59c0.1,0.08,0.2,0.15,0.31,0.22 c0.05,0.03,0.09,0.06,0.14,0.09C52.93,49.08,52.99,49.11,53.03,49.13z" fill="#ccabdb"/></g><g id="change3_4"><path d="M81.03,62.01c0.03-0.01,0.05-0.02,0.05,0c0.01,0.02-0.02,0.06-0.03,0.08c-0.01,0.01-0.01,0.02-0.02,0.04 c-0.01,0.02-0.01,0.03-0.01,0.05c0,0.01,0,0.02,0,0.02c0,0,0.01,0,0.02,0.01c0.02,0,0.03,0.01,0.04,0.03s0.01,0.03,0.02,0.05 c0,0.01,0,0.01,0.01,0.02c0.01,0.01,0.02,0.02,0.04,0.03c0,0,0.01,0,0.01,0c0.01,0,0.01-0.01,0.02-0.01c0,0,0.01,0,0.01,0 c0.02,0.01,0.02,0.04,0.03,0.06c0,0.01,0,0.01,0,0.02c0,0.01-0.01,0.01-0.01,0.02c-0.01,0.01-0.01,0.02,0,0.03 c0,0.01,0.01,0.01,0.01,0.02c0,0.01,0,0.01,0,0.02c0,0-0.01,0.01-0.01,0.01c-0.01,0.01,0,0.02,0,0.02c0.01,0.01,0.01,0.01,0.02,0.02 c0,0,0,0.01,0,0.01c0,0.03,0.05,0.03,0.06,0.05c0.02,0.03-0.01,0.07,0,0.1c0,0.03,0.03,0.05,0.02,0.07 c-0.01,0.03-0.06,0.07-0.01,0.09c0.01,0.01,0.03,0,0.04,0c0.01,0,0.02,0,0.03,0c0.01,0,0.01,0.01,0.01,0.01 c0.01,0.01,0.03,0.03,0.04,0.04c0.01,0,0.01,0.01,0.02,0.01c0,0,0.01,0,0.01,0c0.01,0,0.01,0.01,0.01,0.01c0,0.01,0,0.01,0,0.02 c0,0.01,0,0.02-0.01,0.02c0,0,0,0.01,0,0.01c0,0.01,0,0.01,0,0.02c0,0.01-0.01,0.02-0.02,0.02c-0.01,0.01-0.03,0.03-0.03,0.04 c0,0.01,0,0.02,0,0.02c0,0.01,0,0.01-0.01,0.02c0,0.01-0.01,0.03,0,0.04c0,0.02,0.01,0.01,0.03,0.02c0.01,0.01,0.01,0.03,0.02,0.04 c0,0.02,0.02,0.03,0.03,0.04c0.01,0.01,0.02,0.03,0.02,0.05c0.01,0.04,0.01,0.07,0.02,0.11c0.02,0.04,0.05,0.07,0.08,0.08 c0.02,0.01,0.04,0.01,0.06,0.02c0.02,0.01,0.03,0.02,0.04,0.03c0.01,0.02,0.03,0.04,0.05,0.05c0.03,0.02,0.08,0.02,0.11,0 c0.02,0.04-0.01,0.09-0.03,0.13c0.02,0.02,0.04,0.03,0.06,0.03c0.02,0,0.05-0.01,0.07,0.01c0.02,0.02,0.01,0.05,0.03,0.06 c0.02,0.01,0.04-0.02,0.06-0.02c0.01,0,0.02,0.01,0.03,0.01c0.02,0.01,0.03,0.03,0.05,0.04c0.02,0.02,0.03,0.02,0.01,0.04 c-0.02,0.04-0.07,0.07-0.1,0.1c-0.07,0.07-0.14,0.13-0.2,0.19c-0.14,0.13-0.28,0.25-0.43,0.36c-0.29,0.23-0.6,0.44-0.92,0.62 c-0.12,0.07-0.25,0.14-0.38,0.2c-0.67,0.32-2.2,0.86-3.04,0.49c-0.08-0.04-0.16-0.08-0.23-0.14c-0.05-0.04-0.09-0.08-0.13-0.13 c-0.02-0.03-0.04-0.05-0.05-0.08c-0.01-0.01-0.01-0.02-0.02-0.03c-0.01-0.01-0.02,0-0.02-0.02c0-0.01,0.01-0.03,0-0.04 c0-0.02-0.02-0.04-0.02-0.06c0-0.02,0.01-0.04,0.02-0.06c0.01-0.04-0.01-0.07-0.01-0.11c0.01-0.05,0.05-0.08,0.06-0.13 c-0.02-0.02-0.03-0.03-0.05-0.05c-0.01,0.01-0.02,0.02-0.04,0.01c-0.01-0.01-0.02-0.02-0.02-0.03c0-0.01-0.01-0.03-0.02-0.03 c-0.01,0-0.02,0-0.04,0c-0.01,0-0.03,0-0.03-0.01c0,0,0-0.01,0-0.01c0-0.04,0-0.07,0-0.11c0-0.02,0-0.04,0.01-0.06 c0.01-0.02,0.02-0.04,0.01-0.06c-0.01-0.02-0.03-0.03-0.04-0.04s-0.04-0.03-0.03-0.05c0-0.01,0.01-0.01,0.01-0.02 c0-0.01,0-0.02-0.01-0.02c-0.01-0.02-0.03-0.03-0.04-0.04c-0.01,0-0.01-0.01-0.02-0.02c0-0.01,0-0.01,0-0.02c0-0.02,0-0.05,0-0.07 c0-0.01,0-0.01,0-0.02c-0.01-0.01-0.03-0.01-0.04-0.02c-0.03-0.01-0.02-0.06-0.04-0.08c-0.02-0.02-0.05-0.02-0.06-0.04 c0-0.01,0-0.02,0-0.02c-0.01-0.04-0.07-0.01-0.07-0.06c0-0.04,0-0.09-0.03-0.11c-0.01,0-0.02-0.01-0.02-0.02c0,0,0-0.01,0-0.01 c0.01-0.03,0.02-0.06,0.01-0.09c0-0.01-0.01-0.03-0.02-0.04c-0.01-0.02-0.02-0.04-0.02-0.06c0,0,0-0.01,0-0.01c0,0,0-0.01,0.01-0.01 c0.02-0.02,0.04-0.03,0.06-0.05c0.02-0.02,0.04-0.04,0.04-0.06c0,0,0-0.01,0-0.01c0,0,0-0.01-0.01-0.01 c-0.02-0.02-0.04-0.05-0.05-0.08c0-0.01-0.01-0.02-0.01-0.03c0-0.01,0-0.02,0.01-0.03c0-0.02,0-0.03-0.01-0.05 c0-0.01-0.01-0.02-0.01-0.03c0-0.01,0-0.01,0.01-0.02c0.01-0.02,0.02-0.03,0.02-0.05c0-0.01,0-0.03,0-0.04 c0-0.02,0.02-0.04,0.03-0.06c0.01-0.02,0.01-0.04,0.02-0.06c0-0.01,0.03-0.08,0.04-0.08c0.34,0.02,1.75,0.07,2.36-0.06 c0.03-0.01,0.05-0.01,0.08-0.02c0.35-0.08,0.7-0.19,1.03-0.32c0.28-0.11,0.55-0.25,0.82-0.4c0.11-0.06,0.22-0.13,0.33-0.2 c0.05-0.03,0.09-0.06,0.14-0.09C80.94,62.07,80.99,62.03,81.03,62.01z" fill="#86e3ce"/></g><g id="change1_10"><path d="M83.67,35.16c-0.03,0.01-0.05,0.01-0.05-0.01c0-0.02,0.03-0.06,0.05-0.07c0.01-0.01,0.02-0.02,0.03-0.03 c0.01-0.01,0.02-0.03,0.03-0.05c0-0.01,0.01-0.01,0-0.02c0-0.01-0.01-0.01-0.01-0.01c-0.01-0.01-0.02-0.02-0.03-0.04 c-0.01-0.02-0.01-0.03-0.01-0.05c0-0.01,0-0.02,0-0.02c0-0.02-0.02-0.03-0.03-0.04c0,0,0,0-0.01,0c-0.01,0-0.01,0.01-0.02,0 c0,0,0,0-0.01,0c-0.01-0.02-0.01-0.04-0.01-0.06c0,0,0-0.01,0.01-0.01c0-0.01,0.01-0.01,0.02-0.01c0.01-0.01,0.01-0.02,0.01-0.03 c0-0.01,0-0.01,0-0.02c0-0.01,0-0.01,0.01-0.02c0,0,0.01,0,0.01-0.01c0.01-0.01,0.01-0.02,0-0.02c0-0.01-0.01-0.01-0.01-0.02 c0,0,0-0.01,0-0.01c0-0.03-0.04-0.04-0.05-0.07c-0.01-0.03,0.03-0.06,0.03-0.1c0-0.03-0.02-0.05,0-0.08 c0.01-0.03,0.07-0.05,0.03-0.08c-0.01-0.01-0.02-0.01-0.04-0.01c-0.01,0-0.02,0-0.03-0.01c-0.01,0-0.01-0.01-0.01-0.02 c-0.01-0.02-0.02-0.03-0.03-0.05c-0.01-0.01-0.01-0.01-0.02-0.01c0,0-0.01,0-0.01,0c-0.01,0-0.01-0.01-0.01-0.01 c0-0.01,0-0.01,0.01-0.02c0-0.01,0.01-0.01,0.01-0.02c0,0,0-0.01,0.01-0.01c0-0.01,0-0.01,0-0.02c0-0.01,0.02-0.01,0.03-0.02 c0.02,0,0.03-0.02,0.04-0.03c0-0.01,0.01-0.01,0.01-0.02c0-0.01,0.01-0.01,0.01-0.01c0.01-0.01,0.01-0.02,0.01-0.04 c0-0.02-0.01-0.02-0.02-0.03c-0.01-0.01-0.01-0.03,0-0.05c0-0.02-0.01-0.03-0.02-0.05c-0.01-0.02-0.01-0.04-0.01-0.05 c0-0.04,0.01-0.07,0-0.11c-0.01-0.04-0.03-0.08-0.06-0.1c-0.02-0.01-0.04-0.02-0.05-0.03c-0.02-0.01-0.02-0.02-0.03-0.04 c-0.01-0.02-0.02-0.04-0.03-0.06c-0.02-0.03-0.07-0.04-0.11-0.03c0-0.05,0.03-0.09,0.07-0.12c-0.01-0.02-0.03-0.04-0.05-0.05 c-0.02-0.01-0.05,0-0.06-0.02c-0.01-0.02,0.01-0.05-0.01-0.07c-0.02-0.01-0.04,0.01-0.06,0c-0.01,0-0.02-0.01-0.02-0.02 c-0.01-0.02-0.03-0.04-0.04-0.05c-0.02-0.02-0.02-0.03,0-0.04c0.03-0.03,0.08-0.05,0.12-0.07c0.08-0.05,0.16-0.09,0.25-0.13 c0.17-0.09,0.33-0.16,0.51-0.24c0.34-0.15,0.69-0.27,1.05-0.36c0.14-0.03,0.28-0.07,0.42-0.09c0.73-0.14,2.34-0.26,3.06,0.32 c0.07,0.06,0.14,0.12,0.19,0.19c0.04,0.05,0.07,0.1,0.09,0.16c0.01,0.03,0.02,0.06,0.03,0.1c0,0.02,0.01,0.03,0.01,0.04 c0.01,0.01,0.02,0.01,0.02,0.03c0,0.01-0.01,0.03-0.01,0.04c0,0.02,0.01,0.04,0.01,0.07c0,0.02-0.02,0.03-0.03,0.05 c-0.02,0.03-0.01,0.07-0.02,0.11c-0.02,0.04-0.07,0.07-0.09,0.11c0.01,0.02,0.02,0.04,0.03,0.06c0.01-0.01,0.03-0.01,0.04,0 c0.01,0.01,0.01,0.03,0.01,0.04c0,0.01,0,0.03,0.01,0.04c0.01,0.01,0.02,0.01,0.04,0.01c0.01,0,0.03,0.01,0.03,0.02 c0,0,0,0.01,0,0.01c-0.01,0.03-0.02,0.07-0.03,0.1c-0.01,0.02-0.01,0.04-0.02,0.06c-0.01,0.02-0.03,0.04-0.03,0.06 c0,0.02,0.02,0.04,0.03,0.05c0.01,0.01,0.03,0.03,0.02,0.05c0,0.01-0.01,0.01-0.01,0.02c0,0.01,0,0.02,0,0.03 c0.01,0.02,0.02,0.04,0.03,0.05c0,0.01,0.01,0.01,0.01,0.02c0,0.01,0,0.01,0,0.02c-0.01,0.02-0.01,0.05-0.02,0.07 c0,0.01,0,0.01,0,0.02c0,0.01,0.02,0.02,0.04,0.03c0.02,0.02,0.01,0.06,0.02,0.09c0.01,0.02,0.04,0.03,0.04,0.06 c0,0.01,0,0.02,0,0.02c0,0.05,0.07,0.03,0.05,0.08c-0.01,0.04-0.03,0.09,0,0.12c0.01,0.01,0.01,0.01,0.01,0.02c0,0,0,0.01-0.01,0.01 c-0.02,0.02-0.04,0.05-0.04,0.08c0,0.01,0,0.03,0.01,0.04c0,0.02,0,0.04,0,0.06c0,0,0,0.01,0,0.01c0,0-0.01,0.01-0.01,0.01 c-0.02,0.01-0.05,0.02-0.07,0.03c-0.02,0.01-0.05,0.03-0.06,0.05c0,0,0,0.01,0,0.01c0,0,0,0.01,0.01,0.01 c0.02,0.02,0.03,0.06,0.03,0.09c0,0.01,0,0.02,0,0.03c0,0.01-0.01,0.02-0.01,0.03c-0.01,0.01-0.01,0.03-0.01,0.05 c0,0.01,0.01,0.02,0,0.03c0,0.01-0.01,0.01-0.01,0.02c-0.01,0.01-0.02,0.03-0.03,0.04c0,0.01-0.01,0.03-0.01,0.04 c-0.01,0.02-0.03,0.04-0.04,0.05c-0.01,0.02-0.03,0.04-0.04,0.06c-0.01,0.01-0.05,0.07-0.06,0.07c-0.33-0.1-1.67-0.53-2.29-0.56 c-0.03,0-0.05,0-0.08,0c-0.36-0.01-0.72,0-1.08,0.04c-0.3,0.04-0.6,0.09-0.9,0.17c-0.12,0.03-0.24,0.07-0.36,0.1 c-0.05,0.02-0.11,0.03-0.16,0.05C83.77,35.12,83.71,35.15,83.67,35.16z" fill="#ff8c9d"/></g><g id="change2_6"><path d="M63.6,67.95c-0.02,0.01-0.03,0.02-0.03,0.01c-0.01-0.01,0-0.04,0.01-0.06c0-0.01,0.01-0.02,0.01-0.03 c0-0.01,0-0.02,0-0.03c0,0,0-0.01,0-0.01c0,0-0.01,0-0.01,0c-0.01,0-0.02-0.01-0.03-0.01s-0.01-0.02-0.02-0.03c0,0,0-0.01-0.01-0.01 c-0.01-0.01-0.02-0.01-0.03-0.02c0,0,0,0-0.01,0c0,0-0.01,0.01-0.01,0.01c0,0,0,0-0.01,0c-0.01-0.01-0.02-0.02-0.02-0.04 c0,0,0-0.01,0-0.01c0-0.01,0.01-0.01,0.01-0.01c0-0.01,0-0.02,0-0.02c0,0-0.01-0.01-0.01-0.01s0-0.01,0-0.01c0,0,0,0,0.01-0.01 c0-0.01,0-0.01-0.01-0.02c0,0-0.01-0.01-0.01-0.01c0,0,0-0.01,0-0.01c-0.01-0.02-0.03-0.02-0.05-0.03c-0.01-0.02,0-0.04-0.01-0.07 c-0.01-0.02-0.02-0.03-0.02-0.05c0-0.02,0.03-0.05,0-0.06c-0.01,0-0.02,0-0.03,0c-0.01,0-0.01,0-0.02,0c0,0-0.01-0.01-0.01-0.01 c-0.01-0.01-0.02-0.01-0.03-0.02c0,0-0.01,0-0.02,0c0,0,0,0-0.01,0c0,0-0.01,0-0.01-0.01c0,0,0-0.01,0-0.01c0-0.01,0-0.01,0-0.02 c0,0,0,0,0-0.01c0,0,0-0.01,0-0.01c0-0.01,0.01-0.01,0.01-0.02c0.01-0.01,0.01-0.02,0.02-0.03c0,0,0-0.01,0-0.01c0,0,0-0.01,0-0.01 c0-0.01,0-0.02,0-0.03c0-0.01-0.01-0.01-0.02-0.01c-0.01-0.01-0.01-0.02-0.01-0.03c0-0.01-0.02-0.02-0.02-0.02 c-0.01-0.01-0.01-0.02-0.02-0.03c-0.01-0.02-0.01-0.05-0.03-0.07c-0.01-0.02-0.04-0.04-0.06-0.05c-0.01,0-0.03,0-0.04-0.01 c-0.01,0-0.02-0.01-0.03-0.02c-0.01-0.01-0.02-0.02-0.03-0.03c-0.02-0.01-0.05-0.01-0.07,0.01c-0.01-0.03,0-0.06,0.01-0.09 c-0.01-0.01-0.03-0.02-0.04-0.02c-0.02,0-0.03,0.01-0.05,0c-0.01-0.01-0.01-0.03-0.03-0.04c-0.01,0-0.02,0.02-0.04,0.02 c-0.01,0-0.01,0-0.02-0.01c-0.01-0.01-0.03-0.02-0.04-0.02c-0.01-0.01-0.02-0.01-0.01-0.03c0.01-0.03,0.04-0.05,0.06-0.07 c0.04-0.05,0.08-0.1,0.12-0.14c0.08-0.09,0.16-0.19,0.25-0.27c0.17-0.18,0.35-0.34,0.55-0.49c0.07-0.06,0.15-0.11,0.23-0.16 c0.41-0.27,1.36-0.77,1.94-0.6c0.06,0.02,0.11,0.04,0.16,0.07c0.03,0.02,0.07,0.04,0.1,0.07c0.02,0.02,0.03,0.03,0.04,0.05 c0.01,0.01,0.01,0.01,0.02,0.02c0.01,0,0.01,0,0.02,0.01c0,0.01,0,0.02,0,0.03c0,0.01,0.02,0.02,0.02,0.04c0,0.01,0,0.03-0.01,0.04 c0,0.02,0.01,0.05,0.01,0.07c0,0.03-0.02,0.06-0.02,0.09c0.01,0.01,0.02,0.02,0.03,0.03c0-0.01,0.01-0.01,0.02-0.01 c0.01,0,0.01,0.01,0.02,0.02c0,0.01,0.01,0.02,0.02,0.02c0.01,0,0.02,0,0.02,0s0.02,0,0.02,0.01c0,0,0,0.01,0,0.01 c0,0.02,0.01,0.05,0.01,0.07c0,0.01,0,0.03,0,0.04c0,0.01-0.01,0.03,0,0.04c0.01,0.01,0.02,0.02,0.03,0.02 c0.01,0,0.03,0.01,0.03,0.03c0,0.01,0,0.01,0,0.02c0,0.01,0,0.01,0.01,0.02c0.01,0.01,0.02,0.02,0.03,0.03c0,0,0.01,0,0.01,0.01 c0,0,0,0.01,0,0.01c0,0.02,0,0.03,0.01,0.05c0,0,0,0.01,0,0.01c0.01,0.01,0.02,0,0.03,0.01c0.02,0.01,0.02,0.04,0.04,0.05 c0.01,0.01,0.03,0.01,0.04,0.02c0,0,0,0.01,0,0.02c0.01,0.03,0.05,0,0.05,0.04c0,0.03,0.01,0.06,0.03,0.07c0,0,0.01,0,0.01,0.01 c0,0,0,0.01,0,0.01c-0.01,0.02-0.01,0.04,0,0.06c0,0.01,0.01,0.02,0.01,0.02c0.01,0.01,0.01,0.02,0.02,0.04c0,0,0,0,0,0.01 c0,0,0,0.01,0,0.01c-0.01,0.01-0.02,0.02-0.04,0.04c-0.01,0.01-0.02,0.03-0.02,0.05c0,0,0,0.01,0,0.01c0,0,0,0,0.01,0 c0.02,0.01,0.03,0.03,0.04,0.04c0,0.01,0.01,0.01,0.01,0.02c0,0.01,0,0.01,0,0.02c0,0.01,0,0.02,0.01,0.03 c0,0.01,0.01,0.01,0.01,0.02c0,0,0,0.01,0,0.01c0,0.01-0.01,0.02-0.01,0.03c0,0.01,0,0.02,0,0.03c0,0.01-0.01,0.03-0.01,0.04 c0,0.01-0.01,0.03-0.01,0.04c0,0.01-0.01,0.06-0.02,0.06c-0.22,0.02-1.15,0.11-1.54,0.25c-0.02,0.01-0.03,0.01-0.05,0.02 c-0.22,0.08-0.44,0.19-0.65,0.31c-0.17,0.1-0.34,0.21-0.5,0.33c-0.07,0.05-0.13,0.1-0.19,0.16c-0.03,0.02-0.06,0.05-0.08,0.07 C63.65,67.9,63.62,67.94,63.6,67.95z" fill="#fff78c"/></g><g id="change3_5"><path d="M31.02,60.42c-0.02,0.01-0.03,0.02-0.03,0.01c-0.01-0.01,0-0.04,0.01-0.06c0-0.01,0.01-0.02,0.01-0.03 c0-0.01,0-0.02,0-0.03c0,0,0-0.01,0-0.01c0,0-0.01,0-0.01,0c-0.01,0-0.02-0.01-0.03-0.01c-0.01-0.01-0.01-0.02-0.02-0.03 c0,0,0-0.01-0.01-0.01c-0.01-0.01-0.02-0.01-0.03-0.02c0,0,0,0-0.01,0c0,0-0.01,0.01-0.01,0.01c0,0,0,0-0.01,0 c-0.01-0.01-0.02-0.02-0.02-0.04c0,0,0-0.01,0-0.01c0-0.01,0.01-0.01,0.01-0.01c0-0.01,0-0.02,0-0.02c0,0-0.01-0.01-0.01-0.01 c0,0,0-0.01,0-0.01c0,0,0,0,0.01-0.01c0-0.01,0-0.01-0.01-0.02c0,0-0.01-0.01-0.01-0.01c0,0,0-0.01,0-0.01 c-0.01-0.02-0.03-0.02-0.05-0.03c-0.01-0.02,0-0.04-0.01-0.07c-0.01-0.02-0.02-0.03-0.02-0.05c0-0.02,0.03-0.05,0-0.06 c-0.01,0-0.02,0-0.03,0c-0.01,0-0.01,0-0.02,0c0,0-0.01-0.01-0.01-0.01c-0.01-0.01-0.02-0.01-0.03-0.02c0,0-0.01,0-0.02,0 c0,0,0,0-0.01,0c0,0-0.01,0-0.01-0.01c0,0,0-0.01,0-0.01c0-0.01,0-0.01,0-0.02c0,0,0,0,0-0.01c0,0,0-0.01,0-0.01 c0-0.01,0.01-0.01,0.01-0.02c0.01-0.01,0.01-0.02,0.02-0.03c0,0,0-0.01,0-0.01c0,0,0-0.01,0-0.01c0-0.01,0-0.02,0-0.03 c0-0.01-0.01-0.01-0.02-0.01c-0.01-0.01-0.01-0.02-0.01-0.03c0-0.01-0.02-0.02-0.02-0.02c-0.01-0.01-0.01-0.02-0.02-0.03 c-0.01-0.02-0.01-0.05-0.03-0.07c-0.01-0.02-0.04-0.04-0.06-0.05c-0.01,0-0.03,0-0.04-0.01c-0.01,0-0.02-0.01-0.03-0.02 c-0.01-0.01-0.02-0.02-0.03-0.03c-0.02-0.01-0.05-0.01-0.07,0.01c-0.01-0.03,0-0.06,0.01-0.09c-0.01-0.01-0.03-0.02-0.04-0.02 c-0.02,0-0.03,0.01-0.05,0c-0.01-0.01-0.01-0.03-0.03-0.04c-0.01,0-0.02,0.02-0.04,0.02c-0.01,0-0.01,0-0.02-0.01 c-0.01-0.01-0.03-0.02-0.04-0.02c-0.01-0.01-0.02-0.01-0.01-0.03c0.01-0.03,0.04-0.05,0.06-0.07c0.04-0.05,0.08-0.1,0.12-0.14 c0.08-0.09,0.16-0.19,0.25-0.27c0.17-0.18,0.35-0.34,0.55-0.49c0.07-0.06,0.15-0.11,0.23-0.16c0.41-0.27,1.36-0.77,1.94-0.6 c0.06,0.02,0.11,0.04,0.16,0.07c0.03,0.02,0.07,0.04,0.1,0.07c0.02,0.02,0.03,0.03,0.04,0.05c0.01,0.01,0.01,0.01,0.02,0.02 c0.01,0,0.01,0,0.02,0.01c0,0.01,0,0.02,0,0.03c0,0.01,0.02,0.02,0.02,0.04c0,0.01,0,0.03-0.01,0.04c0,0.02,0.01,0.05,0.01,0.07 c0,0.03-0.02,0.06-0.02,0.09c0.01,0.01,0.02,0.02,0.03,0.03c0-0.01,0.01-0.01,0.02-0.01c0.01,0,0.01,0.01,0.02,0.02 c0,0.01,0.01,0.02,0.02,0.02c0.01,0,0.02,0,0.02,0c0.01,0,0.02,0,0.02,0.01c0,0,0,0.01,0,0.01c0,0.02,0.01,0.05,0.01,0.07 c0,0.01,0,0.03,0,0.04c0,0.01-0.01,0.03,0,0.04c0.01,0.01,0.02,0.02,0.03,0.02s0.03,0.01,0.03,0.03c0,0.01,0,0.01,0,0.02 c0,0.01,0,0.01,0.01,0.02c0.01,0.01,0.02,0.02,0.03,0.03c0,0,0.01,0,0.01,0.01c0,0,0,0.01,0,0.01c0,0.02,0,0.03,0.01,0.05 c0,0,0,0.01,0,0.01c0.01,0.01,0.02,0,0.03,0.01c0.02,0.01,0.02,0.04,0.04,0.05c0.01,0.01,0.03,0.01,0.04,0.02c0,0,0,0.01,0,0.02 c0.01,0.03,0.05,0,0.05,0.04c0,0.03,0.01,0.06,0.03,0.07c0,0,0.01,0,0.01,0.01c0,0,0,0.01,0,0.01c-0.01,0.02-0.01,0.04,0,0.06 c0,0.01,0.01,0.02,0.01,0.02c0.01,0.01,0.01,0.02,0.02,0.04c0,0,0,0,0,0.01c0,0,0,0.01,0,0.01c-0.01,0.01-0.02,0.02-0.04,0.04 c-0.01,0.01-0.02,0.03-0.02,0.05c0,0,0,0.01,0,0.01c0,0,0,0,0.01,0c0.02,0.01,0.03,0.03,0.04,0.04c0,0.01,0.01,0.01,0.01,0.02 c0,0.01,0,0.01,0,0.02c0,0.01,0,0.02,0.01,0.03c0,0.01,0.01,0.01,0.01,0.02c0,0,0,0.01,0,0.01c0,0.01-0.01,0.02-0.01,0.03 c0,0.01,0,0.02,0,0.03c0,0.01-0.01,0.03-0.01,0.04c0,0.01-0.01,0.03-0.01,0.04c0,0.01-0.01,0.06-0.02,0.06 c-0.22,0.02-1.15,0.11-1.54,0.25c-0.02,0.01-0.03,0.01-0.05,0.02c-0.22,0.08-0.44,0.19-0.65,0.31c-0.17,0.1-0.34,0.21-0.5,0.33 c-0.07,0.05-0.13,0.1-0.19,0.16c-0.03,0.02-0.06,0.05-0.08,0.07C31.07,60.37,31.04,60.4,31.02,60.42z" fill="#86e3ce"/></g><g id="change3_6"><path d="M57.1,60.3c0,0.02,0,0.03-0.02,0.03c-0.01,0-0.03-0.03-0.04-0.04c-0.01-0.01-0.01-0.01-0.02-0.02 c-0.01-0.01-0.02-0.02-0.03-0.02c0,0-0.01-0.01-0.01,0c0,0-0.01,0-0.01,0.01c-0.01,0.01-0.02,0.01-0.03,0.01c-0.01,0-0.02,0-0.03,0 c0,0-0.01,0-0.01,0c-0.01,0-0.02,0.01-0.03,0.01c0,0,0,0,0,0c0,0,0,0.01,0,0.01c0,0,0,0,0,0c-0.01,0.01-0.03,0-0.04,0 c0,0-0.01,0-0.01-0.01c0,0,0-0.01-0.01-0.01c0-0.01-0.01-0.01-0.02-0.01c0,0-0.01,0-0.01,0c0,0-0.01,0-0.01-0.01c0,0,0-0.01,0-0.01 c0-0.01-0.01-0.01-0.02,0c-0.01,0-0.01,0-0.02,0c0,0-0.01,0-0.01,0c-0.02-0.01-0.03,0.02-0.05,0.02c-0.02,0-0.04-0.03-0.06-0.03 c-0.02,0-0.04,0-0.05-0.01c-0.02-0.01-0.02-0.05-0.05-0.03c-0.01,0.01-0.01,0.01-0.01,0.02c0,0.01,0,0.01-0.01,0.02 c0,0-0.01,0-0.01,0c-0.01,0-0.02,0.01-0.03,0.02c0,0-0.01,0.01-0.01,0.01c0,0,0,0,0,0.01c0,0-0.01,0-0.01,0c0,0-0.01,0-0.01-0.01 c0,0-0.01-0.01-0.01-0.01c0,0,0,0-0.01,0c0,0-0.01,0-0.01,0c-0.01,0-0.01-0.01-0.01-0.02c0-0.01-0.01-0.02-0.02-0.03 c0,0-0.01-0.01-0.01-0.01c0,0-0.01-0.01-0.01-0.01c-0.01-0.01-0.01-0.01-0.02-0.01c-0.01,0-0.01,0-0.02,0.01c-0.01,0-0.02,0-0.03,0 c-0.01,0-0.02,0-0.03,0.01c-0.01,0-0.02,0-0.03,0c-0.02-0.01-0.05-0.02-0.07-0.02c-0.03,0-0.05,0.01-0.07,0.03 c-0.01,0.01-0.02,0.02-0.03,0.03c-0.01,0.01-0.02,0.01-0.03,0.01c-0.01,0-0.03,0.01-0.04,0.01c-0.02,0.01-0.04,0.04-0.04,0.07 c-0.03,0-0.05-0.03-0.07-0.06c-0.01,0.01-0.03,0.01-0.04,0.02c-0.01,0.01-0.01,0.03-0.02,0.04c-0.01,0-0.03-0.01-0.05,0 c-0.01,0.01,0,0.03-0.01,0.04c0,0.01-0.01,0.01-0.02,0.01c-0.01,0.01-0.03,0.01-0.04,0.02c-0.02,0.01-0.02,0.01-0.03-0.01 c-0.01-0.03-0.02-0.06-0.03-0.09c-0.02-0.06-0.04-0.12-0.05-0.18c-0.03-0.12-0.06-0.24-0.09-0.36c-0.05-0.24-0.08-0.48-0.09-0.73 c0-0.09-0.01-0.19,0-0.28c0.01-0.49,0.14-1.55,0.61-1.94c0.05-0.04,0.09-0.07,0.15-0.1c0.04-0.02,0.07-0.03,0.11-0.04 c0.02,0,0.04-0.01,0.07-0.01c0.01,0,0.02,0,0.03,0c0.01,0,0.01-0.01,0.02-0.01c0.01,0,0.02,0.01,0.03,0.02c0.01,0.01,0.03,0,0.04,0 c0.01,0,0.02,0.02,0.03,0.03c0.02,0.02,0.05,0.02,0.07,0.03c0.03,0.02,0.04,0.05,0.06,0.07c0.01,0,0.03-0.01,0.04-0.01 c-0.01-0.01,0-0.02,0.01-0.02c0.01,0,0.02,0,0.03,0c0.01,0,0.02,0,0.03,0c0.01-0.01,0.01-0.01,0.01-0.02s0.01-0.02,0.02-0.01 c0,0,0.01,0,0.01,0c0.02,0.01,0.04,0.02,0.06,0.03c0.01,0.01,0.02,0.01,0.03,0.02c0.01,0.01,0.02,0.02,0.04,0.02 c0.01,0,0.03-0.01,0.04-0.01s0.03-0.01,0.04,0c0,0,0.01,0.01,0.01,0.01c0.01,0,0.01,0,0.02,0c0.01,0,0.03-0.01,0.04-0.01 c0,0,0.01,0,0.01,0c0,0,0.01,0,0.01,0c0.01,0.01,0.03,0.01,0.04,0.02c0,0,0.01,0,0.01,0c0.01,0,0.01-0.01,0.02-0.02 c0.02-0.01,0.04,0,0.06,0c0.02,0,0.03-0.02,0.04-0.02c0.01,0,0.01,0,0.02,0.01c0.03,0,0.03-0.04,0.06-0.02 c0.02,0.01,0.05,0.03,0.08,0.02c0,0,0.01-0.01,0.01,0c0,0,0.01,0,0.01,0.01c0.01,0.02,0.03,0.03,0.05,0.03c0.01,0,0.02,0,0.03,0 c0.01,0,0.03,0,0.04,0.01c0,0,0,0,0.01,0c0,0,0,0.01,0,0.01c0,0.02,0.01,0.03,0.01,0.05c0,0.02,0.01,0.03,0.03,0.04 c0,0,0.01,0,0.01,0c0,0,0,0,0.01,0c0.02-0.01,0.04-0.01,0.06-0.01c0.01,0,0.01,0,0.02,0c0.01,0,0.01,0.01,0.01,0.01 c0.01,0.01,0.02,0.01,0.03,0.01c0.01,0,0.01,0,0.02,0c0,0,0.01,0.01,0.01,0.01c0.01,0.01,0.01,0.02,0.02,0.03 c0.01,0,0.02,0.01,0.02,0.01c0.01,0.01,0.02,0.03,0.03,0.04c0.01,0.01,0.02,0.02,0.03,0.03c0,0,0.04,0.04,0.04,0.05 c-0.11,0.2-0.56,1.01-0.66,1.41c0,0.02-0.01,0.03-0.01,0.05c-0.06,0.23-0.09,0.47-0.11,0.71c-0.02,0.2-0.02,0.4-0.01,0.6 c0,0.08,0.01,0.17,0.02,0.25c0,0.04,0.01,0.07,0.01,0.11C57.09,60.22,57.1,60.27,57.1,60.3z" fill="#86e3ce"/></g><g id="change4_5"><path d="M70.92,42.65c-0.02,0.01-0.03,0.01-0.03,0c0-0.01,0.02-0.04,0.02-0.05c0-0.01,0.01-0.02,0.01-0.02 c0.01-0.01,0.01-0.02,0.01-0.03c0,0,0-0.01,0-0.01c0,0-0.01,0-0.01-0.01c-0.01,0-0.02-0.01-0.02-0.02c0-0.01-0.01-0.02-0.01-0.03 c0,0,0-0.01,0-0.01c0-0.01-0.01-0.02-0.02-0.02c0,0,0,0-0.01,0c0,0-0.01,0-0.01,0c0,0,0,0,0,0c-0.01-0.01-0.01-0.03-0.01-0.04 c0,0,0-0.01,0-0.01c0,0,0.01-0.01,0.01-0.01c0.01-0.01,0.01-0.01,0.01-0.02c0,0,0-0.01,0-0.01s0-0.01,0-0.01c0,0,0.01,0,0.01-0.01 c0,0,0-0.01,0-0.02c0,0-0.01-0.01-0.01-0.01c0,0,0-0.01,0-0.01c0-0.02-0.03-0.02-0.04-0.04c-0.01-0.02,0.01-0.04,0.01-0.07 c0-0.02-0.02-0.03-0.01-0.05c0.01-0.02,0.04-0.04,0.01-0.06c-0.01,0-0.02-0.01-0.03,0c-0.01,0-0.01,0-0.02,0 c0,0-0.01-0.01-0.01-0.01c-0.01-0.01-0.02-0.02-0.03-0.03c0,0-0.01-0.01-0.01-0.01c0,0,0,0-0.01,0c0,0-0.01,0-0.01-0.01 c0,0,0-0.01,0-0.01c0-0.01,0-0.01,0.01-0.02c0,0,0,0,0-0.01c0,0,0-0.01,0-0.01c0-0.01,0.01-0.01,0.02-0.01 c0.01,0,0.02-0.01,0.02-0.03c0,0,0-0.01,0-0.01c0,0,0-0.01,0.01-0.01c0-0.01,0.01-0.02,0-0.03c0-0.01-0.01-0.01-0.01-0.02 c-0.01-0.01-0.01-0.02-0.01-0.03c0-0.02-0.01-0.02-0.02-0.03c-0.01-0.01-0.01-0.02-0.01-0.03c0-0.02,0-0.05-0.01-0.07 c-0.01-0.03-0.03-0.05-0.05-0.06c-0.01-0.01-0.02-0.01-0.04-0.02c-0.01-0.01-0.02-0.01-0.02-0.03c-0.01-0.01-0.01-0.03-0.03-0.04 c-0.02-0.02-0.05-0.02-0.07-0.01c-0.01-0.03,0.01-0.06,0.03-0.08c-0.01-0.01-0.02-0.02-0.04-0.03c-0.02,0-0.03,0-0.04-0.01 c-0.01-0.01,0-0.04-0.01-0.04c-0.01-0.01-0.03,0.01-0.04,0.01c-0.01,0-0.01-0.01-0.02-0.01c-0.01-0.01-0.02-0.02-0.03-0.03 c-0.01-0.01-0.02-0.01,0-0.03c0.02-0.02,0.05-0.04,0.07-0.06c0.05-0.04,0.1-0.07,0.15-0.11c0.1-0.07,0.2-0.14,0.31-0.2 c0.21-0.13,0.43-0.24,0.65-0.33c0.09-0.04,0.17-0.07,0.26-0.1c0.46-0.16,1.51-0.39,2.03-0.08c0.05,0.03,0.1,0.06,0.14,0.11 c0.03,0.03,0.05,0.06,0.07,0.09c0.01,0.02,0.02,0.04,0.03,0.06c0,0.01,0.01,0.02,0.01,0.02c0.01,0.01,0.01,0,0.01,0.02 c0,0.01-0.01,0.02-0.01,0.03c0,0.01,0.01,0.03,0.01,0.04c0,0.01-0.01,0.02-0.02,0.04c-0.01,0.02,0,0.05,0,0.07 c-0.01,0.03-0.04,0.05-0.05,0.08c0.01,0.01,0.02,0.02,0.03,0.03c0-0.01,0.02-0.01,0.02,0s0.01,0.02,0.01,0.02 c0,0.01,0.01,0.02,0.01,0.02c0.01,0,0.02,0,0.02,0c0.01,0,0.02,0,0.02,0.01c0,0,0,0.01,0,0.01c0,0.02-0.01,0.05-0.01,0.07 c0,0.01,0,0.03-0.01,0.04c-0.01,0.01-0.01,0.03-0.01,0.04c0,0.01,0.02,0.02,0.03,0.03c0.01,0.01,0.02,0.02,0.02,0.03 c0,0,0,0.01-0.01,0.01c0,0.01,0,0.01,0,0.02c0.01,0.01,0.02,0.02,0.03,0.03c0,0,0.01,0.01,0.01,0.01c0,0,0,0.01,0,0.01 c0,0.02,0,0.03-0.01,0.05c0,0,0,0.01,0,0.01c0,0.01,0.02,0.01,0.03,0.01c0.02,0.01,0.01,0.04,0.02,0.06 c0.01,0.01,0.03,0.02,0.03,0.03c0,0.01,0,0.01,0,0.02c0.01,0.03,0.05,0.01,0.04,0.05c0,0.03-0.01,0.06,0.01,0.08 c0,0,0.01,0.01,0.01,0.01c0,0,0,0.01,0,0.01c-0.01,0.02-0.02,0.04-0.02,0.06c0,0.01,0,0.02,0.01,0.03c0,0.01,0.01,0.03,0.01,0.04 c0,0,0,0,0,0.01c0,0,0,0-0.01,0.01c-0.01,0.01-0.03,0.02-0.04,0.03c-0.01,0.01-0.03,0.02-0.03,0.04c0,0,0,0.01,0,0.01 c0,0,0,0,0,0.01c0.01,0.01,0.02,0.03,0.03,0.05c0,0.01,0,0.01,0,0.02c0,0.01,0,0.01-0.01,0.02c0,0.01,0,0.02,0,0.03 c0,0.01,0.01,0.01,0.01,0.02c0,0,0,0.01-0.01,0.01c-0.01,0.01-0.01,0.02-0.02,0.03c0,0.01,0,0.02,0,0.03c0,0.01-0.02,0.03-0.02,0.04 c-0.01,0.01-0.01,0.03-0.02,0.04c0,0.01-0.02,0.05-0.03,0.05c-0.22-0.04-1.14-0.19-1.55-0.15c-0.02,0-0.04,0-0.05,0.01 c-0.24,0.02-0.47,0.07-0.7,0.13c-0.19,0.05-0.38,0.12-0.57,0.19c-0.08,0.03-0.15,0.07-0.23,0.1c-0.03,0.02-0.07,0.03-0.1,0.05 C70.99,42.61,70.95,42.64,70.92,42.65z" fill="#d0e6a5"/></g><g id="change4_6"><path d="M60.56,29.08c-0.01-0.02-0.01-0.03,0.01-0.03c0.01,0,0.04,0.02,0.05,0.03c0.01,0.01,0.01,0.01,0.02,0.02 c0.01,0.01,0.02,0.01,0.03,0.02c0,0,0.01,0,0.01,0c0,0,0-0.01,0.01-0.01c0-0.01,0.01-0.02,0.02-0.02c0.01,0,0.02-0.01,0.03-0.01 c0,0,0.01,0,0.01,0c0.01,0,0.02-0.01,0.02-0.02c0,0,0,0,0,0c0,0,0-0.01,0-0.01c0,0,0,0,0,0c0.01-0.01,0.03-0.01,0.04-0.01 c0,0,0.01,0,0.01,0c0,0,0.01,0.01,0.01,0.01c0.01,0.01,0.01,0.01,0.02,0.01c0,0,0.01,0,0.01,0s0.01,0,0.01,0c0,0,0,0.01,0.01,0.01 c0,0,0.01,0,0.02,0c0,0,0.01-0.01,0.01-0.01c0,0,0.01,0,0.01,0c0.02,0,0.03-0.03,0.04-0.03c0.02-0.01,0.04,0.01,0.06,0.01 c0.02,0,0.03-0.01,0.05-0.01c0.02,0.01,0.04,0.04,0.05,0.02c0-0.01,0.01-0.02,0.01-0.03c0-0.01,0-0.01,0-0.02 c0,0,0.01-0.01,0.01-0.01c0.01-0.01,0.02-0.02,0.03-0.02c0,0,0.01-0.01,0.01-0.01c0,0,0,0,0-0.01c0,0,0.01-0.01,0.01-0.01 c0,0,0.01,0,0.01,0c0.01,0,0.01,0.01,0.02,0.01c0,0,0,0,0.01,0c0,0,0.01,0,0.01,0c0.01,0,0.01,0.01,0.01,0.02 c0,0.01,0.01,0.02,0.02,0.02c0,0,0.01,0,0.01,0c0,0,0.01,0,0.01,0.01c0.01,0,0.02,0.01,0.02,0.01c0.01,0,0.01-0.01,0.02-0.01 c0.01-0.01,0.02-0.01,0.03-0.01c0.02,0,0.02-0.01,0.03-0.02c0.01-0.01,0.02-0.01,0.03-0.01c0.02,0,0.05,0,0.07,0 c0.03-0.01,0.05-0.02,0.06-0.04c0.01-0.01,0.01-0.02,0.02-0.04c0.01-0.01,0.01-0.01,0.03-0.02c0.01-0.01,0.03-0.01,0.04-0.02 c0.02-0.02,0.02-0.05,0.02-0.07c0.03,0,0.06,0.02,0.08,0.04c0.01-0.01,0.02-0.02,0.03-0.03c0-0.02,0-0.03,0.01-0.04 c0.01-0.01,0.04,0,0.04-0.01c0.01-0.01-0.01-0.03,0-0.04c0-0.01,0.01-0.01,0.01-0.02c0.01-0.01,0.02-0.02,0.03-0.03 c0.01-0.01,0.02-0.02,0.03,0c0.02,0.02,0.04,0.05,0.05,0.08c0.03,0.05,0.07,0.1,0.1,0.16c0.07,0.1,0.13,0.21,0.18,0.32 c0.11,0.22,0.21,0.44,0.29,0.67c0.03,0.09,0.06,0.18,0.08,0.27c0.13,0.47,0.3,1.53-0.05,2.03c-0.03,0.05-0.07,0.1-0.12,0.13 c-0.03,0.03-0.06,0.05-0.1,0.07c-0.02,0.01-0.04,0.02-0.06,0.03c-0.01,0-0.02,0.01-0.02,0.01c-0.01,0.01-0.01,0.01-0.02,0.01 c-0.01,0-0.02-0.01-0.03-0.01c-0.01,0-0.03,0.01-0.04,0.01c-0.01,0-0.02-0.01-0.04-0.02c-0.02-0.01-0.05,0-0.07-0.01 c-0.03-0.01-0.05-0.04-0.08-0.05c-0.01,0.01-0.02,0.02-0.04,0.02c0.01,0.01,0.01,0.02,0,0.02c-0.01,0.01-0.02,0.01-0.03,0.01 c-0.01,0-0.02,0-0.02,0.01c0,0.01,0,0.02,0,0.02c0,0.01,0,0.02-0.01,0.02c0,0-0.01,0-0.01,0c-0.02-0.01-0.05-0.01-0.07-0.02 c-0.01,0-0.03-0.01-0.04-0.01c-0.01-0.01-0.03-0.02-0.04-0.01c-0.01,0-0.02,0.01-0.03,0.02s-0.02,0.02-0.03,0.02 c0,0-0.01-0.01-0.01-0.01c-0.01,0-0.01,0-0.02,0c-0.01,0.01-0.02,0.01-0.03,0.02c0,0-0.01,0.01-0.01,0.01c0,0-0.01,0-0.01,0 c-0.02,0-0.03-0.01-0.05-0.01c0,0-0.01,0-0.01,0c-0.01,0-0.01,0.02-0.02,0.02c-0.01,0.02-0.04,0.01-0.06,0.02 c-0.01,0.01-0.02,0.03-0.04,0.03c-0.01,0-0.01,0-0.02,0c-0.03,0-0.01,0.05-0.05,0.04c-0.02-0.01-0.06-0.01-0.08,0.01 c0,0-0.01,0.01-0.01,0.01c0,0-0.01,0-0.01,0c-0.02-0.01-0.04-0.02-0.05-0.02c-0.01,0-0.02,0-0.03,0.01c-0.01,0-0.03,0.01-0.04,0.01 c0,0,0,0-0.01,0c0,0,0,0-0.01-0.01c-0.01-0.01-0.01-0.03-0.02-0.04s-0.02-0.03-0.04-0.03c0,0-0.01,0-0.01,0c0,0,0,0-0.01,0 c-0.02,0.01-0.04,0.02-0.06,0.03c-0.01,0-0.01,0-0.02,0c-0.01,0-0.01,0-0.02-0.01c-0.01,0-0.02,0-0.03,0c-0.01,0-0.01,0.01-0.02,0 c0,0-0.01,0-0.01-0.01c-0.01-0.01-0.02-0.01-0.03-0.02c-0.01,0-0.02,0-0.03-0.01c-0.01,0-0.03-0.02-0.04-0.03 c-0.01-0.01-0.03-0.01-0.04-0.02c-0.01,0-0.05-0.03-0.05-0.03c0.05-0.22,0.26-1.12,0.24-1.54c0-0.02,0-0.04,0-0.05 c-0.01-0.24-0.04-0.47-0.09-0.71c-0.04-0.2-0.09-0.39-0.16-0.58c-0.03-0.08-0.06-0.16-0.09-0.23c-0.01-0.03-0.03-0.07-0.04-0.1 C60.59,29.15,60.57,29.11,60.56,29.08z" fill="#d0e6a5"/></g><g id="change3_7"><path d="M51.28,29.4c-0.01,0.02-0.02,0.03-0.03,0.02c-0.01-0.01-0.01-0.04-0.01-0.05c0-0.01,0-0.02,0-0.03 c0-0.01-0.01-0.02-0.01-0.03c0,0,0-0.01-0.01-0.01c0,0-0.01,0-0.01,0c-0.01,0-0.02,0-0.03,0c-0.01,0-0.02-0.01-0.03-0.02 c0,0-0.01-0.01-0.01-0.01c-0.01-0.01-0.02,0-0.03,0c0,0,0,0-0.01,0c0,0,0,0.01-0.01,0.01c0,0,0,0-0.01,0 c-0.01,0-0.03-0.01-0.03-0.02c0,0,0-0.01,0-0.01c0-0.01,0-0.01,0-0.02c0-0.01,0-0.02-0.01-0.02c0,0-0.01,0-0.01-0.01 c0,0-0.01-0.01-0.01-0.01c0,0,0-0.01,0-0.01c0-0.01-0.01-0.01-0.01-0.01c-0.01,0-0.01,0-0.02-0.01c0,0,0,0-0.01-0.01 c-0.01-0.02-0.04,0-0.05-0.01c-0.02-0.01-0.02-0.04-0.03-0.06c-0.01-0.01-0.03-0.02-0.04-0.03c-0.01-0.02,0.01-0.06-0.03-0.05 c-0.01,0-0.02,0.01-0.02,0.01c-0.01,0-0.01,0.01-0.02,0.01c0,0-0.01,0-0.01,0c-0.01,0-0.02,0-0.04,0c-0.01,0-0.01,0-0.02,0 c0,0,0,0,0,0c0,0-0.01,0-0.01,0c0,0,0-0.01-0.01-0.01c0-0.01,0-0.01,0-0.02c0,0,0,0,0-0.01c0,0-0.01,0-0.01-0.01 c0-0.01,0-0.01,0-0.02c0.01-0.01,0.01-0.02,0-0.03c0,0,0-0.01-0.01-0.01c0,0,0-0.01,0-0.01c0-0.01-0.01-0.02-0.01-0.02 c-0.01-0.01-0.01,0-0.02,0c-0.01,0-0.02-0.01-0.02-0.02c-0.01-0.01-0.02-0.01-0.03-0.01c-0.01,0-0.02-0.01-0.03-0.02 c-0.02-0.02-0.03-0.04-0.05-0.05c-0.02-0.02-0.05-0.02-0.08-0.02c-0.01,0-0.03,0.01-0.04,0.01c-0.01,0-0.02,0-0.03-0.01 c-0.01-0.01-0.03-0.01-0.04-0.01c-0.03,0-0.05,0.01-0.06,0.04c-0.02-0.02-0.03-0.05-0.03-0.09c-0.01,0-0.03,0-0.04,0 c-0.01,0.01-0.03,0.02-0.04,0.02c-0.02,0-0.02-0.03-0.04-0.02c-0.01,0-0.02,0.02-0.03,0.03c-0.01,0-0.01,0-0.02,0 c-0.01,0-0.03,0-0.04,0c-0.02,0-0.02,0-0.02-0.02c0-0.03,0.01-0.06,0.02-0.09c0.01-0.06,0.03-0.12,0.05-0.18 c0.03-0.12,0.07-0.24,0.11-0.35c0.08-0.23,0.18-0.46,0.29-0.67c0.04-0.08,0.09-0.16,0.14-0.24c0.26-0.42,0.92-1.26,1.52-1.35 c0.06-0.01,0.12-0.01,0.18-0.01c0.04,0,0.08,0.01,0.12,0.03c0.02,0.01,0.04,0.02,0.06,0.03c0.01,0.01,0.02,0.01,0.02,0.01 c0.01,0,0.01-0.01,0.02,0c0.01,0.01,0.01,0.02,0.01,0.03c0.01,0.01,0.03,0.01,0.04,0.03c0.01,0.01,0.01,0.03,0.01,0.04 c0.01,0.02,0.03,0.04,0.04,0.06c0.01,0.03,0,0.06,0.01,0.09c0.01,0,0.03,0.01,0.04,0.01c0-0.01,0.01-0.02,0.02-0.02 c0.01,0,0.02,0.01,0.02,0.01c0.01,0.01,0.02,0.01,0.02,0.01c0.01,0,0.01-0.01,0.02-0.01c0.01-0.01,0.02-0.01,0.02,0 c0,0,0,0,0.01,0.01c0.01,0.02,0.02,0.04,0.04,0.06c0.01,0.01,0.01,0.02,0.02,0.04c0,0.01,0.01,0.03,0.02,0.04 c0.01,0.01,0.03,0.01,0.04,0.01c0.01,0,0.03,0,0.03,0.02c0,0,0,0.01,0,0.01c0,0.01,0.01,0.01,0.01,0.01 c0.01,0.01,0.03,0.01,0.04,0.01c0,0,0.01,0,0.01,0c0,0,0.01,0.01,0.01,0.01c0.01,0.01,0.02,0.03,0.03,0.04c0,0,0,0.01,0.01,0.01 c0.01,0,0.02,0,0.03-0.01c0.02,0,0.03,0.02,0.05,0.03c0.02,0,0.03-0.01,0.05,0c0,0,0.01,0.01,0.01,0.01 c0.02,0.02,0.04-0.02,0.06,0.01c0.01,0.02,0.03,0.05,0.06,0.05c0.01,0,0.01,0,0.02,0c0,0,0,0.01,0,0.01c0,0.02,0.01,0.04,0.02,0.05 c0.01,0.01,0.02,0.01,0.02,0.02c0.01,0.01,0.02,0.02,0.03,0.03c0,0,0,0,0,0.01c0,0,0,0.01,0,0.01c0,0.02-0.01,0.03-0.02,0.05 c0,0.02-0.01,0.03,0,0.05c0,0,0,0.01,0.01,0.01c0,0,0,0,0.01,0c0.02,0,0.04,0.01,0.06,0.02c0.01,0,0.01,0.01,0.01,0.01 c0,0.01,0,0.01,0.01,0.02c0,0.01,0.01,0.02,0.02,0.02c0.01,0,0.01,0.01,0.02,0.01c0,0,0,0.01,0,0.01c0,0.01,0,0.02,0.01,0.03 c0,0.01,0.01,0.01,0.01,0.02c0.01,0.01,0,0.03,0.01,0.05c0,0.01,0.01,0.03,0.01,0.04c0,0.01,0.02,0.06,0.01,0.06 c-0.2,0.11-1,0.58-1.29,0.87c-0.01,0.01-0.03,0.03-0.04,0.04c-0.17,0.17-0.32,0.35-0.46,0.55c-0.12,0.16-0.22,0.33-0.32,0.51 c-0.04,0.07-0.08,0.15-0.11,0.22c-0.02,0.03-0.03,0.07-0.05,0.1C51.3,29.33,51.29,29.37,51.28,29.4z" fill="#86e3ce"/></g><g id="change3_8"><path d="M45.24,35.26c0,0.02,0,0.03-0.01,0.03c-0.01,0-0.04-0.02-0.05-0.03c-0.01-0.01-0.01-0.01-0.02-0.02 c-0.01-0.01-0.02-0.01-0.03-0.02c0,0-0.01,0-0.01,0c0,0,0,0.01-0.01,0.01c-0.01,0.01-0.01,0.02-0.02,0.02c-0.01,0-0.02,0-0.03,0 c0,0-0.01,0-0.01,0c-0.01,0-0.02,0.01-0.03,0.02c0,0,0,0,0,0c0,0,0,0.01,0,0.01c0,0,0,0,0,0c-0.01,0.01-0.03,0.01-0.04,0.01 c0,0-0.01,0-0.01,0c0,0-0.01-0.01-0.01-0.01c-0.01-0.01-0.01-0.01-0.02-0.01c0,0-0.01,0-0.01,0c0,0-0.01,0-0.01,0c0,0,0-0.01,0-0.01 c0,0-0.01,0-0.02,0c-0.01,0-0.01,0.01-0.02,0.01c0,0-0.01,0-0.01,0c-0.02,0-0.03,0.02-0.05,0.03c-0.02,0.01-0.04-0.02-0.06-0.02 c-0.02,0-0.04,0.01-0.05,0c-0.02-0.01-0.03-0.05-0.05-0.02c-0.01,0.01-0.01,0.02-0.01,0.02c0,0.01,0,0.01-0.01,0.02 c0,0-0.01,0-0.01,0.01c-0.01,0-0.02,0.01-0.03,0.02c0,0-0.01,0.01-0.01,0.01c0,0,0,0,0,0.01c0,0-0.01,0.01-0.01,0.01 c0,0-0.01,0-0.01,0c0,0-0.01-0.01-0.01-0.01c0,0,0,0-0.01,0c0,0-0.01,0-0.01,0c-0.01,0-0.01-0.01-0.01-0.02 c0-0.01-0.01-0.02-0.02-0.03c0,0-0.01,0-0.01-0.01c0,0-0.01-0.01-0.01-0.01c-0.01-0.01-0.02-0.01-0.02-0.01 c-0.01,0-0.01,0.01-0.02,0.01c-0.01,0.01-0.02,0-0.03,0c-0.02,0-0.02,0.01-0.03,0.01c-0.01,0-0.02,0-0.03,0 c-0.02,0-0.05-0.01-0.07,0c-0.03,0-0.05,0.02-0.07,0.04c-0.01,0.01-0.01,0.02-0.02,0.03c-0.01,0.01-0.02,0.01-0.03,0.02 c-0.01,0.01-0.03,0.01-0.04,0.02c-0.02,0.02-0.03,0.04-0.02,0.07c-0.03,0-0.06-0.02-0.08-0.05c-0.01,0.01-0.03,0.02-0.03,0.03 c-0.01,0.01,0,0.03-0.02,0.04c-0.01,0.01-0.04-0.01-0.05,0.01c-0.01,0.01,0,0.03,0,0.04c0,0.01-0.01,0.01-0.01,0.02 c-0.01,0.01-0.02,0.02-0.04,0.02c-0.01,0.01-0.02,0.01-0.03,0c-0.02-0.02-0.03-0.06-0.04-0.08c-0.03-0.05-0.06-0.11-0.08-0.17 c-0.05-0.11-0.1-0.22-0.15-0.34c-0.09-0.23-0.16-0.46-0.22-0.7c-0.02-0.09-0.04-0.18-0.05-0.28c-0.08-0.48-0.13-1.55,0.26-2.01 c0.04-0.05,0.08-0.09,0.13-0.12c0.03-0.02,0.07-0.04,0.11-0.06c0.02-0.01,0.04-0.01,0.06-0.02c0.01,0,0.02,0,0.02-0.01 c0.01,0,0.01-0.01,0.02-0.01c0.01,0,0.02,0.01,0.03,0.01c0.01,0,0.03-0.01,0.04,0c0.01,0,0.02,0.01,0.03,0.02 c0.02,0.01,0.05,0.01,0.07,0.02c0.03,0.01,0.04,0.04,0.07,0.06c0.01-0.01,0.03-0.01,0.04-0.02c-0.01-0.01-0.01-0.02,0-0.02 c0.01-0.01,0.02-0.01,0.03-0.01c0.01,0,0.02,0,0.02-0.01c0.01-0.01,0.01-0.02,0.01-0.02c0-0.01,0.01-0.02,0.01-0.02 c0,0,0.01,0,0.01,0c0.02,0.01,0.05,0.02,0.07,0.02c0.01,0,0.03,0.01,0.04,0.02c0.01,0.01,0.02,0.02,0.04,0.02 c0.01,0,0.02-0.01,0.03-0.02c0.01-0.01,0.02-0.02,0.04-0.01c0,0,0.01,0.01,0.01,0.01c0.01,0,0.01,0,0.02,0 c0.01,0,0.03-0.01,0.04-0.02c0,0,0.01-0.01,0.01-0.01c0,0,0.01,0,0.01,0c0.02,0,0.03,0.01,0.05,0.01c0,0,0.01,0,0.01,0 c0.01,0,0.01-0.02,0.02-0.02c0.01-0.02,0.04,0,0.06-0.01c0.01-0.01,0.02-0.03,0.04-0.03c0.01,0,0.01,0,0.02,0 c0.03,0,0.02-0.05,0.05-0.03c0.02,0.01,0.06,0.02,0.08,0c0,0,0.01-0.01,0.01-0.01c0,0,0.01,0,0.01,0.01 c0.02,0.01,0.03,0.02,0.05,0.03c0.01,0,0.02,0,0.03,0c0.01,0,0.03,0,0.04,0c0,0,0,0,0.01,0c0,0,0,0,0.01,0.01 c0.01,0.02,0.01,0.03,0.02,0.05c0.01,0.02,0.02,0.03,0.03,0.04c0,0,0.01,0,0.01,0c0,0,0,0,0.01,0c0.02-0.01,0.04-0.02,0.06-0.02 c0.01,0,0.01,0,0.02,0c0.01,0,0.01,0.01,0.02,0.01c0.01,0.01,0.02,0.01,0.03,0c0.01,0,0.01,0,0.02,0c0,0,0.01,0,0.01,0.01 c0.01,0.01,0.02,0.02,0.03,0.02c0.01,0,0.02,0,0.02,0.01c0.01,0.01,0.02,0.02,0.04,0.03c0.01,0.01,0.02,0.02,0.04,0.03 c0.01,0,0.05,0.03,0.05,0.04c-0.07,0.21-0.37,1.09-0.41,1.5c0,0.02,0,0.04,0,0.05c-0.02,0.24-0.01,0.48,0.01,0.71 c0.02,0.2,0.05,0.4,0.1,0.59c0.02,0.08,0.04,0.16,0.06,0.24c0.01,0.04,0.02,0.07,0.03,0.11C45.21,35.2,45.23,35.24,45.24,35.26z" fill="#86e3ce"/></g><g id="change5_4"><path d="M13.49,32.19c0,0.02,0,0.03-0.01,0.03c-0.01,0-0.04-0.02-0.05-0.03c-0.01-0.01-0.01-0.01-0.02-0.02 c-0.01-0.01-0.02-0.01-0.03-0.02c0,0-0.01,0-0.01,0c0,0,0,0.01-0.01,0.01c-0.01,0.01-0.01,0.02-0.02,0.02c-0.01,0-0.02,0-0.03,0 c0,0-0.01,0-0.01,0c-0.01,0-0.02,0.01-0.03,0.02c0,0,0,0,0,0c0,0,0,0.01,0,0.01c0,0,0,0,0,0c-0.01,0.01-0.03,0.01-0.04,0 c0,0-0.01,0-0.01,0c0,0-0.01-0.01-0.01-0.01c0-0.01-0.01-0.01-0.02-0.01c0,0-0.01,0-0.01,0s-0.01,0-0.01,0c0,0,0-0.01,0-0.01 c0,0-0.01,0-0.02,0c-0.01,0-0.01,0.01-0.02,0.01c0,0-0.01,0-0.01,0c-0.02,0-0.03,0.02-0.05,0.03c-0.02,0.01-0.04-0.02-0.06-0.02 c-0.02,0-0.04,0.01-0.05,0c-0.02-0.01-0.03-0.05-0.05-0.02c-0.01,0.01-0.01,0.02-0.01,0.02c0,0.01,0,0.01-0.01,0.02 c0,0-0.01,0-0.01,0.01c-0.01,0-0.02,0.01-0.03,0.02c0,0-0.01,0.01-0.01,0.01c0,0,0,0,0,0.01c0,0-0.01,0.01-0.01,0.01 c0,0-0.01,0-0.01,0c0,0-0.01-0.01-0.01-0.01c0,0,0,0-0.01,0c0,0-0.01,0-0.01,0c-0.01,0-0.01-0.01-0.01-0.02 c0-0.01-0.01-0.02-0.02-0.03c0,0-0.01,0-0.01-0.01c0,0-0.01-0.01-0.01-0.01c-0.01-0.01-0.02-0.01-0.02-0.01 c-0.01,0-0.01,0.01-0.02,0.01c-0.01,0.01-0.02,0-0.03,0c-0.02,0-0.02,0.01-0.03,0.01c-0.01,0-0.02,0-0.03,0 c-0.02,0-0.05-0.01-0.07-0.01c-0.03,0-0.05,0.02-0.07,0.04c-0.01,0.01-0.01,0.02-0.02,0.03c-0.01,0.01-0.02,0.01-0.03,0.02 c-0.01,0-0.03,0.01-0.04,0.02c-0.02,0.02-0.03,0.04-0.02,0.07c-0.03,0-0.06-0.02-0.08-0.05c-0.01,0.01-0.03,0.02-0.03,0.03 c-0.01,0.01,0,0.03-0.02,0.04c-0.01,0.01-0.04-0.01-0.05,0.01c-0.01,0.01,0,0.03,0,0.04c0,0.01-0.01,0.01-0.01,0.02 c-0.01,0.01-0.02,0.02-0.04,0.02c-0.01,0.01-0.02,0.01-0.03,0c-0.02-0.02-0.03-0.06-0.04-0.08c-0.03-0.05-0.06-0.11-0.08-0.17 c-0.05-0.11-0.1-0.22-0.15-0.34c-0.09-0.23-0.16-0.46-0.21-0.7c-0.02-0.09-0.04-0.18-0.05-0.28c-0.07-0.48-0.12-1.55,0.28-2.01 c0.04-0.04,0.08-0.09,0.13-0.12c0.03-0.02,0.07-0.04,0.11-0.06c0.02-0.01,0.04-0.01,0.06-0.02c0.01,0,0.02,0,0.02-0.01 c0.01,0,0.01-0.01,0.02-0.01c0.01,0,0.02,0.01,0.03,0.01c0.01,0,0.03-0.01,0.04,0c0.01,0,0.02,0.01,0.03,0.02 c0.02,0.01,0.05,0.01,0.07,0.02c0.03,0.01,0.04,0.04,0.07,0.06c0.01-0.01,0.03-0.01,0.04-0.02c-0.01-0.01-0.01-0.02,0-0.02 c0.01-0.01,0.02-0.01,0.03-0.01c0.01,0,0.02,0,0.02-0.01c0.01-0.01,0.01-0.02,0.01-0.02s0.01-0.02,0.01-0.02c0,0,0.01,0,0.01,0 c0.02,0.01,0.05,0.02,0.07,0.02c0.01,0,0.03,0.01,0.04,0.02c0.01,0.01,0.02,0.02,0.04,0.02c0.01,0,0.02-0.01,0.03-0.02 s0.02-0.02,0.04-0.01c0,0,0.01,0.01,0.01,0.01c0.01,0,0.01,0,0.02,0c0.01,0,0.03-0.01,0.04-0.02c0,0,0.01-0.01,0.01-0.01 c0,0,0.01,0,0.01,0c0.02,0,0.03,0.01,0.05,0.01c0,0,0.01,0,0.01,0c0.01,0,0.01-0.02,0.02-0.02c0.01-0.02,0.04,0,0.06-0.01 c0.01-0.01,0.02-0.03,0.04-0.03c0.01,0,0.01,0,0.02,0c0.03,0,0.02-0.05,0.05-0.03c0.02,0.01,0.06,0.02,0.08,0 c0,0,0.01-0.01,0.01-0.01c0,0,0.01,0,0.01,0.01c0.01,0.01,0.03,0.02,0.05,0.03c0.01,0,0.02,0,0.03,0c0.01,0,0.03,0,0.04,0 c0,0,0,0,0.01,0c0,0,0,0,0.01,0.01c0.01,0.02,0.01,0.03,0.02,0.05c0.01,0.02,0.02,0.03,0.03,0.04c0,0,0.01,0,0.01,0c0,0,0,0,0.01,0 c0.02-0.01,0.04-0.02,0.06-0.02c0.01,0,0.01,0,0.02,0c0.01,0,0.01,0.01,0.02,0.01c0.01,0.01,0.02,0.01,0.03,0c0.01,0,0.01,0,0.02,0 c0,0,0.01,0,0.01,0.01c0.01,0.01,0.02,0.02,0.03,0.02c0.01,0,0.02,0,0.02,0.01c0.01,0.01,0.02,0.02,0.04,0.03 c0.01,0.01,0.02,0.02,0.04,0.03c0.01,0,0.05,0.03,0.05,0.04c-0.08,0.21-0.38,1.09-0.42,1.5c0,0.02,0,0.04,0,0.05 c-0.02,0.24-0.02,0.48,0.01,0.71c0.02,0.2,0.05,0.4,0.09,0.59c0.02,0.08,0.04,0.16,0.06,0.24c0.01,0.04,0.02,0.07,0.03,0.11 C13.46,32.12,13.48,32.16,13.49,32.19z" fill="#ccabdb"/></g><g id="change3_9"><path d="M26.06,19.45c-0.01-0.02-0.02-0.03,0-0.03c0.01-0.01,0.04,0.01,0.05,0.01c0.01,0,0.02,0.01,0.03,0.01 c0.01,0,0.02,0.01,0.03,0.01c0,0,0.01,0,0.01,0c0,0,0-0.01,0-0.01c0-0.01,0.01-0.02,0.02-0.03c0.01-0.01,0.02-0.01,0.03-0.02 c0,0,0.01,0,0.01-0.01c0.01-0.01,0.01-0.02,0.02-0.03c0,0,0,0,0-0.01c0,0-0.01-0.01-0.01-0.01c0,0,0,0,0-0.01 c0.01-0.01,0.02-0.02,0.04-0.02c0,0,0.01,0,0.01,0c0.01,0,0.01,0.01,0.01,0.01c0.01,0,0.02,0,0.02,0c0,0,0.01,0,0.01-0.01 c0,0,0.01,0,0.01,0c0,0,0,0,0.01,0.01c0.01,0,0.01,0,0.02,0c0,0,0.01-0.01,0.01-0.01c0,0,0.01,0,0.01,0 c0.02-0.01,0.02-0.03,0.03-0.04c0.02-0.01,0.04,0,0.07,0c0.02,0,0.03-0.02,0.05-0.02c0.02,0,0.05,0.03,0.06,0c0-0.01,0-0.02,0-0.03 c0-0.01,0-0.01,0-0.02c0,0,0.01-0.01,0.01-0.01c0.01-0.01,0.01-0.02,0.02-0.03c0,0,0-0.01,0-0.02c0,0,0,0,0-0.01 c0,0,0-0.01,0.01-0.01c0,0,0.01,0,0.01,0c0.01,0,0.01,0,0.02,0c0,0,0,0,0.01,0c0,0,0.01,0,0.01,0c0.01,0,0.01,0.01,0.02,0.01 c0.01,0.01,0.02,0.02,0.03,0.02c0,0,0.01,0,0.01,0c0,0,0.01,0,0.01,0c0.01,0,0.02,0,0.03,0c0.01,0,0.01-0.01,0.01-0.02 c0.01-0.01,0.02-0.01,0.03-0.01c0.01,0,0.02-0.01,0.03-0.02c0.01-0.01,0.02-0.01,0.03-0.02c0.02-0.01,0.05-0.01,0.07-0.02 c0.02-0.01,0.04-0.04,0.05-0.06c0-0.01,0-0.03,0.01-0.04c0-0.01,0.01-0.02,0.02-0.03c0.01-0.01,0.02-0.02,0.03-0.03 c0.01-0.02,0.01-0.05,0-0.07c0.03-0.01,0.06,0,0.09,0.01c0.01-0.01,0.02-0.03,0.02-0.04c0-0.02-0.01-0.03,0-0.05 c0.01-0.01,0.04-0.01,0.04-0.02c0-0.01-0.01-0.03-0.02-0.04c0-0.01,0-0.01,0.01-0.02c0.01-0.01,0.02-0.02,0.02-0.04 c0.01-0.01,0.01-0.02,0.03-0.01c0.03,0.01,0.05,0.04,0.07,0.06c0.05,0.04,0.09,0.08,0.14,0.12c0.09,0.08,0.18,0.17,0.27,0.26 c0.17,0.18,0.33,0.36,0.47,0.56c0.05,0.08,0.11,0.15,0.15,0.23c0.26,0.42,0.72,1.38,0.53,1.96c-0.02,0.06-0.04,0.11-0.07,0.16 c-0.02,0.03-0.05,0.07-0.08,0.09c-0.02,0.02-0.03,0.03-0.05,0.04c-0.01,0.01-0.01,0.01-0.02,0.02c0,0.01,0,0.01-0.01,0.02 c-0.01,0-0.02,0-0.03,0c-0.01,0-0.02,0.02-0.04,0.02c-0.01,0-0.03,0-0.04-0.01c-0.02,0-0.05,0.01-0.07,0.01 c-0.03,0-0.06-0.02-0.09-0.03c-0.01,0.01-0.02,0.02-0.03,0.03c0.01,0,0.01,0.02,0.01,0.02c0,0.01-0.01,0.01-0.02,0.02 c-0.01,0-0.02,0.01-0.02,0.02c0,0.01,0,0.02,0,0.02c0,0.01,0,0.02-0.01,0.02c0,0-0.01,0-0.01,0c-0.02,0-0.05,0-0.07,0.01 c-0.01,0-0.03,0-0.04,0c-0.01,0-0.03-0.01-0.04,0c-0.01,0.01-0.02,0.02-0.02,0.03c-0.01,0.01-0.01,0.03-0.03,0.02 c-0.01,0-0.01,0-0.02,0c-0.01,0-0.01,0-0.02,0.01c-0.01,0.01-0.02,0.02-0.03,0.03c0,0,0,0.01-0.01,0.01c0,0-0.01,0-0.01,0 c-0.02,0-0.03,0-0.05,0c0,0-0.01,0-0.01,0c-0.01,0.01,0,0.02-0.01,0.03c-0.01,0.02-0.04,0.02-0.05,0.03 c-0.01,0.01-0.01,0.03-0.02,0.04c-0.01,0-0.01,0-0.02,0c-0.03,0.01,0,0.05-0.04,0.05c-0.03,0-0.06,0-0.07,0.03c0,0,0,0.01-0.01,0.01 c0,0-0.01,0-0.01,0c-0.02-0.01-0.04-0.01-0.06,0c-0.01,0-0.02,0.01-0.02,0.01c-0.01,0.01-0.02,0.01-0.04,0.02c0,0,0,0-0.01,0 c0,0-0.01,0-0.01,0c-0.01-0.01-0.02-0.03-0.03-0.04s-0.03-0.02-0.04-0.02c0,0-0.01,0-0.01,0c0,0,0,0,0,0.01 c-0.01,0.02-0.03,0.03-0.05,0.04c-0.01,0-0.01,0.01-0.02,0.01c-0.01,0-0.01,0-0.02,0c-0.01,0-0.02,0-0.03,0.01 c-0.01,0-0.01,0.01-0.02,0.01c0,0-0.01,0-0.01,0c-0.01,0-0.02-0.01-0.03-0.01c-0.01,0-0.02,0-0.03,0c-0.01,0-0.03-0.01-0.04-0.01 c-0.01,0-0.03-0.01-0.04-0.01c-0.01,0-0.06-0.01-0.06-0.02c-0.01-0.23-0.07-1.15-0.2-1.54c-0.01-0.02-0.01-0.03-0.02-0.05 c-0.08-0.22-0.17-0.44-0.28-0.66c-0.09-0.18-0.2-0.35-0.32-0.51c-0.05-0.07-0.1-0.13-0.15-0.2c-0.02-0.03-0.05-0.06-0.07-0.09 C26.11,19.5,26.08,19.47,26.06,19.45z" fill="#86e3ce"/></g><g id="change3_10"><path d="M35.29,81.47c-0.01,0.03-0.02,0.05-0.04,0.04c-0.02-0.01-0.03-0.05-0.04-0.07c-0.01-0.01-0.01-0.03-0.02-0.04 c-0.01-0.02-0.02-0.03-0.03-0.05c0-0.01-0.01-0.01-0.02-0.01c-0.01,0-0.01,0-0.02,0.01c-0.01,0.01-0.03,0.01-0.05,0.01 c-0.02,0-0.03-0.01-0.05-0.02c-0.01,0-0.01-0.01-0.02-0.01c-0.02,0-0.03,0-0.05,0.01c0,0-0.01,0-0.01,0c0,0.01,0,0.01-0.01,0.02 c0,0,0,0-0.01,0c-0.02,0-0.04-0.01-0.06-0.02c0,0-0.01-0.01-0.01-0.01c0-0.01,0-0.02,0-0.02c0-0.01-0.01-0.02-0.02-0.03 c-0.01,0-0.01,0-0.02,0c-0.01,0-0.01-0.01-0.01-0.01c0,0,0-0.01,0-0.01c0-0.01-0.01-0.01-0.02-0.01c-0.01,0-0.02,0-0.03,0 c0,0-0.01-0.01-0.01-0.01c-0.03-0.02-0.06,0.01-0.08,0.01c-0.03-0.01-0.04-0.05-0.07-0.07c-0.02-0.01-0.05-0.01-0.07-0.03 c-0.02-0.03-0.01-0.09-0.06-0.07c-0.01,0.01-0.02,0.02-0.03,0.03c-0.01,0.01-0.01,0.02-0.02,0.02c-0.01,0-0.01,0-0.02,0 c-0.02,0-0.04,0-0.06,0.01c-0.01,0-0.02,0-0.02,0.01c0,0,0,0.01-0.01,0.01c0,0-0.01,0-0.02,0c-0.01,0-0.01-0.01-0.01-0.01 c0-0.01-0.01-0.02-0.01-0.02c0,0,0-0.01-0.01-0.01c0,0-0.01,0-0.01-0.01c-0.01-0.01,0-0.02,0-0.03c0-0.02,0-0.04-0.01-0.05 c0-0.01-0.01-0.01-0.01-0.02c0-0.01-0.01-0.01-0.01-0.02c-0.01-0.01-0.02-0.02-0.03-0.03c-0.01-0.01-0.02,0-0.03,0 c-0.02,0-0.03-0.01-0.04-0.02c-0.02-0.01-0.03,0-0.05-0.01c-0.02,0-0.03-0.01-0.05-0.02c-0.03-0.02-0.06-0.04-0.09-0.06 c-0.04-0.01-0.08-0.01-0.12,0c-0.02,0.01-0.03,0.02-0.05,0.03c-0.02,0.01-0.03,0.01-0.05,0c-0.02,0-0.05-0.01-0.07,0 c-0.04,0.01-0.07,0.04-0.08,0.08c-0.04-0.02-0.06-0.07-0.07-0.12c-0.02,0-0.05,0-0.06,0.02c-0.02,0.02-0.03,0.04-0.05,0.05 c-0.02,0-0.05-0.03-0.07-0.02c-0.02,0.01-0.01,0.04-0.03,0.06c-0.01,0.01-0.02,0.01-0.03,0.01c-0.02,0-0.04,0.01-0.07,0.01 c-0.03,0-0.03,0.01-0.04-0.02c-0.01-0.04,0-0.1,0-0.14c0-0.09,0-0.19,0-0.28c0-0.19,0.01-0.37,0.03-0.56 c0.03-0.37,0.09-0.74,0.18-1.09c0.03-0.14,0.07-0.27,0.12-0.41c0.22-0.71,0.88-2.19,1.73-2.54c0.08-0.03,0.17-0.06,0.26-0.08 c0.06-0.01,0.12-0.01,0.18,0c0.03,0,0.07,0.01,0.1,0.02c0.02,0,0.03,0.01,0.04,0.01c0.01,0,0.02-0.01,0.03,0 c0.01,0.01,0.02,0.02,0.03,0.03c0.02,0.01,0.04,0.01,0.06,0.02c0.02,0.01,0.02,0.04,0.03,0.05c0.02,0.03,0.06,0.04,0.08,0.07 c0.03,0.04,0.03,0.09,0.05,0.13c0.02,0,0.04,0,0.06,0c-0.01-0.01,0.01-0.03,0.02-0.03c0.01,0,0.03,0,0.04,0.01s0.03,0.01,0.04,0 c0.01-0.01,0.02-0.02,0.03-0.03c0.01-0.01,0.02-0.02,0.03-0.01c0,0,0.01,0.01,0.01,0.01c0.03,0.03,0.05,0.05,0.08,0.08 c0.01,0.01,0.03,0.03,0.04,0.05c0.01,0.02,0.02,0.04,0.04,0.05c0.02,0.01,0.04,0,0.06-0.01s0.04-0.01,0.06,0.01 c0,0.01,0.01,0.01,0.01,0.02c0.01,0.01,0.02,0.01,0.02,0.01c0.02,0,0.04,0,0.06,0c0.01,0,0.01,0,0.02,0c0.01,0,0.01,0.01,0.01,0.01 c0.02,0.02,0.04,0.03,0.05,0.05c0,0,0.01,0.01,0.02,0.01c0.01,0,0.03-0.01,0.04-0.02c0.03-0.01,0.06,0.02,0.09,0.02 c0.02,0,0.05-0.02,0.07-0.01c0.01,0,0.01,0.01,0.02,0.01c0.04,0.02,0.06-0.05,0.09-0.01c0.03,0.03,0.06,0.07,0.1,0.06 c0.01,0,0.02-0.01,0.02,0c0,0,0.01,0.01,0.01,0.01c0.01,0.03,0.03,0.06,0.05,0.07c0.01,0.01,0.03,0.01,0.04,0.01 c0.02,0.01,0.04,0.02,0.06,0.03c0,0,0.01,0,0.01,0.01c0,0,0,0.01,0,0.01c0,0.03-0.01,0.05-0.01,0.08c0,0.03,0,0.05,0.02,0.07 c0,0,0.01,0.01,0.01,0.01c0,0,0.01,0,0.01,0c0.03,0,0.06,0,0.09,0.01c0.01,0,0.02,0.01,0.03,0.01c0.01,0.01,0.01,0.02,0.02,0.02 c0.01,0.01,0.02,0.02,0.04,0.03c0.01,0,0.02,0,0.03,0.01c0,0,0.01,0.01,0.01,0.02c0.01,0.02,0.01,0.03,0.03,0.05 c0.01,0.01,0.02,0.02,0.03,0.03c0.01,0.02,0.02,0.05,0.03,0.07c0.01,0.02,0.02,0.04,0.03,0.06c0,0.01,0.04,0.08,0.03,0.08 c-0.25,0.24-1.25,1.22-1.58,1.76c-0.01,0.02-0.03,0.05-0.04,0.07c-0.18,0.31-0.34,0.64-0.47,0.97c-0.11,0.28-0.2,0.57-0.27,0.87 c-0.03,0.12-0.06,0.25-0.08,0.37c-0.01,0.05-0.02,0.11-0.03,0.17C35.3,81.36,35.3,81.43,35.29,81.47z" fill="#86e3ce"/></g><g id="change2_7"><path d="M34.32,34.02c-0.02,0.02-0.04,0.03-0.05,0.01c-0.01-0.02,0-0.06,0.01-0.08c0-0.01,0.01-0.03,0.01-0.04 c0-0.02,0-0.04,0-0.05c0-0.01,0-0.02-0.01-0.02c0,0-0.01,0-0.02,0c-0.02,0-0.03-0.01-0.04-0.02c-0.01-0.01-0.02-0.03-0.03-0.04 c0-0.01-0.01-0.01-0.01-0.02c-0.01-0.01-0.03-0.02-0.04-0.02c0,0-0.01,0-0.01,0c-0.01,0-0.01,0.01-0.02,0.01c0,0-0.01,0-0.01,0 c-0.02-0.01-0.03-0.03-0.04-0.05c0,0,0-0.01,0-0.01c0-0.01,0.01-0.01,0.01-0.02c0-0.01,0-0.02,0-0.03c0,0-0.01-0.01-0.01-0.01 c0,0-0.01-0.01,0-0.02c0,0,0.01-0.01,0.01-0.01c0-0.01,0-0.02-0.01-0.02c-0.01,0-0.02-0.01-0.02-0.02c0,0,0-0.01,0-0.01 c-0.01-0.03-0.05-0.02-0.07-0.04c-0.02-0.02,0-0.07-0.02-0.1c-0.01-0.02-0.04-0.04-0.04-0.07c0-0.03,0.04-0.08-0.01-0.09 c-0.01,0-0.03,0-0.04,0.01c-0.01,0-0.02,0.01-0.03,0.01c-0.01,0-0.01-0.01-0.02-0.01c-0.01-0.01-0.03-0.02-0.05-0.03 c-0.01,0-0.02-0.01-0.02,0c0,0-0.01,0-0.01,0c-0.01,0-0.01,0-0.01-0.01c0-0.01,0-0.01,0-0.02c0-0.01,0-0.02,0-0.03 c0,0,0-0.01,0-0.01c0-0.01-0.01-0.01-0.01-0.01c0-0.01,0.01-0.02,0.02-0.03c0.01-0.01,0.02-0.03,0.02-0.05c0-0.01,0-0.01,0-0.02 c0-0.01,0-0.01,0-0.02c0-0.01,0-0.03-0.01-0.04c-0.01-0.01-0.02-0.01-0.03-0.02c-0.01-0.01-0.02-0.02-0.03-0.04 c-0.01-0.02-0.02-0.02-0.04-0.03c-0.01-0.01-0.02-0.03-0.03-0.04c-0.02-0.03-0.03-0.07-0.05-0.1c-0.02-0.03-0.06-0.05-0.1-0.06 c-0.02,0-0.04,0-0.06,0c-0.02,0-0.03-0.01-0.05-0.03c-0.02-0.02-0.03-0.03-0.06-0.04c-0.04-0.01-0.08-0.01-0.11,0.02 c-0.02-0.04-0.01-0.09,0-0.14c-0.02-0.01-0.04-0.02-0.06-0.02c-0.02,0-0.05,0.02-0.07,0.01c-0.02-0.01-0.02-0.05-0.04-0.06 c-0.02,0-0.04,0.03-0.06,0.03c-0.01,0-0.02,0-0.03-0.01c-0.02-0.01-0.04-0.02-0.06-0.03c-0.02-0.01-0.03-0.01-0.02-0.04 c0.02-0.04,0.05-0.08,0.08-0.12c0.05-0.08,0.1-0.16,0.16-0.23c0.11-0.15,0.22-0.3,0.34-0.44c0.24-0.29,0.49-0.56,0.77-0.8 c0.11-0.09,0.21-0.19,0.33-0.27c0.58-0.46,1.96-1.32,2.86-1.13c0.09,0.02,0.18,0.04,0.26,0.08c0.05,0.03,0.11,0.06,0.15,0.1 c0.03,0.02,0.05,0.04,0.07,0.07c0.01,0.01,0.02,0.02,0.03,0.03c0.01,0.01,0.02,0,0.03,0.02c0,0.01,0,0.03,0.01,0.04 c0.01,0.02,0.03,0.03,0.04,0.05c0.01,0.02,0,0.04,0,0.06c0,0.04,0.03,0.07,0.03,0.11c0,0.05-0.03,0.09-0.03,0.14 c0.02,0.01,0.04,0.02,0.05,0.04c0-0.01,0.02-0.02,0.03-0.01c0.01,0.01,0.02,0.02,0.03,0.03s0.02,0.02,0.03,0.03 c0.01,0,0.02,0,0.04-0.01c0.01,0,0.03,0,0.03,0.01c0,0,0,0.01,0,0.01c0.01,0.04,0.01,0.07,0.02,0.11c0,0.02,0.01,0.04,0.01,0.06 c0,0.02-0.01,0.05,0,0.06c0.01,0.02,0.03,0.02,0.05,0.03c0.02,0.01,0.04,0.02,0.04,0.04c0,0.01,0,0.02,0,0.02 c0,0.01,0.01,0.02,0.01,0.02c0.02,0.01,0.03,0.03,0.05,0.03c0.01,0,0.01,0.01,0.02,0.01c0,0,0,0.01,0.01,0.02 c0,0.02,0.01,0.05,0.01,0.07c0,0.01,0,0.01,0.01,0.02c0.01,0.01,0.03,0,0.04,0.01c0.03,0.01,0.04,0.05,0.06,0.07 c0.02,0.01,0.05,0.01,0.07,0.03c0,0.01,0,0.02,0.01,0.02c0.02,0.04,0.07-0.01,0.08,0.05c0.01,0.04,0.01,0.09,0.05,0.1 c0.01,0,0.02,0.01,0.02,0.01c0,0,0,0.01,0,0.02c-0.01,0.03-0.01,0.06,0.01,0.09c0.01,0.01,0.02,0.02,0.02,0.03 c0.01,0.02,0.02,0.03,0.03,0.05c0,0,0,0.01,0,0.01c0,0,0,0.01-0.01,0.01c-0.01,0.02-0.03,0.04-0.05,0.06 c-0.02,0.02-0.03,0.05-0.03,0.07c0,0,0,0.01,0,0.01c0,0,0.01,0,0.01,0.01c0.03,0.01,0.05,0.04,0.07,0.06 c0.01,0.01,0.01,0.02,0.01,0.02c0,0.01,0,0.02,0,0.03c0,0.02,0.01,0.03,0.02,0.04c0.01,0.01,0.02,0.01,0.02,0.02 c0,0.01,0,0.01,0,0.02c0,0.02-0.01,0.04-0.01,0.05c0,0.01,0.01,0.03,0.01,0.04c0,0.02-0.01,0.05-0.01,0.07 c0,0.02-0.01,0.04-0.01,0.07c0,0.01-0.01,0.09-0.02,0.09c-0.34,0.06-1.72,0.31-2.29,0.57c-0.02,0.01-0.05,0.02-0.07,0.03 c-0.32,0.15-0.64,0.33-0.94,0.54c-0.25,0.17-0.49,0.36-0.72,0.57c-0.09,0.08-0.19,0.17-0.28,0.26c-0.04,0.04-0.08,0.08-0.12,0.12 C34.4,33.93,34.36,33.99,34.32,34.02z" fill="#fff78c"/></g><g id="change3_11"><path d="M16.34,16.61c0.03-0.01,0.05-0.02,0.05,0c0.01,0.02-0.02,0.06-0.03,0.08c-0.01,0.01-0.01,0.02-0.02,0.04 c-0.01,0.02-0.01,0.03-0.02,0.05c0,0.01,0,0.02,0,0.02c0,0,0.01,0,0.02,0.01c0.02,0,0.03,0.02,0.04,0.03 c0.01,0.01,0.01,0.03,0.02,0.05c0,0.01,0,0.01,0.01,0.02c0.01,0.01,0.02,0.02,0.04,0.03c0,0,0.01,0,0.01,0 c0.01,0,0.01-0.01,0.02-0.01c0,0,0.01,0,0.01,0c0.02,0.01,0.02,0.04,0.02,0.06c0,0.01,0,0.01,0,0.01c0,0.01-0.01,0.01-0.01,0.02 c-0.01,0.01-0.01,0.02-0.01,0.03c0,0.01,0.01,0.01,0.01,0.02c0,0.01,0,0.01,0,0.02c0,0-0.01,0.01-0.01,0.01 c-0.01,0.01,0,0.02,0,0.02c0.01,0.01,0.01,0.01,0.02,0.02c0,0,0,0.01,0,0.01c0,0.03,0.05,0.03,0.06,0.06 c0.02,0.03-0.01,0.07-0.01,0.1c0,0.03,0.03,0.05,0.02,0.07c-0.01,0.03-0.06,0.06-0.01,0.09c0.01,0.01,0.03,0.01,0.04,0 c0.01,0,0.02,0,0.03,0c0.01,0,0.01,0.01,0.01,0.01c0.01,0.01,0.03,0.03,0.04,0.04c0.01,0,0.01,0.01,0.02,0.01c0,0,0.01,0,0.01,0 c0.01,0,0.01,0.01,0.01,0.01c0,0.01,0,0.01,0,0.02c0,0.01-0.01,0.02-0.01,0.02c0,0,0,0.01,0,0.01c0,0.01,0,0.01,0,0.02 c0,0.01-0.01,0.02-0.02,0.02c-0.02,0.01-0.03,0.02-0.03,0.04c0,0.01,0,0.01,0,0.02c0,0.01,0,0.01-0.01,0.02 c-0.01,0.01-0.01,0.03,0,0.04c0,0.02,0.01,0.01,0.02,0.02c0.01,0.01,0.01,0.03,0.01,0.05c0,0.02,0.02,0.03,0.03,0.04 c0.01,0.01,0.01,0.03,0.02,0.05c0.01,0.04,0.01,0.07,0.02,0.11c0.01,0.04,0.05,0.07,0.08,0.09c0.02,0.01,0.04,0.01,0.06,0.02 c0.02,0.01,0.03,0.02,0.04,0.04c0.01,0.02,0.03,0.04,0.04,0.05c0.03,0.02,0.08,0.03,0.11,0.01c0.01,0.04-0.01,0.09-0.04,0.13 c0.02,0.02,0.03,0.03,0.06,0.03c0.02,0,0.05-0.01,0.07,0.01c0.02,0.02,0.01,0.05,0.03,0.06c0.02,0.01,0.04-0.02,0.06-0.02 c0.01,0,0.02,0.01,0.03,0.01c0.02,0.01,0.03,0.03,0.05,0.04c0.02,0.02,0.03,0.02,0.01,0.04c-0.03,0.04-0.07,0.07-0.1,0.1 c-0.07,0.06-0.14,0.13-0.21,0.19c-0.14,0.12-0.29,0.24-0.44,0.35c-0.3,0.22-0.61,0.42-0.94,0.59c-0.13,0.07-0.25,0.13-0.38,0.18 c-0.68,0.3-2.22,0.79-3.05,0.39c-0.08-0.04-0.16-0.08-0.23-0.14c-0.05-0.04-0.09-0.08-0.12-0.13c-0.02-0.03-0.04-0.06-0.05-0.09 c-0.01-0.01-0.01-0.02-0.02-0.03c-0.01-0.01-0.02,0-0.02-0.02c0-0.01,0.01-0.03,0-0.04c0-0.02-0.02-0.04-0.02-0.06 c0-0.02,0.01-0.04,0.02-0.06c0.01-0.04-0.01-0.07,0-0.11c0.01-0.05,0.05-0.08,0.06-0.13c-0.01-0.02-0.03-0.03-0.04-0.05 c-0.01,0.01-0.03,0.01-0.04,0.01c-0.01-0.01-0.01-0.02-0.02-0.04c0-0.01-0.01-0.03-0.02-0.03c-0.01-0.01-0.02,0-0.04,0 c-0.01,0-0.03,0-0.03-0.01c0,0,0-0.01,0-0.01c0-0.04,0-0.07,0.01-0.11c0-0.02,0-0.04,0.01-0.06c0.01-0.02,0.02-0.04,0.01-0.06 c-0.01-0.02-0.03-0.03-0.04-0.04s-0.03-0.03-0.03-0.05c0-0.01,0.01-0.01,0.01-0.02c0-0.01,0-0.02-0.01-0.02 c-0.01-0.02-0.03-0.03-0.04-0.05c-0.01,0-0.01-0.01-0.01-0.02c0-0.01,0-0.01,0-0.02c0-0.02,0-0.05,0-0.07c0-0.01,0-0.01,0-0.02 c-0.01-0.01-0.03-0.01-0.04-0.02c-0.03-0.01-0.02-0.06-0.04-0.08c-0.02-0.02-0.05-0.02-0.06-0.05c0-0.01,0-0.02,0-0.02 c-0.01-0.04-0.07-0.01-0.07-0.07c0-0.04,0.01-0.09-0.03-0.11c-0.01,0-0.02-0.01-0.02-0.02c0,0,0-0.01,0-0.01 c0.01-0.03,0.02-0.06,0.02-0.09c0-0.01-0.01-0.03-0.02-0.04c-0.01-0.02-0.01-0.04-0.02-0.06c0,0,0-0.01,0-0.01c0,0,0-0.01,0.01-0.01 c0.02-0.02,0.04-0.03,0.06-0.04c0.02-0.02,0.04-0.04,0.04-0.06c0,0,0-0.01,0-0.01c0,0,0-0.01-0.01-0.01 c-0.02-0.02-0.04-0.05-0.05-0.08c0-0.01-0.01-0.02-0.01-0.03c0-0.01,0-0.02,0.01-0.03c0-0.02,0-0.03,0-0.05 c0-0.01-0.01-0.02-0.01-0.03c0-0.01,0-0.01,0.01-0.02c0.01-0.02,0.02-0.03,0.02-0.05c0-0.01,0-0.03,0-0.04 c0-0.02,0.02-0.04,0.03-0.06c0.01-0.02,0.02-0.04,0.02-0.06c0-0.01,0.03-0.08,0.04-0.08c0.34,0.03,1.74,0.13,2.36,0.02 c0.03,0,0.05-0.01,0.08-0.02c0.35-0.07,0.7-0.17,1.04-0.29c0.28-0.1,0.56-0.23,0.83-0.37c0.11-0.06,0.22-0.12,0.33-0.19 c0.05-0.03,0.1-0.06,0.14-0.09C16.25,16.68,16.3,16.63,16.34,16.61z" fill="#86e3ce"/></g><g id="change3_12"><path d="M62.24,20.48c0.01,0.03,0.01,0.05-0.01,0.05c-0.02,0-0.06-0.02-0.08-0.04c-0.01-0.01-0.02-0.02-0.04-0.02 c-0.02-0.01-0.03-0.02-0.05-0.02c-0.01,0-0.02,0-0.02,0c0,0-0.01,0.01-0.01,0.02c-0.01,0.02-0.02,0.03-0.03,0.03 c-0.01,0.01-0.03,0.01-0.05,0.01c-0.01,0-0.02,0-0.02,0c-0.02,0.01-0.03,0.02-0.03,0.03c0,0,0,0,0,0.01c0,0.01,0.01,0.01,0.01,0.02 c0,0,0,0.01,0,0.01c-0.01,0.02-0.04,0.02-0.06,0.02c0,0-0.01,0-0.01,0c-0.01,0-0.01-0.01-0.02-0.02c-0.01-0.01-0.02-0.01-0.03-0.01 c-0.01,0-0.01,0-0.02,0.01c-0.01,0-0.01,0-0.02,0c0,0,0-0.01-0.01-0.01c-0.01-0.01-0.02,0-0.02,0c-0.01,0.01-0.01,0.01-0.02,0.01 c0,0-0.01,0-0.01,0c-0.03,0-0.04,0.04-0.06,0.05c-0.03,0.01-0.07-0.02-0.1-0.02c-0.03,0-0.05,0.02-0.08,0.01 c-0.03-0.01-0.06-0.06-0.08-0.02c-0.01,0.01-0.01,0.03-0.01,0.04c0,0.01,0,0.02,0,0.03c0,0.01-0.01,0.01-0.02,0.01 c-0.02,0.01-0.03,0.02-0.04,0.04c-0.01,0.01-0.01,0.01-0.01,0.02c0,0,0,0.01,0,0.01c0,0.01-0.01,0.01-0.01,0.01 c-0.01,0-0.01,0-0.02,0c-0.01,0-0.02-0.01-0.02-0.01c0,0-0.01,0-0.01,0c-0.01,0-0.01,0-0.02,0c-0.01,0-0.02-0.02-0.02-0.03 c-0.01-0.02-0.02-0.03-0.04-0.03c-0.01,0-0.01,0-0.02-0.01c-0.01,0-0.01-0.01-0.02-0.01c-0.01-0.01-0.03-0.01-0.04-0.01 c-0.02,0-0.02,0.01-0.03,0.02c-0.01,0.01-0.03,0.01-0.05,0.01c-0.02,0-0.03,0.02-0.05,0.03c-0.01,0.01-0.03,0.01-0.05,0.01 c-0.04,0-0.07,0-0.11,0.01c-0.04,0.01-0.07,0.04-0.09,0.07c-0.01,0.02-0.02,0.04-0.03,0.06c-0.01,0.02-0.02,0.02-0.04,0.03 c-0.02,0.01-0.04,0.02-0.06,0.04c-0.03,0.03-0.03,0.07-0.02,0.11c-0.04,0.01-0.09-0.02-0.13-0.05c-0.02,0.01-0.04,0.03-0.04,0.05 c0,0.02,0,0.05-0.02,0.07c-0.02,0.01-0.06,0-0.07,0.02c-0.01,0.02,0.01,0.04,0.01,0.06c0,0.01-0.01,0.02-0.02,0.03 c-0.02,0.02-0.03,0.03-0.05,0.05c-0.02,0.02-0.02,0.02-0.04,0.01c-0.03-0.03-0.06-0.08-0.09-0.11c-0.06-0.07-0.11-0.15-0.16-0.23 c-0.11-0.15-0.21-0.31-0.3-0.47c-0.19-0.32-0.35-0.65-0.49-0.99c-0.05-0.13-0.1-0.26-0.15-0.4c-0.23-0.71-0.57-2.29-0.09-3.07 c0.05-0.08,0.1-0.15,0.16-0.21c0.04-0.04,0.09-0.08,0.14-0.11c0.03-0.02,0.06-0.03,0.09-0.04c0.02-0.01,0.03-0.01,0.04-0.02 c0.01-0.01,0.01-0.02,0.03-0.02c0.01,0,0.03,0.01,0.04,0.01c0.02,0,0.04-0.02,0.06-0.02c0.02,0,0.04,0.02,0.06,0.02 c0.04,0.01,0.07,0,0.11,0.01c0.04,0.01,0.08,0.06,0.12,0.07c0.02-0.01,0.03-0.03,0.05-0.04c-0.01-0.01-0.01-0.03,0-0.04 c0.01-0.01,0.02-0.01,0.04-0.02c0.01,0,0.03-0.01,0.03-0.02c0.01-0.01,0-0.02,0-0.04c0-0.01,0.01-0.03,0.02-0.03c0,0,0.01,0,0.01,0 c0.04,0.01,0.07,0.01,0.11,0.02c0.02,0,0.04,0.01,0.06,0.01c0.02,0.01,0.04,0.02,0.06,0.02c0.02,0,0.03-0.02,0.04-0.04 c0.01-0.02,0.03-0.03,0.05-0.03c0.01,0,0.01,0.01,0.02,0.01c0.01,0,0.02,0,0.03-0.01c0.02-0.01,0.04-0.02,0.05-0.04 c0-0.01,0.01-0.01,0.02-0.01c0.01,0,0.01,0,0.02,0c0.02,0,0.05,0.01,0.07,0.01c0.01,0,0.01,0,0.02,0c0.01-0.01,0.01-0.03,0.02-0.04 c0.02-0.03,0.06-0.02,0.09-0.03c0.02-0.01,0.03-0.05,0.05-0.05c0.01,0,0.02,0,0.02,0c0.05-0.01,0.02-0.07,0.07-0.06 c0.04,0.01,0.09,0.02,0.12-0.01c0.01-0.01,0.01-0.01,0.02-0.01c0,0,0.01,0,0.01,0.01c0.03,0.02,0.06,0.03,0.08,0.02 c0.01,0,0.03-0.01,0.04-0.01c0.02-0.01,0.04-0.01,0.06-0.01c0,0,0.01,0,0.01,0c0,0,0.01,0.01,0.01,0.01 c0.01,0.02,0.02,0.04,0.04,0.07c0.01,0.02,0.03,0.04,0.06,0.05c0,0,0.01,0,0.01,0c0,0,0.01,0,0.01-0.01 c0.02-0.02,0.05-0.03,0.08-0.04c0.01,0,0.02-0.01,0.03-0.01c0.01,0,0.02,0.01,0.03,0.01c0.01,0.01,0.03,0.01,0.05,0 c0.01,0,0.02-0.01,0.03-0.01c0.01,0,0.01,0.01,0.02,0.01c0.01,0.01,0.03,0.02,0.05,0.02c0.01,0,0.03,0,0.04,0.01 c0.02,0.01,0.04,0.03,0.06,0.04c0.02,0.01,0.04,0.02,0.06,0.03c0.01,0,0.08,0.04,0.08,0.05c-0.06,0.34-0.3,1.72-0.25,2.35 c0,0.03,0,0.05,0.01,0.08c0.03,0.36,0.1,0.71,0.19,1.07c0.08,0.29,0.17,0.58,0.29,0.87c0.05,0.12,0.1,0.23,0.15,0.35 c0.02,0.05,0.05,0.1,0.07,0.15C62.19,20.39,62.23,20.44,62.24,20.48z" fill="#86e3ce"/></g><g id="change3_13"><path d="M42.9,14.5c-0.03,0.01-0.05,0.01-0.05-0.01c0-0.02,0.03-0.05,0.05-0.07c0.01-0.01,0.02-0.02,0.03-0.03 c0.01-0.01,0.02-0.03,0.03-0.05c0-0.01,0.01-0.01,0-0.02c0-0.01-0.01-0.01-0.01-0.01c-0.01-0.01-0.02-0.02-0.03-0.04 c0-0.02-0.01-0.03,0-0.05c0-0.01,0-0.02,0-0.02c0-0.02-0.02-0.03-0.03-0.04c0,0,0,0-0.01,0c-0.01,0-0.01,0-0.02,0c0,0,0,0-0.01-0.01 c-0.01-0.02-0.01-0.04-0.01-0.06c0,0,0-0.01,0.01-0.01c0-0.01,0.01-0.01,0.02-0.01c0.01-0.01,0.02-0.02,0.01-0.03 c0-0.01,0-0.01,0-0.02c0-0.01,0-0.01,0.01-0.02c0,0,0.01,0,0.01-0.01c0.01-0.01,0.01-0.02,0-0.02c0-0.01-0.01-0.01-0.01-0.02 c0,0,0-0.01,0-0.01c0-0.03-0.04-0.04-0.04-0.07c-0.01-0.03,0.03-0.06,0.03-0.1c0-0.03-0.02-0.05,0-0.08 c0.01-0.03,0.07-0.05,0.03-0.08c-0.01-0.01-0.02-0.01-0.04-0.01c-0.01,0-0.02,0-0.03-0.01c0,0-0.01-0.01-0.01-0.02 c-0.01-0.02-0.02-0.03-0.03-0.05c-0.01-0.01-0.01-0.01-0.02-0.01c0,0-0.01,0-0.01,0c-0.01,0-0.01-0.01-0.01-0.01 c0-0.01,0-0.01,0.01-0.02c0-0.01,0.01-0.01,0.02-0.02c0,0,0-0.01,0.01-0.01c0-0.01,0-0.01,0-0.02c0-0.01,0.02-0.01,0.03-0.02 c0.02,0,0.03-0.02,0.04-0.03c0-0.01,0.01-0.01,0.01-0.02c0-0.01,0.01-0.01,0.01-0.01c0.01-0.01,0.01-0.02,0.01-0.04 c0-0.02-0.01-0.02-0.02-0.03c-0.01-0.01,0-0.03,0-0.05c0-0.02-0.01-0.03-0.02-0.05c-0.01-0.02-0.01-0.04,0-0.05 c0-0.04,0.01-0.07,0.01-0.11c0-0.04-0.03-0.08-0.06-0.1c-0.02-0.01-0.03-0.02-0.05-0.03c-0.02-0.01-0.02-0.02-0.03-0.04 c-0.01-0.02-0.02-0.04-0.03-0.06c-0.02-0.03-0.07-0.04-0.11-0.04c0-0.05,0.04-0.08,0.07-0.12c-0.01-0.02-0.03-0.04-0.05-0.05 c-0.02-0.01-0.05,0-0.06-0.03c-0.01-0.02,0.01-0.05-0.01-0.07c-0.02-0.01-0.04,0.01-0.06,0c-0.01,0-0.02-0.01-0.02-0.02 c-0.01-0.02-0.03-0.04-0.04-0.06c-0.01-0.02-0.02-0.03,0-0.04c0.03-0.03,0.09-0.05,0.12-0.07c0.08-0.04,0.17-0.09,0.25-0.13 c0.17-0.08,0.34-0.16,0.51-0.23c0.35-0.14,0.7-0.25,1.06-0.33c0.14-0.03,0.28-0.06,0.42-0.08c0.73-0.12,2.35-0.21,3.05,0.39 c0.07,0.06,0.13,0.12,0.18,0.2c0.03,0.05,0.06,0.1,0.09,0.16c0.01,0.03,0.02,0.06,0.03,0.1c0,0.02,0.01,0.03,0.01,0.04 c0.01,0.01,0.02,0.01,0.02,0.03c0,0.01-0.01,0.03-0.02,0.04c0,0.02,0.01,0.04,0.01,0.07c0,0.02-0.02,0.03-0.03,0.05 c-0.02,0.03-0.01,0.07-0.02,0.11c-0.02,0.04-0.07,0.07-0.09,0.11c0.01,0.02,0.02,0.04,0.03,0.06c0.01-0.01,0.03-0.01,0.04,0 s0.01,0.03,0.01,0.04c0,0.01,0,0.03,0.01,0.04c0.01,0.01,0.02,0.01,0.04,0.01s0.03,0.01,0.03,0.02c0,0,0,0.01,0,0.01 c-0.01,0.03-0.02,0.07-0.03,0.1c-0.01,0.02-0.01,0.04-0.02,0.06c-0.01,0.02-0.03,0.04-0.03,0.06c0,0.02,0.02,0.04,0.03,0.05 c0.01,0.01,0.03,0.04,0.02,0.05c0,0.01-0.01,0.01-0.01,0.02c0,0.01,0,0.02,0,0.03c0.01,0.02,0.02,0.04,0.03,0.06 c0,0.01,0.01,0.01,0.01,0.02c0,0.01,0,0.01,0,0.02c-0.01,0.02-0.01,0.05-0.02,0.07c0,0.01,0,0.01,0,0.02c0,0.01,0.02,0.02,0.03,0.03 c0.02,0.02,0.01,0.06,0.02,0.09c0.01,0.02,0.04,0.03,0.04,0.06c0,0.01,0,0.02,0,0.02c0,0.05,0.07,0.03,0.05,0.08 c-0.01,0.04-0.03,0.09,0,0.12c0.01,0.01,0.01,0.01,0.01,0.02c0,0,0,0.01-0.01,0.01c-0.02,0.02-0.04,0.05-0.04,0.08 c0,0.01,0,0.03,0.01,0.04c0,0.02,0,0.04,0,0.06c0,0,0,0.01,0,0.01c0,0-0.01,0.01-0.01,0.01c-0.02,0.01-0.05,0.02-0.07,0.03 s-0.05,0.03-0.06,0.05c0,0,0,0.01,0,0.01c0,0,0,0.01,0,0.01c0.02,0.03,0.02,0.06,0.03,0.09c0,0.01,0,0.02,0,0.03 c0,0.01-0.01,0.02-0.01,0.03c-0.01,0.01-0.01,0.03-0.01,0.04c0,0.01,0.01,0.02,0,0.03c0,0.01-0.01,0.01-0.01,0.02 c-0.01,0.01-0.02,0.03-0.03,0.04c0,0.01-0.01,0.03-0.01,0.04c-0.01,0.02-0.03,0.04-0.05,0.05c-0.01,0.02-0.03,0.04-0.04,0.05 c-0.01,0.01-0.05,0.07-0.06,0.07c-0.32-0.11-1.65-0.56-2.28-0.61c-0.03,0-0.05,0-0.08-0.01c-0.36-0.02-0.72-0.02-1.08,0.02 c-0.3,0.03-0.6,0.08-0.9,0.15c-0.12,0.03-0.25,0.06-0.37,0.1c-0.05,0.02-0.11,0.03-0.16,0.05C43,14.47,42.94,14.49,42.9,14.5z" fill="#86e3ce"/></g><g id="change2_8"><path d="M22.47,44.29c0.03-0.02,0.07-0.07,0.07-0.08c0.03-0.04,0.02-0.05,0.04-0.09c0.02-0.03,0.05-0.06,0.07-0.09 c0.01-0.01,0.01-0.03,0.02-0.04c0-0.01,0.04-0.06,0.04-0.06c0.01-0.03,0.03-0.06,0.04-0.1c0.02-0.05,0.05-0.08,0.07-0.12 c0.02-0.05,0.03-0.1,0.06-0.15c0.02-0.04,0.05-0.06,0.07-0.09c0.04-0.05,0.05-0.12,0.1-0.17c0.02-0.02,0.04-0.03,0.06-0.05 c0.02-0.02,0.03-0.04,0.05-0.06c0.07-0.08,0.07-0.09,0.11-0.19c0.04-0.09,0.1-0.17,0.13-0.26c0.02-0.05,0.01-0.11,0.03-0.16 c0.02-0.03,0.04-0.05,0.07-0.08c0.07-0.08,0.15-0.19,0.19-0.29c0.09-0.01,0.19-0.24,0.22-0.34c0.01-0.05,0.02-0.07,0.02-0.08 c0.01-0.03,0.03-0.03,0.07-0.07c0.04-0.04,0.06-0.06,0.07-0.09c0.01-0.04-0.02-0.08-0.05-0.08c-0.02,0-0.04,0-0.07-0.01 c-0.01-0.01-0.02-0.01-0.03-0.02c-0.03-0.04-0.04-0.1-0.09-0.11c-0.03-0.01-0.06,0.01-0.08-0.01c-0.02-0.01-0.03-0.06-0.04-0.08 c-0.01-0.02-0.01-0.04-0.03-0.05c-0.02-0.01-0.05,0.01-0.08,0c-0.02-0.01-0.03-0.04-0.06-0.05c-0.04-0.02-0.08-0.01-0.14,0.01 c-0.07,0.02-0.06-0.02-0.11-0.05c-0.03-0.02-0.06-0.01-0.08-0.03c-0.03-0.02-0.04-0.08-0.08-0.09c-0.03-0.01-0.05,0.02-0.07,0.01 c-0.02-0.01-0.05-0.05-0.07-0.07c-0.02-0.01-0.03-0.04-0.06-0.04c-0.03-0.01-0.05,0-0.08,0c-0.09-0.01-0.08-0.09-0.12-0.06 c-0.02,0.01-0.04,0.04-0.14,0.21c-0.01,0.01-0.01,0.03-0.03,0.04c-0.02,0.02-0.03,0.02-0.05,0.04c-0.06,0.07-0.06,0.08-0.09,0.17 c-0.03,0.1-0.08,0.17-0.13,0.26c-0.01,0.02-0.03,0.04-0.04,0.06c-0.01,0.03-0.02,0.09-0.03,0.11c-0.04,0.06-0.09,0.07-0.13,0.14 c-0.03,0.05-0.03,0.1-0.06,0.14c-0.02,0.04-0.04,0.06-0.07,0.1c-0.02,0.03-0.07,0.12-0.09,0.16c-0.03,0.06-0.01,0.05-0.04,0.15 c-0.02,0.07-0.04,0.13-0.07,0.18c-0.02,0.04-0.05,0.07-0.07,0.09c-0.08,0.19-0.15,0.36-0.3,0.52c-0.13,0.14-0.04,0.2-0.14,0.35 c0.03,0.02,0.06,0.02,0.09,0.03c0.04,0.02,0.03,0.05,0.06,0.08c0.03,0.04,0.09,0,0.14,0.01c0.02,0.01,0.03,0.04,0.05,0.04 c0.04,0.01,0.07-0.04,0.1,0c0.02,0.03,0.01,0.09,0.04,0.11c0.03,0.02,0.07,0,0.09,0.01c0.03,0.01,0.04,0.06,0.07,0.08 c0.05,0.03,0.14-0.04,0.17,0.01c0.02,0.03,0.01,0.06,0.04,0.07c0.03,0.01,0.04,0.02,0.1,0.02c0.07,0,0.12,0.06,0.16,0.1 C22.42,44.25,22.43,44.32,22.47,44.29z" fill="#fff78c"/></g><g id="change4_7"><path d="M24.05,33.8c0.01-0.04-0.01-0.1-0.01-0.11c-0.01-0.05-0.02-0.05-0.04-0.1c-0.01-0.04-0.01-0.08-0.02-0.11 c0-0.01-0.02-0.03-0.02-0.04c0-0.01-0.01-0.07-0.01-0.07c-0.01-0.03-0.03-0.06-0.04-0.1c-0.02-0.05-0.03-0.09-0.05-0.13 c-0.02-0.05-0.05-0.09-0.07-0.15c-0.02-0.05-0.01-0.07-0.02-0.11c-0.01-0.06-0.05-0.12-0.06-0.18c0-0.03,0.01-0.05,0.01-0.08 c0-0.03-0.01-0.05-0.01-0.08c-0.01-0.11-0.02-0.11-0.06-0.21c-0.04-0.08-0.06-0.19-0.11-0.27c-0.02-0.04-0.07-0.08-0.09-0.13 c-0.01-0.04-0.01-0.07-0.01-0.1c-0.01-0.11-0.04-0.24-0.08-0.34c0.05-0.07-0.05-0.3-0.1-0.39c-0.03-0.04-0.04-0.06-0.05-0.07 c-0.01-0.03,0-0.04-0.01-0.1c0-0.06-0.01-0.09-0.02-0.11c-0.02-0.04-0.07-0.04-0.1-0.02c-0.02,0.01-0.02,0.03-0.05,0.04 c-0.01,0-0.02,0.01-0.04,0c-0.05-0.01-0.1-0.04-0.14-0.01c-0.02,0.01-0.04,0.05-0.06,0.06c-0.02,0.01-0.06-0.01-0.09-0.02 c-0.03-0.01-0.04-0.02-0.06-0.01c-0.03,0.01-0.03,0.04-0.05,0.05c-0.02,0.01-0.06,0-0.08,0.01c-0.04,0.02-0.06,0.06-0.09,0.11 c-0.03,0.07-0.06,0.03-0.11,0.05c-0.03,0.01-0.05,0.03-0.08,0.04c-0.04,0-0.09-0.02-0.12,0c-0.02,0.01-0.02,0.05-0.04,0.06 c-0.02,0.01-0.07,0-0.1,0.01c-0.02,0.01-0.05,0-0.07,0.02c-0.03,0.02-0.04,0.03-0.06,0.05c-0.06,0.06-0.12,0-0.13,0.05 c-0.01,0.02,0.01,0.05,0.06,0.25c0,0.01,0.01,0.03,0.01,0.05c0,0.02,0,0.04,0,0.07c0.01,0.09,0.01,0.1,0.06,0.18 c0.05,0.08,0.07,0.17,0.1,0.27c0.01,0.02,0.01,0.05,0.02,0.07c0.01,0.03,0.05,0.07,0.06,0.1c0.02,0.07-0.01,0.12,0.01,0.19 c0.02,0.06,0.05,0.09,0.07,0.14c0.02,0.05,0.02,0.07,0.03,0.12c0.01,0.04,0.04,0.13,0.06,0.17c0.02,0.06,0.03,0.04,0.09,0.13 c0.04,0.06,0.07,0.11,0.09,0.18c0.01,0.05,0.02,0.08,0.02,0.11c0.09,0.18,0.16,0.36,0.17,0.57c0.01,0.2,0.12,0.17,0.17,0.34 c0.03-0.01,0.06-0.03,0.09-0.05c0.04-0.02,0.06,0.01,0.1,0.01c0.05,0.01,0.06-0.07,0.1-0.09c0.02-0.01,0.05,0,0.07-0.01 c0.03-0.03,0.02-0.08,0.07-0.08c0.04,0,0.07,0.05,0.11,0.04c0.03-0.01,0.04-0.05,0.07-0.06c0.03-0.02,0.07,0.01,0.11,0 c0.05-0.02,0.07-0.12,0.13-0.12c0.03,0,0.05,0.03,0.08,0.02c0.03-0.01,0.05-0.02,0.08-0.05c0.05-0.05,0.13-0.05,0.18-0.05 C23.99,33.8,24.04,33.84,24.05,33.8z" fill="#d0e6a5"/></g><g id="change4_8"><path d="M40.71,44.57c0.02,0.03,0.09,0.05,0.1,0.05c0.05,0.01,0.05,0.01,0.1,0.02c0.04,0.01,0.07,0.03,0.11,0.04 c0.01,0,0.04,0,0.04,0c0.01,0,0.07,0.02,0.07,0.02c0.03,0.01,0.07,0.01,0.11,0.01c0.05,0.01,0.09,0.02,0.14,0.03 c0.05,0.01,0.1,0,0.16,0.02c0.05,0.01,0.07,0.03,0.1,0.04c0.06,0.02,0.13,0.02,0.19,0.05c0.02,0.01,0.04,0.03,0.06,0.05 c0.03,0.01,0.05,0.02,0.07,0.03c0.1,0.05,0.1,0.04,0.21,0.06c0.09,0.01,0.19,0.05,0.29,0.05c0.05,0,0.11-0.02,0.16-0.01 c0.04,0.01,0.06,0.03,0.09,0.04c0.1,0.04,0.22,0.09,0.33,0.11c0.03,0.08,0.28,0.12,0.38,0.12c0.05,0,0.07,0,0.09,0 c0.03,0.01,0.04,0.02,0.09,0.05c0.05,0.03,0.08,0.04,0.1,0.04c0.04,0,0.07-0.04,0.07-0.07c0-0.02-0.02-0.04-0.01-0.07 c0-0.01,0.01-0.02,0.02-0.03c0.03-0.04,0.08-0.06,0.08-0.11c0-0.03-0.02-0.06-0.02-0.08c0.01-0.02,0.05-0.05,0.06-0.06 c0.02-0.02,0.04-0.02,0.04-0.05c0.01-0.03-0.02-0.05-0.02-0.07c0-0.02,0.03-0.05,0.04-0.07c0.01-0.05-0.02-0.08-0.05-0.13 c-0.04-0.06,0-0.07,0.02-0.12c0.01-0.03,0-0.06,0.01-0.09c0.02-0.03,0.06-0.06,0.06-0.1c0-0.03-0.03-0.04-0.03-0.07 c0-0.02,0.04-0.06,0.05-0.09c0.01-0.02,0.03-0.04,0.02-0.07c0-0.03-0.01-0.05-0.02-0.08c-0.02-0.09,0.07-0.1,0.03-0.14 c-0.02-0.02-0.05-0.02-0.24-0.08c-0.01,0-0.03-0.01-0.05-0.02c-0.02-0.01-0.03-0.02-0.06-0.04c-0.08-0.04-0.09-0.04-0.18-0.04 c-0.1,0-0.18-0.03-0.28-0.06c-0.02-0.01-0.05-0.02-0.07-0.02c-0.03-0.01-0.09,0.01-0.11,0c-0.07-0.02-0.09-0.07-0.17-0.09 c-0.06-0.02-0.1-0.01-0.15-0.02c-0.05-0.01-0.07-0.02-0.11-0.04c-0.04-0.01-0.13-0.04-0.18-0.04c-0.06-0.01-0.05,0-0.16,0 c-0.08,0-0.13,0-0.2-0.02c-0.05-0.01-0.08-0.03-0.1-0.04c-0.2-0.02-0.39-0.05-0.58-0.15c-0.17-0.09-0.21,0.02-0.38-0.04 c-0.01,0.03,0,0.07-0.01,0.1c-0.01,0.05-0.04,0.04-0.06,0.08C40.95,43.42,41,43.47,41,43.51c0,0.02-0.03,0.04-0.03,0.06 c0,0.04,0.06,0.06,0.03,0.1c-0.02,0.03-0.08,0.03-0.09,0.07c-0.01,0.03,0.02,0.06,0.01,0.09c-0.01,0.04-0.05,0.06-0.05,0.09 c-0.01,0.05,0.07,0.12,0.03,0.17c-0.02,0.03-0.05,0.02-0.06,0.06c0,0.03-0.01,0.05,0,0.1c0.02,0.07-0.02,0.13-0.06,0.18 C40.74,44.51,40.68,44.54,40.71,44.57z" fill="#d0e6a5"/></g><g id="change4_9"><path d="M47.48,20.9c0.02,0.03,0.09,0.05,0.1,0.05c0.05,0.01,0.05,0.01,0.1,0.02c0.04,0.01,0.07,0.03,0.11,0.04 c0.01,0,0.04,0,0.04,0c0.01,0,0.07,0.02,0.07,0.02c0.03,0.01,0.07,0.01,0.11,0.01c0.05,0.01,0.09,0.02,0.14,0.03 c0.05,0.01,0.1,0,0.16,0.02c0.05,0.01,0.07,0.03,0.1,0.04c0.06,0.02,0.13,0.02,0.19,0.05c0.02,0.01,0.04,0.03,0.06,0.05 c0.03,0.01,0.05,0.02,0.07,0.03c0.1,0.05,0.1,0.04,0.21,0.06c0.09,0.01,0.19,0.05,0.29,0.05c0.05,0,0.11-0.02,0.16-0.01 c0.04,0.01,0.06,0.03,0.09,0.04c0.1,0.04,0.22,0.09,0.33,0.11c0.03,0.08,0.28,0.12,0.38,0.12c0.05,0,0.07,0,0.09,0 c0.03,0.01,0.04,0.02,0.09,0.05c0.05,0.03,0.08,0.04,0.1,0.04c0.04,0,0.07-0.04,0.07-0.07c0-0.02-0.02-0.04-0.01-0.07 c0-0.01,0.01-0.02,0.02-0.03c0.03-0.04,0.08-0.06,0.08-0.11c0-0.03-0.02-0.06-0.02-0.08c0.01-0.02,0.05-0.05,0.06-0.06 c0.02-0.02,0.04-0.02,0.04-0.05c0.01-0.03-0.02-0.05-0.02-0.07c0-0.02,0.03-0.05,0.04-0.07c0.01-0.05-0.02-0.08-0.05-0.13 c-0.04-0.06,0-0.07,0.02-0.12c0.01-0.03,0-0.06,0.01-0.09c0.02-0.03,0.06-0.06,0.06-0.1c0-0.03-0.03-0.04-0.03-0.07 c0-0.02,0.04-0.06,0.05-0.09c0.01-0.02,0.03-0.04,0.02-0.07c0-0.03-0.01-0.05-0.02-0.08c-0.02-0.09,0.07-0.1,0.03-0.14 c-0.02-0.02-0.05-0.02-0.24-0.08c-0.01,0-0.03-0.01-0.05-0.02c-0.02-0.01-0.03-0.02-0.06-0.04c-0.08-0.04-0.09-0.04-0.18-0.04 c-0.1,0-0.18-0.03-0.28-0.06c-0.02-0.01-0.05-0.02-0.07-0.02c-0.03-0.01-0.09,0.01-0.11,0c-0.07-0.02-0.09-0.07-0.17-0.09 c-0.06-0.02-0.1-0.01-0.15-0.02c-0.05-0.01-0.07-0.02-0.11-0.04c-0.04-0.01-0.13-0.04-0.18-0.04c-0.06-0.01-0.05,0-0.16,0 c-0.08,0-0.13,0-0.2-0.02c-0.05-0.01-0.08-0.03-0.1-0.04c-0.2-0.02-0.39-0.05-0.58-0.15c-0.17-0.09-0.21,0.02-0.38-0.04 c-0.01,0.03,0,0.07-0.01,0.1c-0.01,0.05-0.04,0.04-0.06,0.08c-0.03,0.04,0.03,0.09,0.03,0.13c0,0.02-0.03,0.04-0.03,0.06 c0,0.04,0.06,0.06,0.03,0.1c-0.02,0.03-0.08,0.03-0.09,0.07c-0.01,0.03,0.02,0.06,0.01,0.09c-0.01,0.04-0.05,0.06-0.05,0.09 c-0.01,0.05,0.07,0.12,0.03,0.17c-0.02,0.03-0.05,0.02-0.06,0.06c0,0.03-0.01,0.05,0,0.1c0.02,0.07-0.02,0.13-0.06,0.18 C47.51,20.84,47.44,20.86,47.48,20.9z" fill="#d0e6a5"/></g><g id="change4_10"><path d="M18.7,67.95c0.02,0.03,0.09,0.05,0.1,0.05c0.05,0.01,0.05,0.01,0.1,0.02c0.04,0.01,0.07,0.03,0.11,0.04 c0.01,0,0.04,0,0.04,0c0.01,0,0.07,0.02,0.07,0.02c0.03,0.01,0.07,0.01,0.11,0.01c0.05,0.01,0.09,0.02,0.14,0.03 c0.05,0.01,0.1,0,0.16,0.02c0.05,0.01,0.07,0.03,0.1,0.04c0.06,0.02,0.13,0.02,0.19,0.05c0.02,0.01,0.04,0.03,0.06,0.05 c0.03,0.01,0.05,0.02,0.07,0.03c0.1,0.05,0.1,0.04,0.21,0.06c0.09,0.01,0.19,0.05,0.29,0.05c0.05,0,0.11-0.02,0.16-0.01 c0.04,0.01,0.06,0.03,0.09,0.04c0.1,0.04,0.22,0.09,0.33,0.11c0.03,0.08,0.28,0.12,0.38,0.12c0.05,0,0.07,0,0.09,0 c0.03,0.01,0.04,0.02,0.09,0.05c0.05,0.03,0.08,0.04,0.1,0.04c0.04,0,0.07-0.04,0.07-0.07c0-0.02-0.02-0.04-0.01-0.07 c0-0.01,0.01-0.02,0.02-0.03c0.03-0.04,0.08-0.06,0.08-0.11c0-0.03-0.02-0.06-0.02-0.08c0.01-0.02,0.05-0.05,0.06-0.06 c0.02-0.02,0.04-0.02,0.04-0.05c0.01-0.03-0.02-0.05-0.02-0.07c0-0.02,0.03-0.05,0.04-0.07c0.01-0.05-0.02-0.08-0.05-0.13 c-0.04-0.06,0-0.07,0.02-0.12c0.01-0.03,0-0.06,0.01-0.09c0.02-0.03,0.06-0.06,0.06-0.1c0-0.03-0.03-0.04-0.03-0.07 c0-0.02,0.04-0.06,0.05-0.09c0.01-0.02,0.03-0.04,0.02-0.07c0-0.03-0.01-0.05-0.02-0.08c-0.02-0.09,0.07-0.1,0.03-0.14 c-0.02-0.02-0.05-0.02-0.24-0.08c-0.01,0-0.03-0.01-0.05-0.02c-0.02-0.01-0.03-0.02-0.06-0.04c-0.08-0.04-0.09-0.04-0.18-0.04 c-0.1,0-0.18-0.03-0.28-0.06c-0.02-0.01-0.05-0.02-0.07-0.02c-0.03-0.01-0.09,0.01-0.11,0c-0.07-0.02-0.09-0.07-0.17-0.09 c-0.06-0.02-0.1-0.01-0.15-0.02c-0.05-0.01-0.07-0.02-0.11-0.04c-0.04-0.01-0.13-0.04-0.18-0.04c-0.06-0.01-0.05,0-0.16,0 c-0.08,0-0.13,0-0.2-0.02c-0.05-0.01-0.08-0.03-0.1-0.04c-0.2-0.02-0.39-0.05-0.58-0.15c-0.17-0.09-0.21,0.02-0.38-0.04 c-0.01,0.03,0,0.07-0.01,0.1c-0.01,0.05-0.04,0.04-0.06,0.08C18.94,66.79,19,66.84,19,66.89c0,0.02-0.03,0.04-0.03,0.06 c0,0.04,0.06,0.06,0.03,0.1c-0.02,0.03-0.08,0.03-0.09,0.07c-0.01,0.03,0.02,0.06,0.01,0.09c-0.01,0.04-0.05,0.06-0.05,0.09 c-0.01,0.05,0.07,0.12,0.03,0.17c-0.02,0.03-0.05,0.02-0.06,0.06c0,0.03-0.01,0.05,0,0.1c0.02,0.07-0.02,0.13-0.06,0.18 C18.74,67.89,18.67,67.91,18.7,67.95z" fill="#d0e6a5"/></g><g id="change4_11"><path d="M69.72,63.26c0.02,0.03,0.09,0.05,0.1,0.05c0.05,0.01,0.05,0.01,0.1,0.02c0.04,0.01,0.07,0.03,0.11,0.04 c0.01,0,0.04,0,0.04,0c0.01,0,0.07,0.02,0.07,0.02c0.03,0.01,0.07,0.01,0.11,0.01c0.05,0.01,0.09,0.02,0.14,0.03 c0.05,0.01,0.1,0,0.16,0.02c0.05,0.01,0.07,0.03,0.1,0.04c0.06,0.02,0.13,0.02,0.19,0.05c0.02,0.01,0.04,0.03,0.06,0.05 c0.03,0.01,0.05,0.02,0.07,0.03c0.1,0.05,0.1,0.04,0.21,0.06c0.09,0.01,0.19,0.05,0.29,0.05c0.05,0,0.11-0.02,0.16-0.01 c0.04,0.01,0.06,0.03,0.09,0.04c0.1,0.04,0.22,0.09,0.33,0.11c0.03,0.08,0.28,0.12,0.38,0.12c0.05,0,0.07,0,0.09,0 c0.03,0.01,0.04,0.02,0.09,0.05c0.05,0.03,0.08,0.04,0.1,0.04c0.04,0,0.07-0.04,0.07-0.07c0-0.02-0.02-0.04-0.01-0.07 c0-0.01,0.01-0.02,0.02-0.03c0.03-0.04,0.08-0.06,0.08-0.11c0-0.03-0.02-0.06-0.02-0.08c0.01-0.02,0.05-0.05,0.06-0.06 c0.02-0.02,0.04-0.02,0.04-0.05c0.01-0.03-0.02-0.05-0.02-0.07c0-0.02,0.03-0.05,0.04-0.07c0.01-0.05-0.02-0.08-0.05-0.13 c-0.04-0.06,0-0.07,0.02-0.12c0.01-0.03,0-0.06,0.01-0.09c0.02-0.03,0.06-0.06,0.06-0.1c0-0.03-0.03-0.04-0.03-0.07 c0-0.02,0.04-0.06,0.05-0.09c0.01-0.02,0.03-0.04,0.02-0.07c0-0.03-0.01-0.05-0.02-0.08c-0.02-0.09,0.07-0.1,0.03-0.14 c-0.02-0.02-0.05-0.02-0.24-0.08c-0.01,0-0.03-0.01-0.05-0.02c-0.02-0.01-0.03-0.02-0.06-0.04c-0.08-0.04-0.09-0.04-0.18-0.04 c-0.1,0-0.18-0.03-0.28-0.06c-0.02-0.01-0.05-0.02-0.07-0.02c-0.03-0.01-0.09,0.01-0.11,0c-0.07-0.02-0.09-0.07-0.17-0.09 c-0.06-0.02-0.1-0.01-0.15-0.02c-0.05-0.01-0.07-0.02-0.11-0.04c-0.04-0.01-0.13-0.04-0.18-0.04c-0.06-0.01-0.05,0-0.16,0 c-0.08,0-0.13,0-0.2-0.02c-0.05-0.01-0.08-0.03-0.1-0.04c-0.2-0.02-0.39-0.05-0.58-0.15c-0.17-0.09-0.21,0.02-0.38-0.04 c-0.01,0.03,0,0.07-0.01,0.1c-0.01,0.05-0.04,0.04-0.06,0.08c-0.03,0.04,0.03,0.09,0.03,0.13c0,0.02-0.03,0.04-0.03,0.06 c0,0.04,0.06,0.06,0.03,0.1c-0.02,0.03-0.08,0.03-0.09,0.07c-0.01,0.03,0.02,0.06,0.01,0.09c-0.01,0.04-0.05,0.06-0.05,0.09 c-0.01,0.05,0.07,0.12,0.03,0.17c-0.02,0.03-0.05,0.02-0.06,0.06c0,0.03-0.01,0.05,0,0.1c0.02,0.07-0.02,0.13-0.06,0.18 C69.75,63.2,69.69,63.22,69.72,63.26z" fill="#d0e6a5"/></g><g id="change4_12"><path d="M79.31,51.83c0.04,0,0.09-0.05,0.1-0.05c0.04-0.03,0.04-0.04,0.07-0.07c0.03-0.02,0.07-0.04,0.09-0.06 c0.01-0.01,0.02-0.03,0.03-0.03c0.01,0,0.06-0.04,0.06-0.04c0.02-0.02,0.05-0.05,0.07-0.08c0.03-0.04,0.07-0.06,0.11-0.09 c0.04-0.04,0.06-0.08,0.11-0.12c0.04-0.03,0.06-0.04,0.09-0.06c0.05-0.04,0.09-0.1,0.15-0.13c0.02-0.01,0.05-0.01,0.07-0.02 c0.03-0.01,0.04-0.03,0.07-0.04c0.09-0.05,0.09-0.06,0.17-0.14c0.06-0.07,0.15-0.13,0.21-0.2c0.03-0.04,0.04-0.1,0.09-0.14 c0.03-0.03,0.06-0.03,0.09-0.05c0.09-0.05,0.2-0.13,0.28-0.2c0.09,0.02,0.26-0.16,0.32-0.24c0.03-0.04,0.04-0.06,0.05-0.07 c0.02-0.02,0.04-0.02,0.09-0.05c0.05-0.03,0.08-0.04,0.09-0.06c0.03-0.04,0.01-0.08-0.02-0.1c-0.02-0.01-0.04-0.01-0.06-0.03 c-0.01-0.01-0.01-0.02-0.02-0.03c-0.01-0.05,0-0.1-0.04-0.13c-0.02-0.02-0.06-0.01-0.07-0.03c-0.01-0.02-0.01-0.06-0.01-0.09 c0-0.03,0-0.04-0.01-0.06c-0.02-0.02-0.05-0.01-0.07-0.03c-0.02-0.01-0.02-0.05-0.03-0.07c-0.03-0.03-0.08-0.03-0.13-0.04 c-0.08,0-0.05-0.04-0.08-0.08c-0.02-0.03-0.05-0.03-0.06-0.06c-0.02-0.03-0.02-0.09-0.05-0.11C81.03,49,81,49.02,80.98,49 c-0.02-0.01-0.03-0.07-0.05-0.09c-0.01-0.02-0.02-0.04-0.04-0.06c-0.03-0.02-0.05-0.02-0.07-0.03c-0.08-0.04-0.04-0.11-0.09-0.1 c-0.02,0-0.05,0.03-0.21,0.15c-0.01,0.01-0.02,0.02-0.04,0.03c-0.02,0.01-0.03,0.01-0.06,0.02c-0.08,0.04-0.09,0.05-0.14,0.12 c-0.06,0.08-0.13,0.13-0.21,0.19c-0.02,0.02-0.04,0.03-0.06,0.05c-0.02,0.02-0.05,0.07-0.07,0.09c-0.06,0.04-0.11,0.04-0.17,0.08 c-0.05,0.04-0.06,0.08-0.1,0.12c-0.03,0.03-0.06,0.04-0.1,0.07c-0.03,0.02-0.11,0.09-0.14,0.12c-0.04,0.04-0.03,0.04-0.09,0.13 c-0.04,0.06-0.08,0.1-0.13,0.15c-0.04,0.03-0.07,0.05-0.09,0.06c-0.14,0.15-0.27,0.29-0.46,0.38c-0.18,0.09-0.11,0.18-0.25,0.28 c0.02,0.03,0.05,0.04,0.08,0.06c0.04,0.03,0.01,0.05,0.03,0.1c0.01,0.05,0.09,0.03,0.12,0.05c0.02,0.01,0.02,0.05,0.03,0.06 c0.04,0.02,0.08-0.01,0.1,0.03c0.01,0.03-0.02,0.08,0,0.11c0.02,0.02,0.06,0.02,0.08,0.04c0.03,0.03,0.02,0.07,0.04,0.1 c0.04,0.04,0.14,0.01,0.16,0.07c0.01,0.03-0.01,0.06,0.02,0.08c0.02,0.02,0.03,0.04,0.08,0.05c0.07,0.02,0.09,0.1,0.11,0.15 C79.28,51.77,79.26,51.84,79.31,51.83z" fill="#d0e6a5"/></g><g id="change2_9"><path d="M13.49,48.76c-0.03-0.02-0.1-0.01-0.11-0.01c-0.05,0-0.05,0.01-0.1,0.02c-0.04,0-0.08,0-0.11,0 c-0.01,0-0.03,0.01-0.04,0.01c-0.01,0-0.07,0-0.07,0c-0.03,0.01-0.07,0.02-0.1,0.03c-0.05,0.01-0.09,0.01-0.14,0.02 c-0.05,0.01-0.1,0.03-0.16,0.04c-0.05,0.01-0.08,0-0.11,0c-0.06,0-0.13,0.03-0.19,0.02c-0.03,0-0.05-0.02-0.07-0.02 c-0.03,0-0.05,0-0.08,0c-0.11-0.01-0.11,0-0.22,0.03c-0.09,0.02-0.2,0.02-0.29,0.05c-0.05,0.02-0.09,0.06-0.15,0.07 c-0.04,0.01-0.07-0.01-0.1-0.01C11.34,49,11.21,49,11.1,49.03c-0.06-0.06-0.3-0.01-0.4,0.03c-0.05,0.02-0.06,0.03-0.08,0.03 c-0.03,0-0.04,0-0.1-0.01c-0.06-0.01-0.09-0.01-0.11,0c-0.04,0.02-0.05,0.06-0.04,0.09c0.01,0.02,0.03,0.03,0.03,0.06 c0,0.01,0,0.02,0,0.04c-0.01,0.05-0.05,0.09-0.04,0.13c0.01,0.02,0.04,0.04,0.04,0.07c0,0.02-0.03,0.06-0.03,0.08 c-0.01,0.03-0.03,0.03-0.02,0.06c0,0.03,0.03,0.04,0.04,0.06c0.01,0.02-0.01,0.05-0.01,0.08c0.01,0.05,0.04,0.07,0.09,0.1 c0.06,0.05,0.02,0.06,0.03,0.11c0,0.03,0.02,0.05,0.02,0.08c0,0.04-0.03,0.08-0.02,0.12c0.01,0.03,0.04,0.03,0.05,0.05 c0.01,0.02-0.01,0.07-0.01,0.1c0,0.02-0.01,0.05,0,0.07c0.02,0.03,0.03,0.04,0.04,0.06c0.05,0.07-0.02,0.12,0.02,0.14 c0.02,0.01,0.05,0,0.26-0.01c0.01,0,0.03,0,0.05,0c0.02,0,0.03,0.01,0.07,0.01c0.09,0.01,0.1,0.01,0.18-0.03 c0.09-0.04,0.18-0.04,0.28-0.05c0.03,0,0.05,0,0.07-0.01c0.03-0.01,0.08-0.04,0.11-0.04c0.07,0,0.11,0.03,0.19,0.02 c0.06-0.01,0.1-0.03,0.15-0.04c0.05-0.01,0.07,0,0.12-0.01c0.04,0,0.14-0.01,0.18-0.02c0.06-0.01,0.05-0.02,0.15-0.06 c0.07-0.03,0.12-0.05,0.19-0.05c0.05,0,0.09,0,0.11,0c0.2-0.05,0.38-0.09,0.59-0.07c0.2,0.02,0.19-0.09,0.37-0.1 c0-0.03-0.02-0.06-0.03-0.09c-0.01-0.05,0.02-0.05,0.03-0.1c0.01-0.05-0.06-0.07-0.07-0.11c-0.01-0.02,0.01-0.05,0-0.07 c-0.02-0.04-0.08-0.03-0.06-0.08c0.01-0.03,0.07-0.06,0.06-0.09c0-0.03-0.04-0.05-0.05-0.08c-0.01-0.04,0.02-0.07,0.02-0.1 c-0.01-0.05-0.11-0.09-0.09-0.15c0.01-0.03,0.04-0.04,0.03-0.08c-0.01-0.03-0.01-0.05-0.04-0.09c-0.04-0.06-0.03-0.13-0.01-0.19 C13.49,48.82,13.54,48.78,13.49,48.76z" fill="#fff78c"/></g></svg>